<?xml version="1.0"?>
<svg xmlns="http://www.w3.org/2000/svg" height="512px" viewBox="0 -34 512 512" width="512px" class=""><g transform="matrix(-1.83697e-16 -1 1 -1.83697e-16 34 478)"><path d="m503.464844 17.066406h-494.929688c-4.710937 0-8.535156-3.824218-8.535156-8.53125 0-4.710937 3.824219-8.535156 8.535156-8.535156h494.929688c4.710937 0 8.535156 3.824219 8.535156 8.535156 0 4.707032-3.824219 8.53125-8.535156 8.53125zm0 0" data-original="#000000" class="active-path" fill="#000000"/><path d="m452.265625 273.066406h-162.132813c-4.710937 0-8.53125-3.824218-8.53125-8.53125v-187.734375c0-4.710937 3.820313-8.535156 8.53125-8.535156h162.132813c4.710937 0 8.535156 3.824219 8.535156 8.535156v187.734375c0 4.707032-3.824219 8.53125-8.535156 8.53125zm-153.597656-17.066406h145.066406v-170.667969h-145.066406zm0 0" data-original="#000000" class="active-path" fill="#000000"/><path d="m221.867188 443.734375h-162.132813c-4.710937 0-8.535156-3.824219-8.535156-8.535156v-358.398438c0-4.710937 3.824219-8.535156 8.535156-8.535156h162.132813c4.710937 0 8.53125 3.824219 8.53125 8.535156v358.398438c0 4.710937-3.820313 8.535156-8.53125 8.535156zm-153.601563-17.066406h145.066406v-341.335938h-145.066406zm0 0" data-original="#000000" class="active-path" fill="#000000"/></g> </svg>
