<svg width="20" height="16" viewBox="0 0 20 16" fill="none" xmlns="http://www.w3.org/2000/svg">
<g opacity="0.4">
<path d="M18.943 2.40765H10.5091L1.19553 0.0175422C1.02869 -0.0253635 0.851851 0.0114542 0.715887 0.116834C0.580067 0.222359 0.500488 0.384705 0.500488 0.556618V15.0889C0.500488 15.261 0.580067 15.4233 0.715887 15.5287C0.814599 15.6054 0.934909 15.6455 1.0571 15.6455C1.10334 15.6455 1.14973 15.6399 1.19553 15.6281L10.5091 13.238H18.943C19.2504 13.238 19.4996 12.9887 19.4996 12.6814V2.96427C19.4996 2.65682 19.2504 2.40765 18.943 2.40765ZM1.61372 1.27413L9.8822 3.39608V12.2494L1.61372 14.3714V1.27413ZM13.9339 12.1248V10.7918C14.1886 10.7408 14.3803 10.516 14.3803 10.2462C14.3803 9.9766 14.1886 9.75178 13.9339 9.70061V8.54766H15.4479V12.1248H13.9339ZM18.3864 12.1248H16.5611V7.99105C16.5611 7.68375 16.3118 7.43443 16.0045 7.43443H13.3773C13.07 7.43443 12.8207 7.68375 12.8207 7.99105V12.1248H10.9954V3.52088H18.3864V12.1248Z" fill="#1F1F1F"/>
<path d="M8.07712 5.20087L4.14676 4.33754C3.98224 4.30145 3.80989 4.34174 3.67842 4.44741C3.54709 4.55308 3.4707 4.71267 3.4707 4.88125V10.7644C3.4707 10.933 3.54709 11.0924 3.67842 11.1981C3.77829 11.2784 3.90164 11.321 4.02732 11.321C4.06703 11.321 4.10704 11.3167 4.14676 11.308L8.07712 10.4446C8.33238 10.3887 8.5143 10.1624 8.5143 9.90108V5.74459C8.5143 5.48309 8.33238 5.25697 8.07712 5.20087ZM4.58393 5.5734L5.43581 5.76053V7.33703C5.28274 7.43632 5.18128 7.60823 5.18128 7.8042C5.18128 8.00018 5.28274 8.17224 5.43581 8.27138V9.88499L4.58393 10.0721V5.5734ZM7.40107 9.45347L6.54904 9.6406V8.27138C6.70226 8.17224 6.80372 8.00018 6.80372 7.8042C6.80372 7.60838 6.70226 7.43632 6.54904 7.33717V6.00506L7.40107 6.1922V9.45347Z" fill="#1F1F1F"/>
</g>
</svg>
