<svg width="20" height="20" viewBox="0 0 20 20" fill="none" xmlns="http://www.w3.org/2000/svg">
<g opacity="0.2">
<path d="M11.2555 5.02082H8.1175C7.79391 5.02082 7.53156 5.28316 7.53156 5.60676V10.0416H6.8623C6.53871 10.0416 6.27637 10.304 6.27637 10.6276C6.27637 10.9512 6.53871 11.2135 6.8623 11.2135H7.53156V12.5521H6.8623C6.53871 12.5521 6.27637 12.8144 6.27637 13.138C6.27637 13.4616 6.53871 13.7239 6.8623 13.7239H7.53156V15.0208C7.53156 15.3444 7.79391 15.6068 8.1175 15.6068C8.44109 15.6068 8.70344 15.3444 8.70344 15.0208V13.7239H11.2555C11.5791 13.7239 11.8415 13.4616 11.8415 13.138C11.8415 12.8144 11.5791 12.5521 11.2555 12.5521H8.70344V11.2135H11.2555C12.9629 11.2135 14.3519 9.82449 14.3519 8.11715C14.3519 6.36762 12.9268 5.02082 11.2555 5.02082ZM11.2555 10.0416H8.70344V6.1927H11.2555C12.3103 6.1927 13.18 7.04348 13.18 8.11719C13.18 9.17836 12.3167 10.0416 11.2555 10.0416Z" fill="black"/>
<path d="M10 0C4.48598 0 0 4.48598 0 10C0 15.514 4.48598 20 10 20C15.514 20 20 15.514 20 10C20 4.48598 15.514 0 10 0ZM10 18.8281C5.13215 18.8281 1.17188 14.8679 1.17188 10C1.17188 5.13215 5.13215 1.17188 10 1.17188C14.8679 1.17188 18.8281 5.13215 18.8281 10C18.8281 14.8679 14.8679 18.8281 10 18.8281Z" fill="black"/>
</g>
</svg>
