<svg width="18" height="20" viewBox="0 0 18 20" fill="none" xmlns="http://www.w3.org/2000/svg">
<path opacity="0.2" d="M16.2473 2.78351H15.6227C15.5465 1.23566 14.2671 0 12.7052 0H2.92119C1.31043 0 0 1.31424 0 2.92969V3.8092C0 5.42465 1.31043 6.73889 2.92119 6.73889H12.7053C14.2671 6.73889 15.5465 5.50308 15.6227 3.95538H16.2473C16.5694 3.95538 16.8315 4.21814 16.8315 4.54132V7.75818C16.8315 8.06152 16.5952 8.31802 16.2937 8.34229L7.76686 9.0239C7.46318 9.04831 7.22903 9.30252 7.22903 9.608V11.0999H6.07166C5.74896 11.0999 5.48742 11.3622 5.48742 11.6858V17.6672C5.48742 18.9536 6.53083 20 7.81327 20C9.09585 20 10.1393 18.9536 10.1393 17.6672V11.6858C10.1393 11.3622 9.87757 11.0999 9.55503 11.0999H8.3975V10.1491L16.3867 9.51035C17.2913 9.43802 18 8.66837 18 7.75818V4.54132C18 3.57208 17.2137 2.78351 16.2473 2.78351ZM14.4579 3.8092C14.4579 4.77844 13.6718 5.56702 12.7052 5.56702H2.92119C1.95476 5.56702 1.16848 4.77844 1.16848 3.8092V2.92969C1.16848 1.96045 1.95476 1.17188 2.92119 1.17188H12.7053C13.6718 1.17188 14.4581 1.96045 14.4581 2.92969V3.8092H14.4579ZM8.97064 17.6672C8.97064 18.3073 8.45152 18.8281 7.81327 18.8281C7.17502 18.8281 6.65575 18.3073 6.65575 17.6672V12.2717H8.97064V17.6672Z" fill="black"/>
</svg>
