<svg width="12" height="10" viewBox="0 0 12 10" fill="none" xmlns="http://www.w3.org/2000/svg">
<path d="M11.2075 0H0.476625C0.217886 0 0 0.217886 0 0.476625V8.74266C0 9.0014 0.217886 9.21928 0.476625 9.21928H11.2075C11.4662 9.21928 11.6841 9.0014 11.6841 8.74266V0.476625C11.6841 0.204268 11.4798 0 11.2075 0ZM10.7309 5.70588L8.78351 4.15344C8.60648 4.01727 8.34774 4.01727 8.17071 4.16706L5.97824 6.07356L3.07763 2.80528C2.98231 2.70995 2.84613 2.64186 2.70995 2.64186C2.57377 2.64186 2.45121 2.69633 2.35589 2.79166L0.953249 4.31686V0.95325H10.7309V5.70588Z" fill="#FFB960"/>
<path d="M5.84193 1.23926C4.98401 1.23926 4.27588 1.94739 4.27588 2.80531C4.27588 3.66323 4.97039 4.37136 5.84193 4.37136C6.71347 4.37136 7.40798 3.66323 7.40798 2.80531C7.40798 1.93377 6.69986 1.23926 5.84193 1.23926Z" fill="#FFB960"/>
</svg>
