<svg width="12" height="17" viewBox="0 0 12 17" fill="none" xmlns="http://www.w3.org/2000/svg">
<g opacity="0.2">
<path d="M10.9685 8.74147C11.1606 8.67358 11.2891 8.49193 11.2891 8.28812V1.44247C11.2891 0.647093 10.642 0 9.84659 0H2.15341C1.35803 0 0.710938 0.647093 0.710938 1.44247V3.39782C0.710938 3.66336 0.926218 3.87865 1.19176 3.87865C1.45689 3.87865 1.67259 4.09434 1.67259 4.35947C1.67259 4.6246 1.45689 4.84029 1.19176 4.84029C0.926218 4.84029 0.710938 5.05557 0.710938 5.32112V14.9696C0.710938 15.765 1.35803 16.4121 2.15341 16.4121H9.84659C10.642 16.4121 11.2891 15.765 11.2891 14.9696V11.0089C11.2891 10.8051 11.1606 10.6235 10.9685 10.5556C10.585 10.4201 10.3274 10.0555 10.3274 9.64853C10.3274 9.24153 10.585 8.877 10.9685 8.74147ZM4.55753 15.4505H3.59588V6.28276C3.59588 6.01722 3.3806 5.80194 3.11506 5.80194C2.84951 5.80194 2.63423 6.01722 2.63423 6.28276V15.4505H2.15341C1.88828 15.4505 1.67259 15.2348 1.67259 14.9696V5.71956C2.2323 5.52111 2.63423 4.98637 2.63423 4.35947C2.63423 3.73257 2.2323 3.19783 1.67259 2.99938V1.44247C1.67259 1.17735 1.88828 0.961648 2.15341 0.961648H4.55753V15.4505ZM10.3274 7.98257C9.74094 8.32168 9.36577 8.95422 9.36577 9.64853C9.36577 10.3428 9.74094 10.9754 10.3274 11.3145V14.9696C10.3274 15.2348 10.1117 15.4505 9.84659 15.4505H9.36577V12.0527C9.36577 11.7871 9.15049 11.5718 8.88494 11.5718C8.6194 11.5718 8.40412 11.7871 8.40412 12.0527V15.4505H5.51918V0.961648H6.48082V12.0527C6.48082 12.3182 6.6961 12.5335 6.96165 12.5335C7.22719 12.5335 7.44247 12.3182 7.44247 12.0527V0.961648H8.40412V7.24441C8.40412 7.50996 8.6194 7.72524 8.88494 7.72524C9.15049 7.72524 9.36577 7.50996 9.36577 7.24441V0.961648H9.84659C10.1117 0.961648 10.3274 1.17735 10.3274 1.44247V7.98257Z" fill="black"/>
</g>
</svg>
