<svg width="40" height="37" viewBox="0 0 40 37" fill="none" xmlns="http://www.w3.org/2000/svg">
<g opacity="0.2">
<path d="M5.57974 28.7468V28.6472L5.48009 28.6468C2.51172 28.6363 0.1 26.2183 0.1 23.2476V5.49927C0.1 2.52179 2.52226 0.1 5.49927 0.1H34.5007C37.4777 0.1 39.9 2.52179 39.9 5.49927V23.2476C39.9 26.2246 37.4777 28.6468 34.5007 28.6468H17.0542H17.0228L16.9971 28.6647L5.57974 36.6094V28.7468ZM5.49927 26.5031H7.72349V32.3147V32.5061L7.8806 32.3968L16.3502 26.5031H34.5007C36.296 26.5031 37.7562 25.0425 37.7562 23.2476V5.49927C37.7562 3.7038 36.2959 2.24375 34.5007 2.24375H5.49927C3.70405 2.24375 2.24375 3.7038 2.24375 5.49927V23.2476C2.24375 25.0425 3.70404 26.5031 5.49927 26.5031Z" fill="black" stroke="white" stroke-width="0.2"/>
<path d="M10.8058 8.38174H29.1942V10.5255H10.8058V8.38174Z" fill="black" stroke="white" stroke-width="0.2"/>
<path d="M10.8058 13.3813H29.1942V15.525H10.8058V13.3813Z" fill="black" stroke="white" stroke-width="0.2"/>
<path d="M10.8058 18.3813H29.1942V20.525H10.8058V18.3813Z" fill="black" stroke="white" stroke-width="0.2"/>
</g>
</svg>
