<svg width="40" height="40" viewBox="0 0 40 40" fill="none" xmlns="http://www.w3.org/2000/svg">
<path d="M15.1513 14.3671C15.474 14.3114 15.6904 14.0048 15.6348 13.6821C15.319 11.8524 16.7304 10.1858 18.5753 10.1858C20.4147 10.1858 21.8286 11.8445 21.5171 13.6748C21.4623 13.9976 21.6794 14.3038 22.0023 14.3588C22.3251 14.4139 22.6313 14.1965 22.6863 13.8737C23.1195 11.3262 21.1534 9 18.5753 9C16.0002 9 14.0247 11.3259 14.4663 13.8837C14.522 14.2073 14.8299 14.4227 15.1513 14.3671Z" fill="#AE8F67"/>
<path d="M24.8842 18.5119C24.4399 17.6397 23.3814 17.2915 22.5126 17.7213C22.1087 16.9285 21.1849 16.5539 20.3453 16.8454V13.2144C20.3453 12.2466 19.5676 11.438 18.6114 11.4117C17.6095 11.3833 16.7793 12.1858 16.7793 13.1898V22.3237L16.0828 21.5943C15.4142 20.8944 14.2948 20.8452 13.5872 21.4849C12.8405 22.1597 12.8033 23.309 13.4908 24.0312L17.4938 28.3009C18.052 28.8961 18.8404 29.2376 19.6565 29.2376H24.4845C26.1191 29.2376 27.449 27.9078 27.449 26.2731V20.107C27.449 18.7935 26.0635 17.9284 24.8842 18.5119ZM26.2632 26.2731C26.2632 27.2539 25.4652 28.0518 24.4845 28.0518H19.6565C19.1668 28.0518 18.6938 27.847 18.3589 27.4897C18.3446 27.4745 14.3647 23.2296 14.3504 23.2145C14.1211 22.9742 14.1321 22.5908 14.3822 22.3645C14.618 22.1516 14.9961 22.1735 15.2251 22.4133L16.9432 24.2125C17.3116 24.5985 17.9649 24.3366 17.9649 23.8032V13.1898C17.9649 12.8566 18.2413 12.5877 18.5791 12.5971C18.8992 12.6059 19.1595 12.8827 19.1595 13.2144C19.1595 19.7384 19.1484 16.7812 19.1484 20.3046C19.1484 20.633 19.4158 20.9006 19.7468 20.8972C20.0774 20.9006 20.3453 20.6332 20.3453 20.3046V18.4132C20.3981 18.1399 20.6387 17.933 20.9271 17.933C21.254 17.933 21.52 18.1991 21.52 18.5259V20.3046C21.52 20.6321 21.7854 20.8975 22.1129 20.8975C22.4404 20.8975 22.7058 20.6321 22.7058 20.3046V19.3165C22.7058 18.9896 22.9718 18.7236 23.2987 18.7236C23.6256 18.7236 23.8916 18.9896 23.8916 19.3165V20.3046C23.8916 20.6321 24.157 20.8975 24.4845 20.8975C24.812 20.8975 25.0774 20.6321 25.0774 20.3046V20.107C25.0774 19.7801 25.3434 19.5141 25.6703 19.5141C25.9972 19.5141 26.2632 19.7801 26.2632 20.107V26.2731Z" fill="#AE8F67"/>
<circle opacity="0.6" cx="20" cy="20" r="20" fill="#FFB960"/>
</svg>
