<svg width="11" height="11" viewBox="0 0 11 11" fill="none" xmlns="http://www.w3.org/2000/svg">
<path d="M10.2351 5.93886C10.2003 5.85542 10.1191 5.80098 10.029 5.80098H7.58408V0.223122C7.58408 0.0999624 7.48412 0 7.36096 0H3.79112C3.66796 0 3.568 0.0999624 3.568 0.223122V5.801H1.11374C1.02361 5.801 0.942393 5.85544 0.907587 5.93844C0.87322 6.02188 0.891962 6.11783 0.955779 6.18164L5.40692 10.6475C5.44886 10.6894 5.50554 10.7131 5.56488 10.7131C5.62422 10.7131 5.68091 10.6894 5.72285 10.6479L10.1869 6.18208C10.2508 6.11824 10.2699 6.02232 10.2351 5.93886Z" fill="#FFB960"/>
</svg>
