<svg width="336" height="336" viewBox="0 0 336 336" fill="none" xmlns="http://www.w3.org/2000/svg">
<path fill-rule="evenodd" clip-rule="evenodd" d="M168 3.47826C77.1372 3.47826 3.47826 77.1372 3.47826 168C3.47826 258.863 77.1372 332.522 168 332.522C258.863 332.522 332.522 258.863 332.522 168C332.522 77.1372 258.863 3.47826 168 3.47826ZM0 168C0 75.2162 75.2162 0 168 0C260.784 0 336 75.2162 336 168C336 260.784 260.784 336 168 336C75.2162 336 0 260.784 0 168ZM168.174 74.087C116.211 74.087 74.087 116.211 74.087 168.174C74.087 220.137 116.211 262.261 168.174 262.261C220.137 262.261 262.261 220.137 262.261 168.174C262.261 116.211 220.137 74.087 168.174 74.087ZM70.6087 168.174C70.6087 114.29 114.29 70.6087 168.174 70.6087C222.058 70.6087 265.739 114.29 265.739 168.174C265.739 222.058 222.058 265.739 168.174 265.739C114.29 265.739 70.6087 222.058 70.6087 168.174ZM207.155 165.563H210.087V201.043H127.689L126.609 198.576L144.046 178.677C154.846 166.437 162.715 155.998 167.653 147.359C172.59 138.721 175.059 130.236 175.059 121.906C175.061 114.707 173.209 108.845 169.504 104.32C165.8 99.7952 160.81 97.5328 154.537 97.5328C151.006 97.5016 147.5 98.1294 144.199 99.384L142.81 100.001L130.466 124.684H127.534V97.5339C137.408 93.7287 148.724 91.8261 161.48 91.8261C174.03 91.8256 183.751 94.1653 190.643 98.8452C197.535 103.525 200.981 110.287 200.981 119.131C200.981 124.479 199.85 129.261 197.588 133.477C197.382 133.889 196.971 134.738 196.354 136.022C195.944 136.923 195.48 137.799 194.965 138.645C194.655 139.107 194.218 139.801 193.653 140.727C193.095 141.641 192.476 142.517 191.802 143.35C191.05 144.264 190.251 145.139 189.41 145.972L184.318 151.526C183.289 152.761 181.232 154.664 178.146 157.233L172.283 162.324C170.945 163.456 168.734 165.153 165.648 167.414L159.784 172.042L151.915 178.521H202.526L207.155 165.563ZM129.391 216.567H131.993V234.086H129.391V234.719H141.722V234.086H137.542V216.567H140.808L144.357 221.985H144.989V215.934H129.391V216.567ZM162.255 232.415C163.812 230.691 164.591 228.223 164.591 225.01C164.591 221.938 163.865 219.61 162.413 218.027C160.961 216.445 158.842 215.653 156.055 215.653C153.104 215.653 150.855 216.509 149.31 218.221C147.764 219.934 146.991 222.408 146.991 225.644C146.991 228.717 147.717 231.045 149.169 232.627C150.621 234.209 152.729 235.001 155.492 235.001C158.443 235.001 160.698 234.139 162.255 232.415ZM152.823 224.799C152.823 219.311 153.795 216.567 155.738 216.567C157.729 216.567 158.724 219.663 158.725 225.854C158.725 231.342 157.764 234.086 155.844 234.086C153.829 234.086 152.822 230.99 152.823 224.799ZM182.929 216.567H185.494V215.934H168.947V216.567H172.495C172.307 222.454 171.616 226.816 170.422 229.654C169.438 231.905 168.537 233.382 167.717 234.086H164.555V240.348H165.223L168.736 234.719H182.858L186.371 240.348H187.003V234.086H182.928V216.567H182.929ZM171.898 229.618C172.788 226.758 173.326 222.407 173.514 216.567H177.38V234.086H169.896C170.505 233.406 171.172 231.917 171.898 229.618ZM205.553 232.063C205.295 232.546 205.002 232.786 204.674 232.785C204.252 232.785 204.042 232.35 204.042 231.482V223.321C204.042 220.671 203.456 218.731 202.285 217.499C201.115 216.268 199.37 215.652 197.051 215.652C194.896 215.652 193.116 216.109 191.711 217.024C190.306 217.939 189.604 219.053 189.603 220.366C189.603 221.633 190.271 222.266 191.606 222.266C191.853 222.259 192.099 222.235 192.343 222.196L193.889 217.024L194.065 216.919C194.5 216.743 194.966 216.659 195.435 216.672C196.512 216.672 197.291 217.235 197.771 218.361C198.252 219.487 198.492 221.21 198.491 223.532V224.762L195.822 225.044C193.62 225.255 191.863 225.871 190.552 226.891C189.933 227.338 189.431 227.928 189.089 228.611C188.747 229.294 188.573 230.049 188.585 230.813C188.585 232.127 188.994 233.153 189.813 233.892C190.632 234.63 191.733 234.999 193.115 234.999C195.644 234.999 197.436 233.874 198.49 231.622V231.869C198.598 232.746 199.023 233.553 199.684 234.138C200.437 234.746 201.389 235.053 202.354 234.999C203.807 234.999 204.896 234.565 205.622 233.697C206.32 232.861 206.781 231.853 206.957 230.777L206.043 230.601C205.967 231.114 205.801 231.609 205.553 232.063ZM194.662 231.958C194.335 231.31 194.178 230.59 194.205 229.865C194.205 227.543 195.166 226.171 197.086 225.749L198.491 225.502V228.035C198.541 229.222 198.287 230.403 197.753 231.465C197.262 232.344 196.63 232.784 195.857 232.784C195.6 232.774 195.351 232.691 195.139 232.545C194.928 232.399 194.762 232.195 194.662 231.958ZM64.3478 167.652C64.3478 110.599 110.599 64.3478 167.652 64.3478C224.706 64.3478 270.957 110.599 270.957 167.652C270.957 224.706 224.706 270.957 167.652 270.957C110.599 270.957 64.3478 224.706 64.3478 167.652ZM167.652 12.1739C81.7839 12.1739 12.1739 81.7839 12.1739 167.652C12.1739 253.52 81.7839 323.13 167.652 323.13C253.52 323.13 323.13 253.52 323.13 167.652C323.13 81.7839 253.52 12.1739 167.652 12.1739ZM94.3224 260.671L92.1739 259.137L92.4445 258.758L102.785 266.136L100.307 269.61L99.9488 269.353L101.104 265.506L95.8386 261.753L85.8643 275.736L88.4125 277.555L88.1422 277.934L81.9294 273.503L82.1996 273.123L84.3478 274.654L94.3224 260.671ZM111.375 272.463L111.571 271.054L113.324 271.948L110.869 290.497L112.552 291.353L112.34 291.767L106.555 288.821L106.766 288.407L109.094 289.593L109.755 284.703L103.255 281.391L100.294 284.296L102.374 286.198L102.174 286.588L97.1033 284.003L97.3029 283.614L99.6605 283.944L111.375 272.463ZM103.768 280.897L109.853 283.997L111.322 273.423L103.768 280.897ZM128.063 278.776L125.54 278.003L125.674 277.558L132.082 279.517C134.275 280.189 135.849 281.117 136.804 282.299C137.758 283.485 137.993 284.87 137.509 286.452C137.299 287.205 136.929 287.905 136.425 288.502C135.92 289.099 135.292 289.581 134.585 289.913C133.137 290.61 131.475 290.714 129.952 290.202L129.01 289.833L129.131 289.437C129.392 289.552 129.67 289.627 129.955 289.659C131.075 289.895 132.242 289.736 133.259 289.21C134.397 288.674 135.2 287.638 135.669 286.104C136.601 283.055 135.295 280.988 131.749 279.903L129.844 279.318L124.822 295.746L127.692 296.623L127.556 297.068L120.382 294.877L120.518 294.431L123.041 295.203L128.063 278.776ZM150.029 284.943L149.751 283.548L151.7 283.812L155.491 302.136L157.362 302.393L157.299 302.856L150.865 301.976L150.928 301.517L153.516 301.868L152.531 297.033L145.303 296.049L143.464 299.767L146.054 300.877L145.994 301.311L140.355 300.543L140.415 300.108L142.75 299.642L150.029 284.943ZM145.627 295.412L152.394 296.337L150.298 285.868L145.627 295.412ZM176.003 285.089L175.98 284.623L182.905 284.278L182.928 284.744L180.292 284.877L181.147 302.031L183.782 301.899L183.805 302.365L176.881 302.71L176.858 302.243L179.312 302.122L178.886 293.569L169.972 294.014L170.399 302.567L172.853 302.445L172.876 302.908L165.926 303.256L165.903 302.79L168.538 302.657L167.684 285.503L165.048 285.635L165.025 285.169L171.976 284.824L171.999 285.287L169.544 285.409L169.946 293.471L178.859 293.026L178.458 284.967L176.003 285.089ZM190.178 287.343L189.75 287.443L188.769 283.29L202.668 280.014L203.647 284.167L203.219 284.268L201.113 280.859L196.73 281.892L200.674 298.609L203.998 297.826L204.104 298.282L195.644 300.275L195.537 299.819L198.861 299.037L194.92 282.32L190.539 283.35L190.178 287.343ZM227.753 289.023L221.228 274.202L219.863 293.002L215.649 294.859L215.461 294.431L217.876 293.37L210.955 277.649L208.539 278.71L208.352 278.285L214.721 275.482L214.908 275.906L212.659 276.897L219.184 291.718L220.522 272.929L224.739 271.071L224.927 271.499L222.512 272.56L229.434 288.282L231.849 287.221L232.036 287.645L225.691 290.438L225.503 290.014L227.753 289.023ZM234.136 266.612C234.656 265.288 235.781 264.028 237.511 262.831L243.489 258.696L243.754 259.078L241.584 260.577L251.358 274.703L253.528 273.203L253.793 273.586L247.751 277.767L247.487 277.384L249.826 275.763L240.052 261.638L237.946 263.096C236.67 263.979 235.864 264.966 235.529 266.056C235.362 266.581 235.322 267.139 235.414 267.683C235.505 268.227 235.726 268.741 236.056 269.183C236.428 269.735 236.948 270.171 237.556 270.442C238.148 270.711 238.794 270.835 239.443 270.803C239.794 270.786 240.143 270.745 240.488 270.678C240.83 270.618 241.168 270.537 241.499 270.435L241.576 270.411C241.639 270.392 241.7 270.373 241.76 270.354L241.774 270.35L241.792 270.344L241.805 270.34L241.806 270.34C241.991 270.283 242.165 270.23 242.327 270.177C242.577 270.101 242.779 270.035 242.93 269.979C243.015 269.953 243.099 269.922 243.18 269.885L242.948 278.508C242.989 280.327 242.343 281.697 241.01 282.619C240.608 282.911 240.171 283.149 239.709 283.329L239.509 283.405L239.244 283.023C239.49 282.953 239.719 282.836 239.92 282.678C240.856 282.031 241.299 280.929 241.248 279.37L241.515 271.983L242.548 270.703C241.662 271.178 240.721 271.543 239.747 271.791C237.462 272.427 235.729 271.937 234.548 270.324C234.161 269.795 233.92 269.174 233.847 268.523C233.775 267.872 233.875 267.213 234.136 266.612ZM82.3813 58.8456L84.5872 57.2845L94.7479 71.6449L92.5419 73.2059L92.8174 73.5951L99.2 69.0807L98.9246 68.6911L96.3079 70.543L86.1461 56.1826L91.5527 52.3565L94.8839 54.7704L95.2515 54.5103L92.7263 50.9419L82.1075 58.455L82.3813 58.8456ZM102.936 45.161L103.988 46.1697L106.489 62.7805L104.8 64.5395L105.006 64.9402L110.192 62.2814L109.987 61.8807L107.161 62.4657L106.527 58.2657L113.175 54.857L116.835 58.3405L114.454 59.561L114.671 59.9854L120.589 56.9524L120.372 56.5277L118.65 57.4101L104.727 44.2435L102.936 45.161ZM112.649 54.3537L106.424 57.544L104.753 46.7899L112.649 54.3537ZM119.788 37.9826L122.369 37.1826L127.58 53.985L124.999 54.785L125.141 55.2407L132.48 52.9645L132.338 52.5089L129.403 53.4195L124.191 36.6174L126.139 36.0129C129.766 34.888 132.064 35.8859 133.032 39.0066C133.519 40.5755 133.435 41.9146 132.78 43.0237C132.223 44.0552 131.327 44.8625 130.243 45.3085C129.983 45.444 129.704 45.5399 129.416 45.593L129.542 45.9979L130.55 45.7677C132.135 45.3241 133.483 44.2787 134.307 42.8546C134.714 42.1652 134.968 41.3961 135.052 40.5996C135.135 39.8031 135.045 38.9981 134.789 38.2393C134.287 36.6198 133.291 35.5835 131.8 35.1304C130.309 34.6773 128.443 34.7987 126.2 35.4946L119.646 37.5277L119.788 37.9826ZM146.14 30.8362L146.81 32.1311L143.794 48.6567L141.627 49.7736L141.691 50.2191L147.46 49.3844L147.396 48.9388L144.532 48.5767L145.293 44.3979L152.687 43.3273L155.022 47.808L152.374 48.1906L152.443 48.6626L159.025 47.7099L158.955 47.2379L157.042 47.5162L148.135 30.5485L146.14 30.8362ZM152.352 42.6783L145.43 43.6803L147.333 32.9649L152.352 42.6783ZM175.891 29.3788L175.871 29.8553L178.385 29.9621L178.035 38.2209L168.904 37.8344L169.252 29.5757L171.767 29.6824L171.787 29.2059L164.668 28.9044L164.647 29.3809L167.348 29.4953L166.601 47.0717L163.901 46.9569L163.881 47.4334L171.001 47.7356L171.022 47.2591L168.507 47.1523L168.879 38.391L178.011 38.7788L177.639 47.5402L175.125 47.4334L175.104 47.9099L182.2 48.2111L182.22 47.7346L179.52 47.6202L180.266 30.0438L182.966 30.1586L182.986 29.6821L175.891 29.3788ZM190.778 35.28L191.217 35.3798L193.348 31.871L197.842 32.8946L193.937 50.0487L190.528 49.272L190.424 49.737L199.103 51.7137L199.208 51.2487L195.799 50.4724L199.706 33.3197L204.2 34.3433L204.601 38.4289L205.041 38.529L206.012 34.2668L191.751 31.0188L190.778 35.28ZM226.54 43.6626L219.977 58.8939L217.665 57.8981L217.477 58.336L224 61.1478L224.189 60.7099L221.707 59.6404L228.668 43.4845L231.15 44.5537L231.339 44.1158L227.008 42.2497L211.982 54.3541L218.545 39.1228L220.856 40.1186L221.045 39.6807L214.5 36.8605L214.311 37.2984L216.793 38.368L209.831 54.5238L207.35 53.4546L207.161 53.8925L211.492 55.7586L226.54 43.6626ZM247.21 53.9736C245.43 52.759 243.811 52.1462 242.354 52.1353C241.684 52.1061 241.018 52.2529 240.422 52.561C239.826 52.8691 239.322 53.3278 238.958 53.8915C237.847 55.6139 238.016 57.4504 239.464 59.4011C240.058 60.2426 240.753 61.0079 241.534 61.6797L239.93 61.1624L232.768 63.6198C231.296 64.2411 230.079 64.223 229.116 63.5656C228.893 63.4301 228.697 63.253 228.541 63.0438L228.272 63.4376L228.417 63.6007C228.759 63.9768 229.148 64.3071 229.575 64.5833C230.946 65.519 232.493 65.6337 234.216 64.9277L242.544 61.983C242.48 61.9184 242.419 61.8502 242.362 61.7788C242.256 61.6532 242.119 61.4845 241.953 61.2748C241.871 61.1715 241.785 61.0627 241.694 60.9486L241.591 60.8182L241.402 60.5791C241.183 60.2989 240.982 60.006 240.798 59.7019C240.608 59.3958 240.44 59.0772 240.294 58.7482C240.026 58.1395 239.906 57.4757 239.946 56.8118C239.982 56.1313 240.209 55.4747 240.599 54.9158C240.899 54.4377 241.31 54.0384 241.796 53.7509C242.282 53.4635 242.83 53.2963 243.394 53.2633C244.561 53.1826 245.801 53.5904 247.114 54.4866L249.28 55.9652L239.364 70.496L236.957 68.8532L236.688 69.247L242.903 73.4883L243.172 73.0946L240.939 71.5711L250.856 57.0403L253.088 58.5638L253.357 58.1697L247.21 53.9736ZM41.562 162.695L38.087 152L34.6119 162.695H23.3663L32.4641 169.305L28.9891 180L38.087 173.39L47.1848 180L43.7098 169.305L52.8077 162.695H41.562ZM296.87 152L300.345 162.695H311.59L302.492 169.305L305.967 180L296.87 173.39L287.772 180L291.247 169.305L282.149 162.695H293.394L296.87 152ZM263.656 76.8048C278.724 92.7279 289.594 112.149 295.289 133.319L294.42 133.552C288.765 112.526 277.968 93.2377 263.002 77.423L263.656 76.8048ZM263.257 258.919C278.394 243.062 289.35 223.689 295.137 202.544L294.27 202.307C288.522 223.308 277.641 242.549 262.606 258.298L263.257 258.919ZM68.3524 254.885C53.8841 238.415 43.7395 218.605 38.8323 197.239L39.7089 197.038C44.5827 218.258 54.6583 237.933 69.0282 254.291L68.3524 254.885ZM72.4384 75.9773C57.2333 91.7694 46.1949 111.095 40.3173 132.215L41.1838 132.456C47.0214 111.48 57.9847 92.2858 73.0863 76.6011L72.4384 75.9773Z" fill="#F1D4AE"/>
</svg>
