<svg width="281" height="126" viewBox="0 0 281 126" fill="none" xmlns="http://www.w3.org/2000/svg">
<path d="M25.6744 30.825L25.8494 30.425L26.2744 30.575C26.2577 30.6916 26.1161 30.9916 25.8494 31.475C25.2661 32.5916 24.4994 33.15 23.5494 33.15C22.9827 33.15 22.5744 32.925 22.3244 32.475C22.0744 32.0083 22.0244 31.3333 22.1744 30.45L22.7744 27.05C22.0744 29 21.2411 30.5 20.2744 31.55C19.3244 32.6 18.3161 33.125 17.2494 33.125C16.3327 33.125 15.6911 32.75 15.3244 32C14.9744 31.2333 14.9244 30.1583 15.1744 28.775L16.6744 20.275H14.3744L14.4244 19.875C16.1411 19.875 17.3911 19.825 18.1744 19.725L18.3744 19.85L16.7994 28.825C16.6494 29.7916 16.6827 30.5583 16.8994 31.125C17.1327 31.6916 17.5411 31.975 18.1244 31.975C19.2077 31.975 20.2661 31.0333 21.2994 29.15C22.3327 27.2166 23.1494 24.5583 23.7494 21.175L23.9744 19.875H25.6244L23.6994 30.7C23.5161 31.5833 23.7161 32.025 24.2994 32.025C24.5661 32.025 24.8244 31.9 25.0744 31.65C25.3411 31.4 25.5411 31.125 25.6744 30.825ZM45.5515 30.825L45.7265 30.425L46.1515 30.575C46.1182 30.7416 45.9849 31.0416 45.7515 31.475C45.1682 32.5916 44.3849 33.15 43.4015 33.15C42.7849 33.15 42.3432 32.95 42.0765 32.55C41.8099 32.1333 41.7515 31.5166 41.9015 30.7L43.1515 24.05C43.3349 23.1 43.3099 22.3416 43.0765 21.775C42.8432 21.1916 42.4265 20.9 41.8265 20.9C40.7265 20.9 39.6515 21.925 38.6015 23.975C37.5682 26.025 36.7765 28.525 36.2265 31.475L35.9515 33H34.3015L36.5515 20.275H34.2015L34.2765 19.875C35.6765 19.875 36.8765 19.825 37.8765 19.725L38.1015 19.875C37.7015 22.5583 37.3765 24.625 37.1265 26.075C37.8265 24.0583 38.6599 22.5 39.6265 21.4C40.6099 20.3 41.6349 19.75 42.7015 19.75C43.6182 19.75 44.2599 20.1416 44.6265 20.925C45.0099 21.6916 45.0682 22.75 44.8015 24.1L43.5765 30.65C43.4099 31.5666 43.6182 32.025 44.2015 32.025C44.4682 32.025 44.7265 31.9 44.9765 31.65C45.2432 31.4 45.4349 31.125 45.5515 30.825ZM51.9558 33.15C50.7725 33.15 49.8475 32.7416 49.1808 31.925C48.5142 31.1083 48.1808 29.9416 48.1808 28.425C48.1808 26.175 48.8392 24.1666 50.1558 22.4C51.4892 20.6166 53.0725 19.725 54.9058 19.725C56.0725 19.725 56.9892 20.1333 57.6558 20.95C58.3392 21.7666 58.6808 22.9333 58.6808 24.45C58.7142 25.8666 58.4225 27.2583 57.8058 28.625C57.2058 29.975 56.3725 31.075 55.3058 31.925C54.2392 32.775 53.1225 33.1833 51.9558 33.15ZM52.2808 32.625C53.0975 32.625 53.8725 32.1583 54.6058 31.225C55.3392 30.325 55.9225 29.1916 56.3558 27.825C56.7725 26.5083 56.9808 25.2 56.9808 23.9C56.9808 22.75 56.7642 21.8583 56.3308 21.225C55.9142 20.5916 55.3308 20.275 54.5808 20.275C53.7475 20.275 52.9558 20.7416 52.2058 21.675C51.4892 22.5916 50.9142 23.725 50.4808 25.075C50.0808 26.3916 49.8808 27.6916 49.8808 28.975C49.8808 30.1416 50.0892 31.0416 50.5058 31.675C50.9392 32.3083 51.5308 32.625 52.2808 32.625ZM68.7523 19.875H71.6773L69.8023 30.6C69.619 31.55 69.8023 32.025 70.3523 32.025C70.619 32.025 70.8773 31.9 71.1273 31.65C71.3773 31.4 71.569 31.125 71.7023 30.825L71.8773 30.425L72.3023 30.575C72.2857 30.6916 72.144 30.9916 71.8773 31.475C71.2607 32.5916 70.4773 33.15 69.5273 33.15C68.9773 33.15 68.569 32.95 68.3023 32.55C68.0357 32.1333 67.9773 31.5 68.1273 30.65L69.9523 20.275H68.6773C67.7607 20.275 67.0023 20.7166 66.4023 21.6C65.7857 22.5 65.319 23.575 65.0023 24.825C64.9523 25.0416 64.8523 25.45 64.7023 26.05C64.5523 26.65 64.444 27.0916 64.3773 27.375C64.3107 27.6416 64.2023 28.05 64.0523 28.6C63.9023 29.1333 63.769 29.5416 63.6523 29.825C63.5357 30.1083 63.3857 30.4583 63.2023 30.875C63.0357 31.2916 62.8607 31.6166 62.6773 31.85C62.5107 32.0666 62.3107 32.2916 62.0773 32.525C61.8607 32.7583 61.619 32.9166 61.3523 33C61.1023 33.1 60.8273 33.15 60.5273 33.15C60.0607 33.15 59.694 33.0416 59.4273 32.825C59.144 32.5916 59.0023 32.2916 59.0023 31.925C59.0023 31.675 59.069 31.45 59.2023 31.25C59.319 31.05 59.4523 30.925 59.6023 30.875L59.7773 30.8V31.125C59.794 31.275 59.9023 31.45 60.1023 31.65C60.319 31.8333 60.5857 31.925 60.9023 31.925C61.4023 31.925 61.8357 31.7083 62.2023 31.275C62.569 30.825 62.869 30.25 63.1023 29.55C63.3357 28.8333 63.5523 28.05 63.7523 27.2C63.9523 26.3333 64.1773 25.475 64.4273 24.625C64.694 23.7583 64.994 22.975 65.3273 22.275C65.6773 21.5583 66.144 20.9833 66.7273 20.55C67.3107 20.1 67.9857 19.875 68.7523 19.875ZM84.5777 20.8C84.5777 22.3 83.7944 24.4583 82.2277 27.275C80.661 30.1416 78.9527 32.275 77.1027 33.675C74.6527 36.5583 71.936 38 68.9527 38C68.086 38 67.4194 37.9 66.9527 37.7C66.486 37.5 66.2527 37.225 66.2527 36.875C66.2527 36.6916 66.311 36.5166 66.4277 36.35C66.5444 36.2 66.6777 36.1 66.8277 36.05L67.0027 35.975C67.5194 36.625 68.3694 36.95 69.5527 36.95C71.8694 36.95 74.136 35.8666 76.3527 33.7L75.5777 33.575C76.0444 30.5583 76.2777 27.8083 76.2777 25.325C76.2777 23.125 76.1444 21.5833 75.8777 20.7L75.7277 20.275H74.0277L74.0777 19.875C75.1944 19.875 76.2027 19.825 77.1027 19.725L77.3027 19.875C77.7194 20.875 77.9277 22.6416 77.9277 25.175C77.9277 27.4916 77.7027 30.0916 77.2527 32.975C78.8027 31.525 80.136 29.625 81.2527 27.275C82.4027 24.875 82.9777 22.8666 82.9777 21.25C82.9777 20.7833 82.8694 20.3833 82.6527 20.05C82.8694 19.8333 83.2027 19.725 83.6527 19.725C84.2694 19.725 84.5777 20.0833 84.5777 20.8ZM96.8594 30.825L97.0344 30.425L97.4594 30.575C97.4427 30.6916 97.301 30.9916 97.0344 31.475C96.451 32.5916 95.676 33.15 94.7094 33.15C93.476 33.15 93.0094 32.3166 93.3094 30.65L94.0594 26.35C92.8427 26.6166 91.7594 26.75 90.8094 26.75C89.476 26.75 88.5177 26.475 87.9344 25.925C87.351 25.375 87.1594 24.5166 87.3594 23.35L87.9094 20.275H85.5594L85.6094 19.875C87.1427 19.875 88.4094 19.825 89.4094 19.725L89.6594 19.875L89.0094 23.5C88.8594 24.4166 88.976 25.1 89.3594 25.55C89.7594 26 90.501 26.225 91.5844 26.225C92.351 26.225 93.201 26.1166 94.1344 25.9L95.1844 19.875H96.8344L94.9344 30.6C94.7844 31.55 94.9677 32.025 95.4844 32.025C95.751 32.025 96.0094 31.9 96.2594 31.65C96.526 31.4 96.726 31.125 96.8594 30.825ZM111.099 30.825L111.274 30.425L111.699 30.575C111.683 30.6916 111.541 30.9916 111.274 31.475C110.691 32.5916 109.924 33.15 108.974 33.15C108.408 33.15 107.999 32.925 107.749 32.475C107.499 32.0083 107.449 31.3333 107.599 30.45L108.199 27.05C107.499 29 106.666 30.5 105.699 31.55C104.749 32.6 103.741 33.125 102.674 33.125C101.758 33.125 101.116 32.75 100.749 32C100.399 31.2333 100.349 30.1583 100.599 28.775L102.099 20.275H99.7992L99.8492 19.875C101.566 19.875 102.816 19.825 103.599 19.725L103.799 19.85L102.224 28.825C102.074 29.7916 102.108 30.5583 102.324 31.125C102.558 31.6916 102.966 31.975 103.549 31.975C104.633 31.975 105.691 31.0333 106.724 29.15C107.758 27.2166 108.574 24.5583 109.174 21.175L109.399 19.875H111.049L109.124 30.7C108.941 31.5833 109.141 32.025 109.724 32.025C109.991 32.025 110.249 31.9 110.499 31.65C110.766 31.4 110.966 31.125 111.099 30.825ZM132.806 30.825L132.981 30.425L133.406 30.575C133.373 30.7416 133.24 31.0416 133.006 31.475C132.423 32.5916 131.631 33.15 130.631 33.15C130.048 33.15 129.615 32.9416 129.331 32.525C129.065 32.1083 129.006 31.5 129.156 30.7L130.406 24.05C130.573 23.0833 130.54 22.3166 130.306 21.75C130.073 21.1833 129.665 20.9 129.081 20.9C127.965 20.9 126.873 21.9583 125.806 24.075C124.756 26.125 123.965 28.675 123.431 31.725L123.206 33H121.556L123.131 24.05C123.298 23.0833 123.265 22.3166 123.031 21.75C122.798 21.1833 122.39 20.9 121.806 20.9C120.74 20.9 119.69 21.825 118.656 23.675C117.64 25.475 116.831 28.075 116.231 31.475L115.956 33H114.306L116.556 20.275H114.206L114.281 19.875C115.698 19.875 116.89 19.825 117.856 19.725L118.081 19.875C117.698 22.6083 117.398 24.5916 117.181 25.825C117.865 23.875 118.681 22.375 119.631 21.325C120.598 20.275 121.615 19.75 122.681 19.75C123.598 19.75 124.231 20.1333 124.581 20.9C124.948 21.65 125.006 22.7166 124.756 24.1L124.481 25.7C125.165 23.8 125.981 22.3333 126.931 21.3C127.881 20.2666 128.89 19.75 129.956 19.75C130.856 19.75 131.498 20.1333 131.881 20.9C132.265 21.65 132.323 22.7166 132.056 24.1L130.831 30.65C130.665 31.5666 130.873 32.025 131.456 32.025C131.723 32.025 131.981 31.9 132.231 31.65C132.498 31.4 132.69 31.125 132.806 30.825ZM145.587 22.2C145.587 22.85 145.37 23.425 144.937 23.925C144.52 24.425 143.978 24.8083 143.312 25.075C142.612 25.325 141.887 25.5083 141.137 25.625C139.92 25.7916 138.687 25.8583 137.437 25.825C137.287 26.525 137.212 27.2416 137.212 27.975C137.212 30.725 138.17 32.1 140.087 32.1C141.47 32.1 142.687 31.2666 143.737 29.6L144.162 29.825C142.862 32.0416 141.245 33.15 139.312 33.15C138.078 33.15 137.12 32.7416 136.437 31.925C135.753 31.1083 135.412 29.95 135.412 28.45C135.378 27 135.687 25.6 136.337 24.25C137.003 22.8833 137.903 21.7833 139.037 20.95C140.17 20.1 141.353 19.6916 142.587 19.725C143.52 19.725 144.253 19.95 144.787 20.4C145.32 20.85 145.587 21.45 145.587 22.2ZM142.287 20.25C141.237 20.25 140.27 20.7416 139.387 21.725C138.52 22.6916 137.895 23.9333 137.512 25.45C138.595 25.4833 139.603 25.4 140.537 25.2C142.82 24.7666 143.995 23.6916 144.062 21.975C144.062 20.825 143.47 20.25 142.287 20.25ZM157.237 13.35C159.004 13.35 160.395 14.1333 161.412 15.7C162.429 17.25 162.937 19.4166 162.937 22.2C162.937 24 162.729 25.6333 162.312 27.1C161.895 28.55 161.329 29.7083 160.612 30.575C159.179 32.2916 157.612 33.15 155.912 33.15C154.762 33.15 153.854 32.7416 153.187 31.925C152.52 31.0916 152.187 29.9166 152.187 28.4C152.187 26.1666 152.837 24.1666 154.137 22.4C155.47 20.6166 157.037 19.725 158.837 19.725C160.62 19.725 161.745 20.675 162.212 22.575C161.995 17.2083 160.17 14.525 156.737 14.525C156.004 14.525 155.445 14.6333 155.062 14.85L154.912 14.95C154.895 14.9 154.887 14.825 154.887 14.725C154.887 14.5916 154.912 14.4583 154.962 14.325C155.012 14.1916 155.112 14.05 155.262 13.9C155.412 13.7333 155.654 13.6 155.987 13.5C156.337 13.4 156.754 13.35 157.237 13.35ZM156.287 32.625C157.154 32.625 157.954 32.1083 158.687 31.075C159.454 30.025 160.02 28.825 160.387 27.475C160.787 26.1083 160.987 24.8166 160.987 23.6C160.987 22.5 160.779 21.675 160.362 21.125C159.962 20.5583 159.387 20.275 158.637 20.275C157.787 20.275 156.987 20.7416 156.237 21.675C155.504 22.575 154.92 23.7083 154.487 25.075C154.087 26.3916 153.887 27.6833 153.887 28.95C153.887 30.1333 154.095 31.0416 154.512 31.675C154.945 32.3083 155.537 32.625 156.287 32.625ZM176.553 30.825L176.728 30.425L177.153 30.575C177.137 30.6916 176.995 30.9916 176.728 31.475C176.145 32.5916 175.378 33.15 174.428 33.15C173.862 33.15 173.453 32.925 173.203 32.475C172.953 32.0083 172.903 31.3333 173.053 30.45L173.653 27.05C172.953 29 172.12 30.5 171.153 31.55C170.203 32.6 169.195 33.125 168.128 33.125C167.212 33.125 166.57 32.75 166.203 32C165.853 31.2333 165.803 30.1583 166.053 28.775L167.553 20.275H165.253L165.303 19.875C167.02 19.875 168.27 19.825 169.053 19.725L169.253 19.85L167.678 28.825C167.528 29.7916 167.562 30.5583 167.778 31.125C168.012 31.6916 168.42 31.975 169.003 31.975C170.087 31.975 171.145 31.0333 172.178 29.15C173.212 27.2166 174.028 24.5583 174.628 21.175L174.853 19.875H176.503L174.578 30.7C174.395 31.5833 174.595 32.025 175.178 32.025C175.445 32.025 175.703 31.9 175.953 31.65C176.22 31.4 176.42 31.125 176.553 30.825ZM184.436 25.975C185.019 25.9916 185.644 26.1583 186.311 26.475C187.094 26.8416 187.486 27.5166 187.486 28.5C187.486 29.6666 186.919 30.7416 185.786 31.725C184.652 32.675 183.244 33.15 181.561 33.15C179.494 33.15 178.461 32.4416 178.461 31.025C178.461 30.6083 178.561 30.2916 178.761 30.075C178.977 29.8583 179.236 29.75 179.536 29.75L179.786 29.8C179.719 30.2666 179.686 30.5916 179.686 30.775C179.686 31.275 179.836 31.7083 180.136 32.075C180.436 32.425 180.952 32.6 181.686 32.6C182.852 32.6 183.819 32.2 184.586 31.4C185.386 30.5666 185.786 29.6583 185.786 28.675C185.786 27.9416 185.544 27.3833 185.061 27C184.577 26.6166 184.061 26.4333 183.511 26.45C182.977 26.4666 182.511 26.5 182.111 26.55L181.686 26.625L181.661 26.075C182.027 26.075 182.552 26 183.236 25.85C183.736 25.7333 184.194 25.5833 184.611 25.4C185.044 25.1833 185.411 24.8583 185.711 24.425C186.027 23.975 186.186 23.4833 186.186 22.95C186.186 22.2666 185.977 21.7333 185.561 21.35C185.144 20.9666 184.569 20.775 183.836 20.775C183.186 20.775 182.561 20.9416 181.961 21.275C181.361 21.6083 180.919 21.9833 180.636 22.4L180.261 22.925L179.836 22.725C179.952 22.4583 180.186 22.1166 180.536 21.7C181.502 20.4333 182.844 19.775 184.561 19.725C185.544 19.725 186.311 19.975 186.861 20.475C187.427 20.9583 187.711 21.625 187.711 22.475C187.711 23.5916 187.286 24.4416 186.436 25.025C185.752 25.4916 185.086 25.8083 184.436 25.975ZM200.877 30.825L201.052 30.425L201.477 30.575C201.46 30.6916 201.318 30.9916 201.052 31.475C200.468 32.5916 199.693 33.15 198.727 33.15C197.543 33.15 197.093 32.25 197.377 30.45L197.802 27.6C196.368 31.3 194.61 33.15 192.527 33.15C190.743 33.15 189.852 31.85 189.852 29.25C189.852 27.6 190.185 26.075 190.852 24.675C191.535 23.225 192.502 22.0416 193.752 21.125C195.035 20.1916 196.468 19.725 198.052 19.725C198.418 19.725 198.885 19.8 199.452 19.95C199.768 19.9333 200.177 19.8583 200.677 19.725L200.802 19.85L198.902 30.65C198.752 31.5666 198.96 32.025 199.527 32.025C199.793 32.025 200.052 31.9 200.302 31.65C200.552 31.4 200.743 31.125 200.877 30.825ZM193.277 32.025C194.41 32.025 195.452 31.15 196.402 29.4C197.368 27.65 198.152 25.1916 198.752 22.025L199.077 20.275C198.86 20.225 198.618 20.2 198.352 20.2C196.985 20.2 195.768 20.65 194.702 21.55C193.685 22.4333 192.91 23.5416 192.377 24.875C191.86 26.1916 191.602 27.6166 191.602 29.15C191.602 31.0666 192.16 32.025 193.277 32.025ZM211.352 17.6C210.385 17.6 209.669 17.325 209.202 16.775C208.735 16.2083 208.519 15.4333 208.552 14.45L209.652 14.325C209.569 16.1583 210.16 17.075 211.427 17.075C212.66 17.075 213.577 16.1583 214.177 14.325L215.227 14.45C214.927 15.4166 214.444 16.1833 213.777 16.75C213.11 17.3166 212.302 17.6 211.352 17.6ZM215.152 30.825L215.327 30.425L215.752 30.575C215.735 30.6916 215.594 30.9916 215.327 31.475C214.744 32.5916 213.977 33.15 213.027 33.15C212.46 33.15 212.052 32.925 211.802 32.475C211.552 32.0083 211.502 31.3333 211.652 30.45L212.252 27.05C211.552 29 210.719 30.5 209.752 31.55C208.802 32.6 207.794 33.125 206.727 33.125C205.81 33.125 205.169 32.75 204.802 32C204.452 31.2333 204.402 30.1583 204.652 28.775L206.152 20.275H203.852L203.902 19.875C205.619 19.875 206.869 19.825 207.652 19.725L207.852 19.85L206.277 28.825C206.127 29.7916 206.16 30.5583 206.377 31.125C206.61 31.6916 207.019 31.975 207.602 31.975C208.685 31.975 209.744 31.0333 210.777 29.15C211.81 27.2166 212.627 24.5583 213.227 21.175L213.452 19.875H215.102L213.177 30.7C212.994 31.5833 213.194 32.025 213.777 32.025C214.044 32.025 214.302 31.9 214.552 31.65C214.819 31.4 215.019 31.125 215.152 30.825ZM229.559 30.825L229.734 30.425L230.159 30.575C230.142 30.6916 230.001 30.9916 229.734 31.475C229.151 32.5916 228.376 33.15 227.409 33.15C226.859 33.15 226.451 32.95 226.184 32.55C225.917 32.1333 225.859 31.5 226.009 30.65L226.759 26.375H221.159L219.959 33H218.309L220.609 20.275H218.259L218.334 19.875C219.851 19.875 221.117 19.825 222.134 19.725L222.359 19.875L221.259 25.9H226.859L227.909 19.875H229.559L227.659 30.6C227.492 31.55 227.676 32.025 228.209 32.025C228.476 32.025 228.734 31.9 228.984 31.65C229.234 31.4 229.426 31.125 229.559 30.825ZM239.014 26.575H232.464L232.589 25.925H239.139L239.014 26.575ZM25.8494 60.825L26.0244 60.425L26.4494 60.575C26.4161 60.7416 26.2827 61.0416 26.0494 61.475C25.4661 62.5916 24.6827 63.15 23.6994 63.15C23.0827 63.15 22.6411 62.95 22.3744 62.55C22.1077 62.1333 22.0494 61.5166 22.1994 60.7L23.4494 54.05C23.6327 53.1 23.6077 52.3416 23.3744 51.775C23.1411 51.1916 22.7244 50.9 22.1244 50.9C21.0244 50.9 19.9494 51.925 18.8994 53.975C17.8661 56.025 17.0744 58.525 16.5244 61.475L16.2494 63H14.5994L16.8494 50.275H14.4994L14.5744 49.875C15.9744 49.875 17.1744 49.825 18.1744 49.725L18.3994 49.875C17.9994 52.5583 17.6744 54.625 17.4244 56.075C18.1244 54.0583 18.9577 52.5 19.9244 51.4C20.9077 50.3 21.9327 49.75 22.9994 49.75C23.9161 49.75 24.5577 50.1416 24.9244 50.925C25.3077 51.6916 25.3661 52.75 25.0994 54.1L23.8744 60.65C23.7077 61.5666 23.9161 62.025 24.4994 62.025C24.7661 62.025 25.0244 61.9 25.2744 61.65C25.5411 61.4 25.7327 61.125 25.8494 60.825ZM31.7287 63.15C31.3787 63.15 31.0204 63.1083 30.6537 63.025L29.9037 67.15H32.2537L32.1787 67.525C30.612 67.5416 29.3537 67.6416 28.4037 67.825L28.1787 67.7L31.2537 50.275H28.9037L28.9787 49.875C30.3954 49.875 31.587 49.825 32.5537 49.725L32.7787 49.875C32.612 51.175 32.3204 53.05 31.9037 55.5C33.337 51.65 35.1204 49.725 37.2537 49.725C39.037 49.725 39.9287 51.025 39.9287 53.625C39.9287 55.2583 39.5954 56.7916 38.9287 58.225C38.2454 59.675 37.2704 60.8583 36.0037 61.775C34.737 62.6916 33.312 63.15 31.7287 63.15ZM36.5037 50.85C35.4037 50.85 34.3787 51.6916 33.4287 53.375C32.4954 55.0416 31.7204 57.3916 31.1037 60.425L30.7287 62.6C30.9287 62.65 31.162 62.675 31.4287 62.675C32.7954 62.675 34.0037 62.225 35.0537 61.325C36.087 60.4583 36.862 59.3583 37.3787 58.025C37.912 56.6916 38.1787 55.2583 38.1787 53.725C38.1787 51.8083 37.6204 50.85 36.5037 50.85ZM45.7302 63.15C44.5469 63.15 43.6219 62.7416 42.9552 61.925C42.2886 61.1083 41.9552 59.9416 41.9552 58.425C41.9552 56.175 42.6136 54.1666 43.9302 52.4C45.2636 50.6166 46.8469 49.725 48.6802 49.725C49.8469 49.725 50.7636 50.1333 51.4302 50.95C52.1136 51.7666 52.4552 52.9333 52.4552 54.45C52.4886 55.8666 52.1969 57.2583 51.5802 58.625C50.9802 59.975 50.1469 61.075 49.0802 61.925C48.0136 62.775 46.8969 63.1833 45.7302 63.15ZM46.0552 62.625C46.8719 62.625 47.6469 62.1583 48.3802 61.225C49.1136 60.325 49.6969 59.1916 50.1302 57.825C50.5469 56.5083 50.7552 55.2 50.7552 53.9C50.7552 52.75 50.5386 51.8583 50.1052 51.225C49.6886 50.5916 49.1052 50.275 48.3552 50.275C47.5219 50.275 46.7302 50.7416 45.9802 51.675C45.2636 52.5916 44.6886 53.725 44.2552 55.075C43.8552 56.3916 43.6552 57.6916 43.6552 58.975C43.6552 60.1416 43.8636 61.0416 44.2802 61.675C44.7136 62.3083 45.3052 62.625 46.0552 62.625ZM64.7517 52.2C64.7517 52.85 64.5351 53.425 64.1017 53.925C63.6851 54.425 63.1434 54.8083 62.4767 55.075C61.7767 55.325 61.0517 55.5083 60.3017 55.625C59.0851 55.7916 57.8517 55.8583 56.6017 55.825C56.4517 56.525 56.3767 57.2416 56.3767 57.975C56.3767 60.725 57.3351 62.1 59.2517 62.1C60.6351 62.1 61.8517 61.2666 62.9017 59.6L63.3267 59.825C62.0267 62.0416 60.4101 63.15 58.4767 63.15C57.2434 63.15 56.2851 62.7416 55.6017 61.925C54.9184 61.1083 54.5767 59.95 54.5767 58.45C54.5434 57 54.8517 55.6 55.5017 54.25C56.1684 52.8833 57.0684 51.7833 58.2017 50.95C59.3351 50.1 60.5184 49.6916 61.7517 49.725C62.6851 49.725 63.4184 49.95 63.9517 50.4C64.4851 50.85 64.7517 51.45 64.7517 52.2ZM61.4517 50.25C60.4017 50.25 59.4351 50.7416 58.5517 51.725C57.6851 52.6916 57.0601 53.9333 56.6767 55.45C57.7601 55.4833 58.7684 55.4 59.7017 55.2C61.9851 54.7666 63.1601 53.6916 63.2267 51.975C63.2267 50.825 62.6351 50.25 61.4517 50.25ZM70.3322 49.875L68.0072 63H66.3572L68.6072 50.275H66.2572L66.3322 49.875C67.8489 49.875 69.1072 49.825 70.1072 49.725L70.3322 49.875ZM74.7822 49.725C75.4822 49.725 76.0405 49.9083 76.4572 50.275C76.8905 50.625 77.1072 51.1166 77.1072 51.75C77.1072 52.3 76.9239 52.8166 76.5572 53.3C76.1905 53.7833 75.7239 54.1833 75.1572 54.5C74.6072 54.8 74.0822 55.0416 73.5822 55.225C73.0989 55.4083 72.6405 55.5416 72.2072 55.625L71.6572 55.75L72.6072 56.075L74.5572 60.775C74.7239 61.2083 74.8905 61.525 75.0572 61.725C75.2239 61.925 75.4405 62.025 75.7072 62.025C75.9905 62.025 76.2489 61.8916 76.4822 61.625C76.7322 61.3583 76.9072 61.0666 77.0072 60.75L77.1572 60.325L77.5822 60.475C77.5322 60.725 77.4239 61.0416 77.2572 61.425C76.7405 62.575 75.9905 63.15 75.0072 63.15C74.0405 63.15 73.3489 62.4666 72.9322 61.1L70.8072 55.6C70.8572 55.6 71.1572 55.4916 71.7072 55.275C72.3739 55.025 72.9405 54.8 73.4072 54.6C73.9572 54.3666 74.4655 54.0166 74.9322 53.55C75.4155 53.0666 75.6572 52.575 75.6572 52.075C75.6572 51.6416 75.5155 51.3083 75.2322 51.075C74.9655 50.825 74.6155 50.7 74.1822 50.7C73.7822 50.7 73.4239 50.8083 73.1072 51.025C72.8072 51.2416 72.6239 51.5 72.5572 51.8C72.4239 51.75 72.3572 51.6 72.3572 51.35C72.3572 50.9 72.5905 50.5166 73.0572 50.2C73.5239 49.8833 74.0989 49.725 74.7822 49.725ZM98.4802 60.825L98.6553 60.425L99.0803 60.575C99.0469 60.7416 98.9136 61.0416 98.6802 61.475C98.0969 62.5916 97.3052 63.15 96.3052 63.15C95.7219 63.15 95.2886 62.9416 95.0052 62.525C94.7386 62.1083 94.6803 61.5 94.8303 60.7L96.0802 54.05C96.2469 53.0833 96.2136 52.3166 95.9803 51.75C95.7469 51.1833 95.3386 50.9 94.7552 50.9C93.6386 50.9 92.5469 51.9583 91.4803 54.075C90.4302 56.125 89.6386 58.675 89.1052 61.725L88.8802 63H87.2302L88.8052 54.05C88.9719 53.0833 88.9386 52.3166 88.7052 51.75C88.4719 51.1833 88.0636 50.9 87.4802 50.9C86.4136 50.9 85.3636 51.825 84.3302 53.675C83.3136 55.475 82.5052 58.075 81.9052 61.475L81.6302 63H79.9802L82.2302 50.275H79.8802L79.9552 49.875C81.3719 49.875 82.5636 49.825 83.5302 49.725L83.7552 49.875C83.3719 52.6083 83.0719 54.5916 82.8552 55.825C83.5386 53.875 84.3552 52.375 85.3052 51.325C86.2719 50.275 87.2886 49.75 88.3552 49.75C89.2719 49.75 89.9052 50.1333 90.2552 50.9C90.6219 51.65 90.6802 52.7166 90.4302 54.1L90.1552 55.7C90.8386 53.8 91.6552 52.3333 92.6052 51.3C93.5552 50.2666 94.5636 49.75 95.6303 49.75C96.5302 49.75 97.1719 50.1333 97.5552 50.9C97.9386 51.65 97.9969 52.7166 97.7303 54.1L96.5052 60.65C96.3386 61.5666 96.5469 62.025 97.1303 62.025C97.3969 62.025 97.6552 61.9 97.9052 61.65C98.1719 61.4 98.3636 61.125 98.4802 60.825ZM112.755 55.725C113.572 55.725 114.28 55.9333 114.88 56.35C115.497 56.75 115.805 57.4666 115.805 58.5C115.805 59.85 115.264 60.9666 114.18 61.85C113.114 62.7166 111.855 63.15 110.405 63.15C109.139 63.15 108.164 62.775 107.48 62.025C106.814 61.275 106.48 60.1583 106.48 58.675C106.48 57.2583 106.772 55.8666 107.355 54.5C107.955 53.1333 108.805 52 109.905 51.1C110.989 50.1833 112.197 49.725 113.53 49.725C114.447 49.725 115.164 49.9416 115.68 50.375C116.214 50.8083 116.48 51.3916 116.48 52.125C116.48 53.7416 115.239 54.9416 112.755 55.725ZM113.33 50.225C112.264 50.225 111.272 50.7833 110.355 51.9C109.422 53.0333 108.797 54.4583 108.48 56.175L110.03 55.95C110.947 55.8333 111.93 55.525 112.98 55.025C113.597 54.7083 114.089 54.2833 114.455 53.75C114.839 53.2 115.03 52.5833 115.03 51.9C115.03 50.7833 114.464 50.225 113.33 50.225ZM110.905 62.55C111.855 62.55 112.622 62.1916 113.205 61.475C113.805 60.7416 114.105 59.8083 114.105 58.675C114.105 57.7916 113.914 57.15 113.53 56.75C113.147 56.35 112.555 56.15 111.755 56.15C111.405 56.15 110.939 56.2166 110.355 56.35L110.13 56.425L108.38 56.7C108.297 57.4 108.255 58 108.255 58.5C108.255 61.2 109.139 62.55 110.905 62.55ZM135.786 60.825L135.961 60.425L136.386 60.575C136.353 60.7416 136.219 61.0416 135.986 61.475C135.403 62.5916 134.619 63.15 133.636 63.15C133.019 63.15 132.578 62.95 132.311 62.55C132.044 62.1333 131.986 61.5166 132.136 60.7L133.386 54.05C133.569 53.1 133.544 52.3416 133.311 51.775C133.078 51.1916 132.661 50.9 132.061 50.9C130.961 50.9 129.886 51.925 128.836 53.975C127.803 56.025 127.011 58.525 126.461 61.475L126.186 63H124.536L126.786 50.275H124.436L124.511 49.875C125.911 49.875 127.111 49.825 128.111 49.725L128.336 49.875C127.936 52.5583 127.611 54.625 127.361 56.075C128.061 54.0583 128.894 52.5 129.861 51.4C130.844 50.3 131.869 49.75 132.936 49.75C133.853 49.75 134.494 50.1416 134.861 50.925C135.244 51.6916 135.303 52.75 135.036 54.1L133.811 60.65C133.644 61.5666 133.853 62.025 134.436 62.025C134.703 62.025 134.961 61.9 135.211 61.65C135.478 61.4 135.669 61.125 135.786 60.825ZM142.19 63.15C141.007 63.15 140.082 62.7416 139.415 61.925C138.749 61.1083 138.415 59.9416 138.415 58.425C138.415 56.175 139.074 54.1666 140.39 52.4C141.724 50.6166 143.307 49.725 145.14 49.725C146.307 49.725 147.224 50.1333 147.89 50.95C148.574 51.7666 148.915 52.9333 148.915 54.45C148.949 55.8666 148.657 57.2583 148.04 58.625C147.44 59.975 146.607 61.075 145.54 61.925C144.474 62.775 143.357 63.1833 142.19 63.15ZM142.515 62.625C143.332 62.625 144.107 62.1583 144.84 61.225C145.574 60.325 146.157 59.1916 146.59 57.825C147.007 56.5083 147.215 55.2 147.215 53.9C147.215 52.75 146.999 51.8583 146.565 51.225C146.149 50.5916 145.565 50.275 144.815 50.275C143.982 50.275 143.19 50.7416 142.44 51.675C141.724 52.5916 141.149 53.725 140.715 55.075C140.315 56.3916 140.115 57.6916 140.115 58.975C140.115 60.1416 140.324 61.0416 140.74 61.675C141.174 62.3083 141.765 62.625 142.515 62.625ZM156.212 43.35C157.978 43.35 159.37 44.1333 160.387 45.7C161.403 47.25 161.912 49.4166 161.912 52.2C161.912 54 161.703 55.6333 161.287 57.1C160.87 58.55 160.303 59.7083 159.587 60.575C158.153 62.2916 156.587 63.15 154.887 63.15C153.737 63.15 152.828 62.7416 152.162 61.925C151.495 61.0916 151.162 59.9166 151.162 58.4C151.162 56.1666 151.812 54.1666 153.112 52.4C154.445 50.6166 156.012 49.725 157.812 49.725C159.595 49.725 160.72 50.675 161.187 52.575C160.97 47.2083 159.145 44.525 155.712 44.525C154.978 44.525 154.42 44.6333 154.037 44.85L153.887 44.95C153.87 44.9 153.862 44.825 153.862 44.725C153.862 44.5916 153.887 44.4583 153.937 44.325C153.987 44.1916 154.087 44.05 154.237 43.9C154.387 43.7333 154.628 43.6 154.962 43.5C155.312 43.4 155.728 43.35 156.212 43.35ZM155.262 62.625C156.128 62.625 156.928 62.1083 157.662 61.075C158.428 60.025 158.995 58.825 159.362 57.475C159.762 56.1083 159.962 54.8166 159.962 53.6C159.962 52.5 159.753 51.675 159.337 51.125C158.937 50.5583 158.362 50.275 157.612 50.275C156.762 50.275 155.962 50.7416 155.212 51.675C154.478 52.575 153.895 53.7083 153.462 55.075C153.062 56.3916 152.862 57.6833 152.862 58.95C152.862 60.1333 153.07 61.0416 153.487 61.675C153.92 62.3083 154.512 62.625 155.262 62.625ZM174.778 60.825L174.953 60.425L175.378 60.575C175.361 60.6916 175.22 60.9916 174.953 61.475C174.37 62.5916 173.595 63.15 172.628 63.15C171.445 63.15 170.995 62.25 171.278 60.45L171.703 57.6C170.27 61.3 168.511 63.15 166.428 63.15C164.645 63.15 163.753 61.85 163.753 59.25C163.753 57.6 164.086 56.075 164.753 54.675C165.436 53.225 166.403 52.0416 167.653 51.125C168.936 50.1916 170.37 49.725 171.953 49.725C172.32 49.725 172.786 49.8 173.353 49.95C173.67 49.9333 174.078 49.8583 174.578 49.725L174.703 49.85L172.803 60.65C172.653 61.5666 172.861 62.025 173.428 62.025C173.695 62.025 173.953 61.9 174.203 61.65C174.453 61.4 174.645 61.125 174.778 60.825ZM167.178 62.025C168.311 62.025 169.353 61.15 170.303 59.4C171.27 57.65 172.053 55.1916 172.653 52.025L172.978 50.275C172.761 50.225 172.52 50.2 172.253 50.2C170.886 50.2 169.67 50.65 168.603 51.55C167.586 52.4333 166.811 53.5416 166.278 54.875C165.761 56.1916 165.503 57.6166 165.503 59.15C165.503 61.0666 166.061 62.025 167.178 62.025ZM180.703 63.15C180.353 63.15 179.995 63.1083 179.628 63.025L178.878 67.15H181.228L181.153 67.525C179.587 67.5416 178.328 67.6416 177.378 67.825L177.153 67.7L180.228 50.275H177.878L177.953 49.875C179.37 49.875 180.562 49.825 181.528 49.725L181.753 49.875C181.587 51.175 181.295 53.05 180.878 55.5C182.312 51.65 184.095 49.725 186.228 49.725C188.012 49.725 188.903 51.025 188.903 53.625C188.903 55.2583 188.57 56.7916 187.903 58.225C187.22 59.675 186.245 60.8583 184.978 61.775C183.712 62.6916 182.287 63.15 180.703 63.15ZM185.478 50.85C184.378 50.85 183.353 51.6916 182.403 53.375C181.47 55.0416 180.695 57.3916 180.078 60.425L179.703 62.6C179.903 62.65 180.137 62.675 180.403 62.675C181.77 62.675 182.978 62.225 184.028 61.325C185.062 60.4583 185.837 59.3583 186.353 58.025C186.887 56.6916 187.153 55.2583 187.153 53.725C187.153 51.8083 186.595 50.85 185.478 50.85ZM194.705 63.15C193.522 63.15 192.597 62.7416 191.93 61.925C191.263 61.1083 190.93 59.9416 190.93 58.425C190.93 56.175 191.588 54.1666 192.905 52.4C194.238 50.6166 195.822 49.725 197.655 49.725C198.822 49.725 199.738 50.1333 200.405 50.95C201.088 51.7666 201.43 52.9333 201.43 54.45C201.463 55.8666 201.172 57.2583 200.555 58.625C199.955 59.975 199.122 61.075 198.055 61.925C196.988 62.775 195.872 63.1833 194.705 63.15ZM195.03 62.625C195.847 62.625 196.622 62.1583 197.355 61.225C198.088 60.325 198.672 59.1916 199.105 57.825C199.522 56.5083 199.73 55.2 199.73 53.9C199.73 52.75 199.513 51.8583 199.08 51.225C198.663 50.5916 198.08 50.275 197.33 50.275C196.497 50.275 195.705 50.7416 194.955 51.675C194.238 52.5916 193.663 53.725 193.23 55.075C192.83 56.3916 192.63 57.6916 192.63 58.975C192.63 60.1416 192.838 61.0416 193.255 61.675C193.688 62.3083 194.28 62.625 195.03 62.625ZM208.076 49.875L205.751 63H204.101L206.351 50.275H204.001L204.076 49.875C205.593 49.875 206.851 49.825 207.851 49.725L208.076 49.875ZM212.526 49.725C213.226 49.725 213.785 49.9083 214.201 50.275C214.635 50.625 214.851 51.1166 214.851 51.75C214.851 52.3 214.668 52.8166 214.301 53.3C213.935 53.7833 213.468 54.1833 212.901 54.5C212.351 54.8 211.826 55.0416 211.326 55.225C210.843 55.4083 210.385 55.5416 209.951 55.625L209.401 55.75L210.351 56.075L212.301 60.775C212.468 61.2083 212.635 61.525 212.801 61.725C212.968 61.925 213.185 62.025 213.451 62.025C213.735 62.025 213.993 61.8916 214.226 61.625C214.476 61.3583 214.651 61.0666 214.751 60.75L214.901 60.325L215.326 60.475C215.276 60.725 215.168 61.0416 215.001 61.425C214.485 62.575 213.735 63.15 212.751 63.15C211.785 63.15 211.093 62.4666 210.676 61.1L208.551 55.6C208.601 55.6 208.901 55.4916 209.451 55.275C210.118 55.025 210.685 54.8 211.151 54.6C211.701 54.3666 212.21 54.0166 212.676 53.55C213.16 53.0666 213.401 52.575 213.401 52.075C213.401 51.6416 213.26 51.3083 212.976 51.075C212.71 50.825 212.36 50.7 211.926 50.7C211.526 50.7 211.168 50.8083 210.851 51.025C210.551 51.2416 210.368 51.5 210.301 51.8C210.168 51.75 210.101 51.6 210.101 51.35C210.101 50.9 210.335 50.5166 210.801 50.2C211.268 49.8833 211.843 49.725 212.526 49.725Z" fill="#FFB85E"/>
<path d="M25.6744 30.825L25.8494 30.425L26.2744 30.575C26.2577 30.6916 26.1161 30.9916 25.8494 31.475C25.2661 32.5916 24.4994 33.15 23.5494 33.15C22.9827 33.15 22.5744 32.925 22.3244 32.475C22.0744 32.0083 22.0244 31.3333 22.1744 30.45L22.7744 27.05C22.0744 29 21.2411 30.5 20.2744 31.55C19.3244 32.6 18.3161 33.125 17.2494 33.125C16.3327 33.125 15.6911 32.75 15.3244 32C14.9744 31.2333 14.9244 30.1583 15.1744 28.775L16.6744 20.275H14.3744L14.4244 19.875C16.1411 19.875 17.3911 19.825 18.1744 19.725L18.3744 19.85L16.7994 28.825C16.6494 29.7916 16.6827 30.5583 16.8994 31.125C17.1327 31.6916 17.5411 31.975 18.1244 31.975C19.2077 31.975 20.2661 31.0333 21.2994 29.15C22.3327 27.2166 23.1494 24.5583 23.7494 21.175L23.9744 19.875H25.6244L23.6994 30.7C23.5161 31.5833 23.7161 32.025 24.2994 32.025C24.5661 32.025 24.8244 31.9 25.0744 31.65C25.3411 31.4 25.5411 31.125 25.6744 30.825ZM45.5515 30.825L45.7265 30.425L46.1515 30.575C46.1182 30.7416 45.9849 31.0416 45.7515 31.475C45.1682 32.5916 44.3849 33.15 43.4015 33.15C42.7849 33.15 42.3432 32.95 42.0765 32.55C41.8099 32.1333 41.7515 31.5166 41.9015 30.7L43.1515 24.05C43.3349 23.1 43.3099 22.3416 43.0765 21.775C42.8432 21.1916 42.4265 20.9 41.8265 20.9C40.7265 20.9 39.6515 21.925 38.6015 23.975C37.5682 26.025 36.7765 28.525 36.2265 31.475L35.9515 33H34.3015L36.5515 20.275H34.2015L34.2765 19.875C35.6765 19.875 36.8765 19.825 37.8765 19.725L38.1015 19.875C37.7015 22.5583 37.3765 24.625 37.1265 26.075C37.8265 24.0583 38.6599 22.5 39.6265 21.4C40.6099 20.3 41.6349 19.75 42.7015 19.75C43.6182 19.75 44.2599 20.1416 44.6265 20.925C45.0099 21.6916 45.0682 22.75 44.8015 24.1L43.5765 30.65C43.4099 31.5666 43.6182 32.025 44.2015 32.025C44.4682 32.025 44.7265 31.9 44.9765 31.65C45.2432 31.4 45.4349 31.125 45.5515 30.825ZM51.9558 33.15C50.7725 33.15 49.8475 32.7416 49.1808 31.925C48.5142 31.1083 48.1808 29.9416 48.1808 28.425C48.1808 26.175 48.8392 24.1666 50.1558 22.4C51.4892 20.6166 53.0725 19.725 54.9058 19.725C56.0725 19.725 56.9892 20.1333 57.6558 20.95C58.3392 21.7666 58.6808 22.9333 58.6808 24.45C58.7142 25.8666 58.4225 27.2583 57.8058 28.625C57.2058 29.975 56.3725 31.075 55.3058 31.925C54.2392 32.775 53.1225 33.1833 51.9558 33.15ZM52.2808 32.625C53.0975 32.625 53.8725 32.1583 54.6058 31.225C55.3392 30.325 55.9225 29.1916 56.3558 27.825C56.7725 26.5083 56.9808 25.2 56.9808 23.9C56.9808 22.75 56.7642 21.8583 56.3308 21.225C55.9142 20.5916 55.3308 20.275 54.5808 20.275C53.7475 20.275 52.9558 20.7416 52.2058 21.675C51.4892 22.5916 50.9142 23.725 50.4808 25.075C50.0808 26.3916 49.8808 27.6916 49.8808 28.975C49.8808 30.1416 50.0892 31.0416 50.5058 31.675C50.9392 32.3083 51.5308 32.625 52.2808 32.625ZM68.7523 19.875H71.6773L69.8023 30.6C69.619 31.55 69.8023 32.025 70.3523 32.025C70.619 32.025 70.8773 31.9 71.1273 31.65C71.3773 31.4 71.569 31.125 71.7023 30.825L71.8773 30.425L72.3023 30.575C72.2857 30.6916 72.144 30.9916 71.8773 31.475C71.2607 32.5916 70.4773 33.15 69.5273 33.15C68.9773 33.15 68.569 32.95 68.3023 32.55C68.0357 32.1333 67.9773 31.5 68.1273 30.65L69.9523 20.275H68.6773C67.7607 20.275 67.0023 20.7166 66.4023 21.6C65.7857 22.5 65.319 23.575 65.0023 24.825C64.9523 25.0416 64.8523 25.45 64.7023 26.05C64.5523 26.65 64.444 27.0916 64.3773 27.375C64.3107 27.6416 64.2023 28.05 64.0523 28.6C63.9023 29.1333 63.769 29.5416 63.6523 29.825C63.5357 30.1083 63.3857 30.4583 63.2023 30.875C63.0357 31.2916 62.8607 31.6166 62.6773 31.85C62.5107 32.0666 62.3107 32.2916 62.0773 32.525C61.8607 32.7583 61.619 32.9166 61.3523 33C61.1023 33.1 60.8273 33.15 60.5273 33.15C60.0607 33.15 59.694 33.0416 59.4273 32.825C59.144 32.5916 59.0023 32.2916 59.0023 31.925C59.0023 31.675 59.069 31.45 59.2023 31.25C59.319 31.05 59.4523 30.925 59.6023 30.875L59.7773 30.8V31.125C59.794 31.275 59.9023 31.45 60.1023 31.65C60.319 31.8333 60.5857 31.925 60.9023 31.925C61.4023 31.925 61.8357 31.7083 62.2023 31.275C62.569 30.825 62.869 30.25 63.1023 29.55C63.3357 28.8333 63.5523 28.05 63.7523 27.2C63.9523 26.3333 64.1773 25.475 64.4273 24.625C64.694 23.7583 64.994 22.975 65.3273 22.275C65.6773 21.5583 66.144 20.9833 66.7273 20.55C67.3107 20.1 67.9857 19.875 68.7523 19.875ZM84.5777 20.8C84.5777 22.3 83.7944 24.4583 82.2277 27.275C80.661 30.1416 78.9527 32.275 77.1027 33.675C74.6527 36.5583 71.936 38 68.9527 38C68.086 38 67.4194 37.9 66.9527 37.7C66.486 37.5 66.2527 37.225 66.2527 36.875C66.2527 36.6916 66.311 36.5166 66.4277 36.35C66.5444 36.2 66.6777 36.1 66.8277 36.05L67.0027 35.975C67.5194 36.625 68.3694 36.95 69.5527 36.95C71.8694 36.95 74.136 35.8666 76.3527 33.7L75.5777 33.575C76.0444 30.5583 76.2777 27.8083 76.2777 25.325C76.2777 23.125 76.1444 21.5833 75.8777 20.7L75.7277 20.275H74.0277L74.0777 19.875C75.1944 19.875 76.2027 19.825 77.1027 19.725L77.3027 19.875C77.7194 20.875 77.9277 22.6416 77.9277 25.175C77.9277 27.4916 77.7027 30.0916 77.2527 32.975C78.8027 31.525 80.136 29.625 81.2527 27.275C82.4027 24.875 82.9777 22.8666 82.9777 21.25C82.9777 20.7833 82.8694 20.3833 82.6527 20.05C82.8694 19.8333 83.2027 19.725 83.6527 19.725C84.2694 19.725 84.5777 20.0833 84.5777 20.8ZM96.8594 30.825L97.0344 30.425L97.4594 30.575C97.4427 30.6916 97.301 30.9916 97.0344 31.475C96.451 32.5916 95.676 33.15 94.7094 33.15C93.476 33.15 93.0094 32.3166 93.3094 30.65L94.0594 26.35C92.8427 26.6166 91.7594 26.75 90.8094 26.75C89.476 26.75 88.5177 26.475 87.9344 25.925C87.351 25.375 87.1594 24.5166 87.3594 23.35L87.9094 20.275H85.5594L85.6094 19.875C87.1427 19.875 88.4094 19.825 89.4094 19.725L89.6594 19.875L89.0094 23.5C88.8594 24.4166 88.976 25.1 89.3594 25.55C89.7594 26 90.501 26.225 91.5844 26.225C92.351 26.225 93.201 26.1166 94.1344 25.9L95.1844 19.875H96.8344L94.9344 30.6C94.7844 31.55 94.9677 32.025 95.4844 32.025C95.751 32.025 96.0094 31.9 96.2594 31.65C96.526 31.4 96.726 31.125 96.8594 30.825ZM111.099 30.825L111.274 30.425L111.699 30.575C111.683 30.6916 111.541 30.9916 111.274 31.475C110.691 32.5916 109.924 33.15 108.974 33.15C108.408 33.15 107.999 32.925 107.749 32.475C107.499 32.0083 107.449 31.3333 107.599 30.45L108.199 27.05C107.499 29 106.666 30.5 105.699 31.55C104.749 32.6 103.741 33.125 102.674 33.125C101.758 33.125 101.116 32.75 100.749 32C100.399 31.2333 100.349 30.1583 100.599 28.775L102.099 20.275H99.7992L99.8492 19.875C101.566 19.875 102.816 19.825 103.599 19.725L103.799 19.85L102.224 28.825C102.074 29.7916 102.108 30.5583 102.324 31.125C102.558 31.6916 102.966 31.975 103.549 31.975C104.633 31.975 105.691 31.0333 106.724 29.15C107.758 27.2166 108.574 24.5583 109.174 21.175L109.399 19.875H111.049L109.124 30.7C108.941 31.5833 109.141 32.025 109.724 32.025C109.991 32.025 110.249 31.9 110.499 31.65C110.766 31.4 110.966 31.125 111.099 30.825ZM132.806 30.825L132.981 30.425L133.406 30.575C133.373 30.7416 133.24 31.0416 133.006 31.475C132.423 32.5916 131.631 33.15 130.631 33.15C130.048 33.15 129.615 32.9416 129.331 32.525C129.065 32.1083 129.006 31.5 129.156 30.7L130.406 24.05C130.573 23.0833 130.54 22.3166 130.306 21.75C130.073 21.1833 129.665 20.9 129.081 20.9C127.965 20.9 126.873 21.9583 125.806 24.075C124.756 26.125 123.965 28.675 123.431 31.725L123.206 33H121.556L123.131 24.05C123.298 23.0833 123.265 22.3166 123.031 21.75C122.798 21.1833 122.39 20.9 121.806 20.9C120.74 20.9 119.69 21.825 118.656 23.675C117.64 25.475 116.831 28.075 116.231 31.475L115.956 33H114.306L116.556 20.275H114.206L114.281 19.875C115.698 19.875 116.89 19.825 117.856 19.725L118.081 19.875C117.698 22.6083 117.398 24.5916 117.181 25.825C117.865 23.875 118.681 22.375 119.631 21.325C120.598 20.275 121.615 19.75 122.681 19.75C123.598 19.75 124.231 20.1333 124.581 20.9C124.948 21.65 125.006 22.7166 124.756 24.1L124.481 25.7C125.165 23.8 125.981 22.3333 126.931 21.3C127.881 20.2666 128.89 19.75 129.956 19.75C130.856 19.75 131.498 20.1333 131.881 20.9C132.265 21.65 132.323 22.7166 132.056 24.1L130.831 30.65C130.665 31.5666 130.873 32.025 131.456 32.025C131.723 32.025 131.981 31.9 132.231 31.65C132.498 31.4 132.69 31.125 132.806 30.825ZM145.587 22.2C145.587 22.85 145.37 23.425 144.937 23.925C144.52 24.425 143.978 24.8083 143.312 25.075C142.612 25.325 141.887 25.5083 141.137 25.625C139.92 25.7916 138.687 25.8583 137.437 25.825C137.287 26.525 137.212 27.2416 137.212 27.975C137.212 30.725 138.17 32.1 140.087 32.1C141.47 32.1 142.687 31.2666 143.737 29.6L144.162 29.825C142.862 32.0416 141.245 33.15 139.312 33.15C138.078 33.15 137.12 32.7416 136.437 31.925C135.753 31.1083 135.412 29.95 135.412 28.45C135.378 27 135.687 25.6 136.337 24.25C137.003 22.8833 137.903 21.7833 139.037 20.95C140.17 20.1 141.353 19.6916 142.587 19.725C143.52 19.725 144.253 19.95 144.787 20.4C145.32 20.85 145.587 21.45 145.587 22.2ZM142.287 20.25C141.237 20.25 140.27 20.7416 139.387 21.725C138.52 22.6916 137.895 23.9333 137.512 25.45C138.595 25.4833 139.603 25.4 140.537 25.2C142.82 24.7666 143.995 23.6916 144.062 21.975C144.062 20.825 143.47 20.25 142.287 20.25ZM157.237 13.35C159.004 13.35 160.395 14.1333 161.412 15.7C162.429 17.25 162.937 19.4166 162.937 22.2C162.937 24 162.729 25.6333 162.312 27.1C161.895 28.55 161.329 29.7083 160.612 30.575C159.179 32.2916 157.612 33.15 155.912 33.15C154.762 33.15 153.854 32.7416 153.187 31.925C152.52 31.0916 152.187 29.9166 152.187 28.4C152.187 26.1666 152.837 24.1666 154.137 22.4C155.47 20.6166 157.037 19.725 158.837 19.725C160.62 19.725 161.745 20.675 162.212 22.575C161.995 17.2083 160.17 14.525 156.737 14.525C156.004 14.525 155.445 14.6333 155.062 14.85L154.912 14.95C154.895 14.9 154.887 14.825 154.887 14.725C154.887 14.5916 154.912 14.4583 154.962 14.325C155.012 14.1916 155.112 14.05 155.262 13.9C155.412 13.7333 155.654 13.6 155.987 13.5C156.337 13.4 156.754 13.35 157.237 13.35ZM156.287 32.625C157.154 32.625 157.954 32.1083 158.687 31.075C159.454 30.025 160.02 28.825 160.387 27.475C160.787 26.1083 160.987 24.8166 160.987 23.6C160.987 22.5 160.779 21.675 160.362 21.125C159.962 20.5583 159.387 20.275 158.637 20.275C157.787 20.275 156.987 20.7416 156.237 21.675C155.504 22.575 154.92 23.7083 154.487 25.075C154.087 26.3916 153.887 27.6833 153.887 28.95C153.887 30.1333 154.095 31.0416 154.512 31.675C154.945 32.3083 155.537 32.625 156.287 32.625ZM176.553 30.825L176.728 30.425L177.153 30.575C177.137 30.6916 176.995 30.9916 176.728 31.475C176.145 32.5916 175.378 33.15 174.428 33.15C173.862 33.15 173.453 32.925 173.203 32.475C172.953 32.0083 172.903 31.3333 173.053 30.45L173.653 27.05C172.953 29 172.12 30.5 171.153 31.55C170.203 32.6 169.195 33.125 168.128 33.125C167.212 33.125 166.57 32.75 166.203 32C165.853 31.2333 165.803 30.1583 166.053 28.775L167.553 20.275H165.253L165.303 19.875C167.02 19.875 168.27 19.825 169.053 19.725L169.253 19.85L167.678 28.825C167.528 29.7916 167.562 30.5583 167.778 31.125C168.012 31.6916 168.42 31.975 169.003 31.975C170.087 31.975 171.145 31.0333 172.178 29.15C173.212 27.2166 174.028 24.5583 174.628 21.175L174.853 19.875H176.503L174.578 30.7C174.395 31.5833 174.595 32.025 175.178 32.025C175.445 32.025 175.703 31.9 175.953 31.65C176.22 31.4 176.42 31.125 176.553 30.825ZM184.436 25.975C185.019 25.9916 185.644 26.1583 186.311 26.475C187.094 26.8416 187.486 27.5166 187.486 28.5C187.486 29.6666 186.919 30.7416 185.786 31.725C184.652 32.675 183.244 33.15 181.561 33.15C179.494 33.15 178.461 32.4416 178.461 31.025C178.461 30.6083 178.561 30.2916 178.761 30.075C178.977 29.8583 179.236 29.75 179.536 29.75L179.786 29.8C179.719 30.2666 179.686 30.5916 179.686 30.775C179.686 31.275 179.836 31.7083 180.136 32.075C180.436 32.425 180.952 32.6 181.686 32.6C182.852 32.6 183.819 32.2 184.586 31.4C185.386 30.5666 185.786 29.6583 185.786 28.675C185.786 27.9416 185.544 27.3833 185.061 27C184.577 26.6166 184.061 26.4333 183.511 26.45C182.977 26.4666 182.511 26.5 182.111 26.55L181.686 26.625L181.661 26.075C182.027 26.075 182.552 26 183.236 25.85C183.736 25.7333 184.194 25.5833 184.611 25.4C185.044 25.1833 185.411 24.8583 185.711 24.425C186.027 23.975 186.186 23.4833 186.186 22.95C186.186 22.2666 185.977 21.7333 185.561 21.35C185.144 20.9666 184.569 20.775 183.836 20.775C183.186 20.775 182.561 20.9416 181.961 21.275C181.361 21.6083 180.919 21.9833 180.636 22.4L180.261 22.925L179.836 22.725C179.952 22.4583 180.186 22.1166 180.536 21.7C181.502 20.4333 182.844 19.775 184.561 19.725C185.544 19.725 186.311 19.975 186.861 20.475C187.427 20.9583 187.711 21.625 187.711 22.475C187.711 23.5916 187.286 24.4416 186.436 25.025C185.752 25.4916 185.086 25.8083 184.436 25.975ZM200.877 30.825L201.052 30.425L201.477 30.575C201.46 30.6916 201.318 30.9916 201.052 31.475C200.468 32.5916 199.693 33.15 198.727 33.15C197.543 33.15 197.093 32.25 197.377 30.45L197.802 27.6C196.368 31.3 194.61 33.15 192.527 33.15C190.743 33.15 189.852 31.85 189.852 29.25C189.852 27.6 190.185 26.075 190.852 24.675C191.535 23.225 192.502 22.0416 193.752 21.125C195.035 20.1916 196.468 19.725 198.052 19.725C198.418 19.725 198.885 19.8 199.452 19.95C199.768 19.9333 200.177 19.8583 200.677 19.725L200.802 19.85L198.902 30.65C198.752 31.5666 198.96 32.025 199.527 32.025C199.793 32.025 200.052 31.9 200.302 31.65C200.552 31.4 200.743 31.125 200.877 30.825ZM193.277 32.025C194.41 32.025 195.452 31.15 196.402 29.4C197.368 27.65 198.152 25.1916 198.752 22.025L199.077 20.275C198.86 20.225 198.618 20.2 198.352 20.2C196.985 20.2 195.768 20.65 194.702 21.55C193.685 22.4333 192.91 23.5416 192.377 24.875C191.86 26.1916 191.602 27.6166 191.602 29.15C191.602 31.0666 192.16 32.025 193.277 32.025ZM211.352 17.6C210.385 17.6 209.669 17.325 209.202 16.775C208.735 16.2083 208.519 15.4333 208.552 14.45L209.652 14.325C209.569 16.1583 210.16 17.075 211.427 17.075C212.66 17.075 213.577 16.1583 214.177 14.325L215.227 14.45C214.927 15.4166 214.444 16.1833 213.777 16.75C213.11 17.3166 212.302 17.6 211.352 17.6ZM215.152 30.825L215.327 30.425L215.752 30.575C215.735 30.6916 215.594 30.9916 215.327 31.475C214.744 32.5916 213.977 33.15 213.027 33.15C212.46 33.15 212.052 32.925 211.802 32.475C211.552 32.0083 211.502 31.3333 211.652 30.45L212.252 27.05C211.552 29 210.719 30.5 209.752 31.55C208.802 32.6 207.794 33.125 206.727 33.125C205.81 33.125 205.169 32.75 204.802 32C204.452 31.2333 204.402 30.1583 204.652 28.775L206.152 20.275H203.852L203.902 19.875C205.619 19.875 206.869 19.825 207.652 19.725L207.852 19.85L206.277 28.825C206.127 29.7916 206.16 30.5583 206.377 31.125C206.61 31.6916 207.019 31.975 207.602 31.975C208.685 31.975 209.744 31.0333 210.777 29.15C211.81 27.2166 212.627 24.5583 213.227 21.175L213.452 19.875H215.102L213.177 30.7C212.994 31.5833 213.194 32.025 213.777 32.025C214.044 32.025 214.302 31.9 214.552 31.65C214.819 31.4 215.019 31.125 215.152 30.825ZM229.559 30.825L229.734 30.425L230.159 30.575C230.142 30.6916 230.001 30.9916 229.734 31.475C229.151 32.5916 228.376 33.15 227.409 33.15C226.859 33.15 226.451 32.95 226.184 32.55C225.917 32.1333 225.859 31.5 226.009 30.65L226.759 26.375H221.159L219.959 33H218.309L220.609 20.275H218.259L218.334 19.875C219.851 19.875 221.117 19.825 222.134 19.725L222.359 19.875L221.259 25.9H226.859L227.909 19.875H229.559L227.659 30.6C227.492 31.55 227.676 32.025 228.209 32.025C228.476 32.025 228.734 31.9 228.984 31.65C229.234 31.4 229.426 31.125 229.559 30.825ZM239.014 26.575H232.464L232.589 25.925H239.139L239.014 26.575ZM25.8494 60.825L26.0244 60.425L26.4494 60.575C26.4161 60.7416 26.2827 61.0416 26.0494 61.475C25.4661 62.5916 24.6827 63.15 23.6994 63.15C23.0827 63.15 22.6411 62.95 22.3744 62.55C22.1077 62.1333 22.0494 61.5166 22.1994 60.7L23.4494 54.05C23.6327 53.1 23.6077 52.3416 23.3744 51.775C23.1411 51.1916 22.7244 50.9 22.1244 50.9C21.0244 50.9 19.9494 51.925 18.8994 53.975C17.8661 56.025 17.0744 58.525 16.5244 61.475L16.2494 63H14.5994L16.8494 50.275H14.4994L14.5744 49.875C15.9744 49.875 17.1744 49.825 18.1744 49.725L18.3994 49.875C17.9994 52.5583 17.6744 54.625 17.4244 56.075C18.1244 54.0583 18.9577 52.5 19.9244 51.4C20.9077 50.3 21.9327 49.75 22.9994 49.75C23.9161 49.75 24.5577 50.1416 24.9244 50.925C25.3077 51.6916 25.3661 52.75 25.0994 54.1L23.8744 60.65C23.7077 61.5666 23.9161 62.025 24.4994 62.025C24.7661 62.025 25.0244 61.9 25.2744 61.65C25.5411 61.4 25.7327 61.125 25.8494 60.825ZM31.7287 63.15C31.3787 63.15 31.0204 63.1083 30.6537 63.025L29.9037 67.15H32.2537L32.1787 67.525C30.612 67.5416 29.3537 67.6416 28.4037 67.825L28.1787 67.7L31.2537 50.275H28.9037L28.9787 49.875C30.3954 49.875 31.587 49.825 32.5537 49.725L32.7787 49.875C32.612 51.175 32.3204 53.05 31.9037 55.5C33.337 51.65 35.1204 49.725 37.2537 49.725C39.037 49.725 39.9287 51.025 39.9287 53.625C39.9287 55.2583 39.5954 56.7916 38.9287 58.225C38.2454 59.675 37.2704 60.8583 36.0037 61.775C34.737 62.6916 33.312 63.15 31.7287 63.15ZM36.5037 50.85C35.4037 50.85 34.3787 51.6916 33.4287 53.375C32.4954 55.0416 31.7204 57.3916 31.1037 60.425L30.7287 62.6C30.9287 62.65 31.162 62.675 31.4287 62.675C32.7954 62.675 34.0037 62.225 35.0537 61.325C36.087 60.4583 36.862 59.3583 37.3787 58.025C37.912 56.6916 38.1787 55.2583 38.1787 53.725C38.1787 51.8083 37.6204 50.85 36.5037 50.85ZM45.7302 63.15C44.5469 63.15 43.6219 62.7416 42.9552 61.925C42.2886 61.1083 41.9552 59.9416 41.9552 58.425C41.9552 56.175 42.6136 54.1666 43.9302 52.4C45.2636 50.6166 46.8469 49.725 48.6802 49.725C49.8469 49.725 50.7636 50.1333 51.4302 50.95C52.1136 51.7666 52.4552 52.9333 52.4552 54.45C52.4886 55.8666 52.1969 57.2583 51.5802 58.625C50.9802 59.975 50.1469 61.075 49.0802 61.925C48.0136 62.775 46.8969 63.1833 45.7302 63.15ZM46.0552 62.625C46.8719 62.625 47.6469 62.1583 48.3802 61.225C49.1136 60.325 49.6969 59.1916 50.1302 57.825C50.5469 56.5083 50.7552 55.2 50.7552 53.9C50.7552 52.75 50.5386 51.8583 50.1052 51.225C49.6886 50.5916 49.1052 50.275 48.3552 50.275C47.5219 50.275 46.7302 50.7416 45.9802 51.675C45.2636 52.5916 44.6886 53.725 44.2552 55.075C43.8552 56.3916 43.6552 57.6916 43.6552 58.975C43.6552 60.1416 43.8636 61.0416 44.2802 61.675C44.7136 62.3083 45.3052 62.625 46.0552 62.625ZM64.7517 52.2C64.7517 52.85 64.5351 53.425 64.1017 53.925C63.6851 54.425 63.1434 54.8083 62.4767 55.075C61.7767 55.325 61.0517 55.5083 60.3017 55.625C59.0851 55.7916 57.8517 55.8583 56.6017 55.825C56.4517 56.525 56.3767 57.2416 56.3767 57.975C56.3767 60.725 57.3351 62.1 59.2517 62.1C60.6351 62.1 61.8517 61.2666 62.9017 59.6L63.3267 59.825C62.0267 62.0416 60.4101 63.15 58.4767 63.15C57.2434 63.15 56.2851 62.7416 55.6017 61.925C54.9184 61.1083 54.5767 59.95 54.5767 58.45C54.5434 57 54.8517 55.6 55.5017 54.25C56.1684 52.8833 57.0684 51.7833 58.2017 50.95C59.3351 50.1 60.5184 49.6916 61.7517 49.725C62.6851 49.725 63.4184 49.95 63.9517 50.4C64.4851 50.85 64.7517 51.45 64.7517 52.2ZM61.4517 50.25C60.4017 50.25 59.4351 50.7416 58.5517 51.725C57.6851 52.6916 57.0601 53.9333 56.6767 55.45C57.7601 55.4833 58.7684 55.4 59.7017 55.2C61.9851 54.7666 63.1601 53.6916 63.2267 51.975C63.2267 50.825 62.6351 50.25 61.4517 50.25ZM70.3322 49.875L68.0072 63H66.3572L68.6072 50.275H66.2572L66.3322 49.875C67.8489 49.875 69.1072 49.825 70.1072 49.725L70.3322 49.875ZM74.7822 49.725C75.4822 49.725 76.0405 49.9083 76.4572 50.275C76.8905 50.625 77.1072 51.1166 77.1072 51.75C77.1072 52.3 76.9239 52.8166 76.5572 53.3C76.1905 53.7833 75.7239 54.1833 75.1572 54.5C74.6072 54.8 74.0822 55.0416 73.5822 55.225C73.0989 55.4083 72.6405 55.5416 72.2072 55.625L71.6572 55.75L72.6072 56.075L74.5572 60.775C74.7239 61.2083 74.8905 61.525 75.0572 61.725C75.2239 61.925 75.4405 62.025 75.7072 62.025C75.9905 62.025 76.2489 61.8916 76.4822 61.625C76.7322 61.3583 76.9072 61.0666 77.0072 60.75L77.1572 60.325L77.5822 60.475C77.5322 60.725 77.4239 61.0416 77.2572 61.425C76.7405 62.575 75.9905 63.15 75.0072 63.15C74.0405 63.15 73.3489 62.4666 72.9322 61.1L70.8072 55.6C70.8572 55.6 71.1572 55.4916 71.7072 55.275C72.3739 55.025 72.9405 54.8 73.4072 54.6C73.9572 54.3666 74.4655 54.0166 74.9322 53.55C75.4155 53.0666 75.6572 52.575 75.6572 52.075C75.6572 51.6416 75.5155 51.3083 75.2322 51.075C74.9655 50.825 74.6155 50.7 74.1822 50.7C73.7822 50.7 73.4239 50.8083 73.1072 51.025C72.8072 51.2416 72.6239 51.5 72.5572 51.8C72.4239 51.75 72.3572 51.6 72.3572 51.35C72.3572 50.9 72.5905 50.5166 73.0572 50.2C73.5239 49.8833 74.0989 49.725 74.7822 49.725ZM98.4802 60.825L98.6553 60.425L99.0803 60.575C99.0469 60.7416 98.9136 61.0416 98.6802 61.475C98.0969 62.5916 97.3052 63.15 96.3052 63.15C95.7219 63.15 95.2886 62.9416 95.0052 62.525C94.7386 62.1083 94.6803 61.5 94.8303 60.7L96.0802 54.05C96.2469 53.0833 96.2136 52.3166 95.9803 51.75C95.7469 51.1833 95.3386 50.9 94.7552 50.9C93.6386 50.9 92.5469 51.9583 91.4803 54.075C90.4302 56.125 89.6386 58.675 89.1052 61.725L88.8802 63H87.2302L88.8052 54.05C88.9719 53.0833 88.9386 52.3166 88.7052 51.75C88.4719 51.1833 88.0636 50.9 87.4802 50.9C86.4136 50.9 85.3636 51.825 84.3302 53.675C83.3136 55.475 82.5052 58.075 81.9052 61.475L81.6302 63H79.9802L82.2302 50.275H79.8802L79.9552 49.875C81.3719 49.875 82.5636 49.825 83.5302 49.725L83.7552 49.875C83.3719 52.6083 83.0719 54.5916 82.8552 55.825C83.5386 53.875 84.3552 52.375 85.3052 51.325C86.2719 50.275 87.2886 49.75 88.3552 49.75C89.2719 49.75 89.9052 50.1333 90.2552 50.9C90.6219 51.65 90.6802 52.7166 90.4302 54.1L90.1552 55.7C90.8386 53.8 91.6552 52.3333 92.6052 51.3C93.5552 50.2666 94.5636 49.75 95.6303 49.75C96.5302 49.75 97.1719 50.1333 97.5552 50.9C97.9386 51.65 97.9969 52.7166 97.7303 54.1L96.5052 60.65C96.3386 61.5666 96.5469 62.025 97.1303 62.025C97.3969 62.025 97.6552 61.9 97.9052 61.65C98.1719 61.4 98.3636 61.125 98.4802 60.825ZM112.755 55.725C113.572 55.725 114.28 55.9333 114.88 56.35C115.497 56.75 115.805 57.4666 115.805 58.5C115.805 59.85 115.264 60.9666 114.18 61.85C113.114 62.7166 111.855 63.15 110.405 63.15C109.139 63.15 108.164 62.775 107.48 62.025C106.814 61.275 106.48 60.1583 106.48 58.675C106.48 57.2583 106.772 55.8666 107.355 54.5C107.955 53.1333 108.805 52 109.905 51.1C110.989 50.1833 112.197 49.725 113.53 49.725C114.447 49.725 115.164 49.9416 115.68 50.375C116.214 50.8083 116.48 51.3916 116.48 52.125C116.48 53.7416 115.239 54.9416 112.755 55.725ZM113.33 50.225C112.264 50.225 111.272 50.7833 110.355 51.9C109.422 53.0333 108.797 54.4583 108.48 56.175L110.03 55.95C110.947 55.8333 111.93 55.525 112.98 55.025C113.597 54.7083 114.089 54.2833 114.455 53.75C114.839 53.2 115.03 52.5833 115.03 51.9C115.03 50.7833 114.464 50.225 113.33 50.225ZM110.905 62.55C111.855 62.55 112.622 62.1916 113.205 61.475C113.805 60.7416 114.105 59.8083 114.105 58.675C114.105 57.7916 113.914 57.15 113.53 56.75C113.147 56.35 112.555 56.15 111.755 56.15C111.405 56.15 110.939 56.2166 110.355 56.35L110.13 56.425L108.38 56.7C108.297 57.4 108.255 58 108.255 58.5C108.255 61.2 109.139 62.55 110.905 62.55ZM135.786 60.825L135.961 60.425L136.386 60.575C136.353 60.7416 136.219 61.0416 135.986 61.475C135.403 62.5916 134.619 63.15 133.636 63.15C133.019 63.15 132.578 62.95 132.311 62.55C132.044 62.1333 131.986 61.5166 132.136 60.7L133.386 54.05C133.569 53.1 133.544 52.3416 133.311 51.775C133.078 51.1916 132.661 50.9 132.061 50.9C130.961 50.9 129.886 51.925 128.836 53.975C127.803 56.025 127.011 58.525 126.461 61.475L126.186 63H124.536L126.786 50.275H124.436L124.511 49.875C125.911 49.875 127.111 49.825 128.111 49.725L128.336 49.875C127.936 52.5583 127.611 54.625 127.361 56.075C128.061 54.0583 128.894 52.5 129.861 51.4C130.844 50.3 131.869 49.75 132.936 49.75C133.853 49.75 134.494 50.1416 134.861 50.925C135.244 51.6916 135.303 52.75 135.036 54.1L133.811 60.65C133.644 61.5666 133.853 62.025 134.436 62.025C134.703 62.025 134.961 61.9 135.211 61.65C135.478 61.4 135.669 61.125 135.786 60.825ZM142.19 63.15C141.007 63.15 140.082 62.7416 139.415 61.925C138.749 61.1083 138.415 59.9416 138.415 58.425C138.415 56.175 139.074 54.1666 140.39 52.4C141.724 50.6166 143.307 49.725 145.14 49.725C146.307 49.725 147.224 50.1333 147.89 50.95C148.574 51.7666 148.915 52.9333 148.915 54.45C148.949 55.8666 148.657 57.2583 148.04 58.625C147.44 59.975 146.607 61.075 145.54 61.925C144.474 62.775 143.357 63.1833 142.19 63.15ZM142.515 62.625C143.332 62.625 144.107 62.1583 144.84 61.225C145.574 60.325 146.157 59.1916 146.59 57.825C147.007 56.5083 147.215 55.2 147.215 53.9C147.215 52.75 146.999 51.8583 146.565 51.225C146.149 50.5916 145.565 50.275 144.815 50.275C143.982 50.275 143.19 50.7416 142.44 51.675C141.724 52.5916 141.149 53.725 140.715 55.075C140.315 56.3916 140.115 57.6916 140.115 58.975C140.115 60.1416 140.324 61.0416 140.74 61.675C141.174 62.3083 141.765 62.625 142.515 62.625ZM156.212 43.35C157.978 43.35 159.37 44.1333 160.387 45.7C161.403 47.25 161.912 49.4166 161.912 52.2C161.912 54 161.703 55.6333 161.287 57.1C160.87 58.55 160.303 59.7083 159.587 60.575C158.153 62.2916 156.587 63.15 154.887 63.15C153.737 63.15 152.828 62.7416 152.162 61.925C151.495 61.0916 151.162 59.9166 151.162 58.4C151.162 56.1666 151.812 54.1666 153.112 52.4C154.445 50.6166 156.012 49.725 157.812 49.725C159.595 49.725 160.72 50.675 161.187 52.575C160.97 47.2083 159.145 44.525 155.712 44.525C154.978 44.525 154.42 44.6333 154.037 44.85L153.887 44.95C153.87 44.9 153.862 44.825 153.862 44.725C153.862 44.5916 153.887 44.4583 153.937 44.325C153.987 44.1916 154.087 44.05 154.237 43.9C154.387 43.7333 154.628 43.6 154.962 43.5C155.312 43.4 155.728 43.35 156.212 43.35ZM155.262 62.625C156.128 62.625 156.928 62.1083 157.662 61.075C158.428 60.025 158.995 58.825 159.362 57.475C159.762 56.1083 159.962 54.8166 159.962 53.6C159.962 52.5 159.753 51.675 159.337 51.125C158.937 50.5583 158.362 50.275 157.612 50.275C156.762 50.275 155.962 50.7416 155.212 51.675C154.478 52.575 153.895 53.7083 153.462 55.075C153.062 56.3916 152.862 57.6833 152.862 58.95C152.862 60.1333 153.07 61.0416 153.487 61.675C153.92 62.3083 154.512 62.625 155.262 62.625ZM174.778 60.825L174.953 60.425L175.378 60.575C175.361 60.6916 175.22 60.9916 174.953 61.475C174.37 62.5916 173.595 63.15 172.628 63.15C171.445 63.15 170.995 62.25 171.278 60.45L171.703 57.6C170.27 61.3 168.511 63.15 166.428 63.15C164.645 63.15 163.753 61.85 163.753 59.25C163.753 57.6 164.086 56.075 164.753 54.675C165.436 53.225 166.403 52.0416 167.653 51.125C168.936 50.1916 170.37 49.725 171.953 49.725C172.32 49.725 172.786 49.8 173.353 49.95C173.67 49.9333 174.078 49.8583 174.578 49.725L174.703 49.85L172.803 60.65C172.653 61.5666 172.861 62.025 173.428 62.025C173.695 62.025 173.953 61.9 174.203 61.65C174.453 61.4 174.645 61.125 174.778 60.825ZM167.178 62.025C168.311 62.025 169.353 61.15 170.303 59.4C171.27 57.65 172.053 55.1916 172.653 52.025L172.978 50.275C172.761 50.225 172.52 50.2 172.253 50.2C170.886 50.2 169.67 50.65 168.603 51.55C167.586 52.4333 166.811 53.5416 166.278 54.875C165.761 56.1916 165.503 57.6166 165.503 59.15C165.503 61.0666 166.061 62.025 167.178 62.025ZM180.703 63.15C180.353 63.15 179.995 63.1083 179.628 63.025L178.878 67.15H181.228L181.153 67.525C179.587 67.5416 178.328 67.6416 177.378 67.825L177.153 67.7L180.228 50.275H177.878L177.953 49.875C179.37 49.875 180.562 49.825 181.528 49.725L181.753 49.875C181.587 51.175 181.295 53.05 180.878 55.5C182.312 51.65 184.095 49.725 186.228 49.725C188.012 49.725 188.903 51.025 188.903 53.625C188.903 55.2583 188.57 56.7916 187.903 58.225C187.22 59.675 186.245 60.8583 184.978 61.775C183.712 62.6916 182.287 63.15 180.703 63.15ZM185.478 50.85C184.378 50.85 183.353 51.6916 182.403 53.375C181.47 55.0416 180.695 57.3916 180.078 60.425L179.703 62.6C179.903 62.65 180.137 62.675 180.403 62.675C181.77 62.675 182.978 62.225 184.028 61.325C185.062 60.4583 185.837 59.3583 186.353 58.025C186.887 56.6916 187.153 55.2583 187.153 53.725C187.153 51.8083 186.595 50.85 185.478 50.85ZM194.705 63.15C193.522 63.15 192.597 62.7416 191.93 61.925C191.263 61.1083 190.93 59.9416 190.93 58.425C190.93 56.175 191.588 54.1666 192.905 52.4C194.238 50.6166 195.822 49.725 197.655 49.725C198.822 49.725 199.738 50.1333 200.405 50.95C201.088 51.7666 201.43 52.9333 201.43 54.45C201.463 55.8666 201.172 57.2583 200.555 58.625C199.955 59.975 199.122 61.075 198.055 61.925C196.988 62.775 195.872 63.1833 194.705 63.15ZM195.03 62.625C195.847 62.625 196.622 62.1583 197.355 61.225C198.088 60.325 198.672 59.1916 199.105 57.825C199.522 56.5083 199.73 55.2 199.73 53.9C199.73 52.75 199.513 51.8583 199.08 51.225C198.663 50.5916 198.08 50.275 197.33 50.275C196.497 50.275 195.705 50.7416 194.955 51.675C194.238 52.5916 193.663 53.725 193.23 55.075C192.83 56.3916 192.63 57.6916 192.63 58.975C192.63 60.1416 192.838 61.0416 193.255 61.675C193.688 62.3083 194.28 62.625 195.03 62.625ZM208.076 49.875L205.751 63H204.101L206.351 50.275H204.001L204.076 49.875C205.593 49.875 206.851 49.825 207.851 49.725L208.076 49.875ZM212.526 49.725C213.226 49.725 213.785 49.9083 214.201 50.275C214.635 50.625 214.851 51.1166 214.851 51.75C214.851 52.3 214.668 52.8166 214.301 53.3C213.935 53.7833 213.468 54.1833 212.901 54.5C212.351 54.8 211.826 55.0416 211.326 55.225C210.843 55.4083 210.385 55.5416 209.951 55.625L209.401 55.75L210.351 56.075L212.301 60.775C212.468 61.2083 212.635 61.525 212.801 61.725C212.968 61.925 213.185 62.025 213.451 62.025C213.735 62.025 213.993 61.8916 214.226 61.625C214.476 61.3583 214.651 61.0666 214.751 60.75L214.901 60.325L215.326 60.475C215.276 60.725 215.168 61.0416 215.001 61.425C214.485 62.575 213.735 63.15 212.751 63.15C211.785 63.15 211.093 62.4666 210.676 61.1L208.551 55.6C208.601 55.6 208.901 55.4916 209.451 55.275C210.118 55.025 210.685 54.8 211.151 54.6C211.701 54.3666 212.21 54.0166 212.676 53.55C213.16 53.0666 213.401 52.575 213.401 52.075C213.401 51.6416 213.26 51.3083 212.976 51.075C212.71 50.825 212.36 50.7 211.926 50.7C211.526 50.7 211.168 50.8083 210.851 51.025C210.551 51.2416 210.368 51.5 210.301 51.8C210.168 51.75 210.101 51.6 210.101 51.35C210.101 50.9 210.335 50.5166 210.801 50.2C211.268 49.8833 211.843 49.725 212.526 49.725Z" fill="url(#paint0_linear)"/>
<g opacity="0.8">
<mask id="mask0" mask-type="alpha" maskUnits="userSpaceOnUse" x="0" y="0" width="24" height="26">
<path d="M21.9223 4.44367H19.0975C19.4782 3.97487 19.707 3.37786 19.707 2.72827C19.707 1.68732 19.1281 0.752383 18.1963 0.288378C17.2645 -0.175679 16.1696 -0.0741492 15.3389 0.553112L13.2638 2.1201C12.8669 1.80435 12.3653 1.61498 11.8199 1.61498C11.2745 1.61498 10.7728 1.80435 10.376 2.1201L8.30089 0.553112C7.47016 -0.0741997 6.37521 -0.175578 5.44341 0.288378C4.51161 0.752383 3.93273 1.68727 3.93273 2.72827C3.93273 3.37786 4.16151 3.97487 4.54227 4.44367H1.71742C0.770413 4.44367 0 5.21408 0 6.16109L0 9.19183C0 10.1049 0.716264 10.8535 1.61639 10.906L1.61639 23.7394C1.61639 24.9092 2.56809 25.8609 3.73791 25.8609H19.9018C21.0717 25.8609 22.0234 24.9092 22.0234 23.7394V20.153C22.0234 19.8741 21.7972 19.6479 21.5182 19.6479C21.2393 19.6479 21.0131 19.8741 21.0131 20.153V23.7394C21.0131 24.3521 20.5146 24.8506 19.9018 24.8506H14.1434V10.9092H21.0131V15.6069C21.0131 15.8858 21.2393 16.112 21.5182 16.112C21.7972 16.112 22.0234 15.8858 22.0234 15.6069V10.906C22.9235 10.8535 23.6397 10.1048 23.6397 9.19183V6.16109C23.6397 5.21408 22.8693 4.44367 21.9223 4.44367ZM15.9476 1.35934C16.4784 0.958575 17.1506 0.896192 17.746 1.19275C18.3414 1.48921 18.6968 2.06323 18.6968 2.72827C18.6968 3.67417 17.9273 4.44367 16.9814 4.44367L14.1434 4.44367V3.93855C14.1434 3.56753 14.0555 3.21683 13.9003 2.90537L15.9476 1.35934ZM10.5066 5.45392H13.1332V9.899H10.5066V5.45392ZM11.8199 2.62523C12.544 2.62523 13.1332 3.2144 13.1332 3.93855V4.44367H10.5066V3.93855C10.5066 3.21435 11.0957 2.62523 11.8199 2.62523ZM4.94298 2.72827C4.94298 2.06318 5.29844 1.48916 5.89372 1.19275C6.48906 0.896242 7.16133 0.958575 7.69206 1.35934L9.73948 2.90537C9.58415 3.21683 9.49631 3.56753 9.49631 3.9385V4.44362H6.65838C5.71248 4.44367 4.94298 3.67412 4.94298 2.72827ZM1.01025 9.19183V6.16109C1.01025 5.77113 1.32746 5.45392 1.71742 5.45392H9.49631V9.899H2.12152H1.71742C1.32746 9.899 1.01025 9.58173 1.01025 9.19183ZM2.62664 23.7394V10.9092H9.49631V24.8506H3.73791C3.12514 24.8506 2.62664 24.3521 2.62664 23.7394ZM10.5066 24.8506V10.9092H13.1332V24.8506H10.5066ZM22.6295 9.19183C22.6295 9.58178 22.3123 9.899 21.9223 9.899H21.5182H14.1434V5.45392L21.9223 5.45392C22.3123 5.45392 22.6295 5.77113 22.6295 6.16109V9.19183Z" fill="black"/>
<path d="M21.5183 17.3748C21.3855 17.3748 21.2551 17.4288 21.1612 17.5228C21.0672 17.6168 21.0132 17.7471 21.0132 17.8799C21.0132 18.0128 21.0672 18.1431 21.1612 18.237C21.2551 18.331 21.3855 18.3851 21.5183 18.3851C21.6512 18.3851 21.7815 18.331 21.8754 18.237C21.9694 18.1431 22.0234 18.0128 22.0234 17.8799C22.0234 17.7471 21.9694 17.6168 21.8754 17.5228C21.7815 17.4289 21.6512 17.3748 21.5183 17.3748Z" fill="black"/>
</mask>
<g mask="url(#mask0)">
<rect width="13.0821" height="15.2781" transform="matrix(1 0 0 -1 -4.85181 27.4562)" fill="#FFC985"/>
<rect y="-0.75997" width="35.6972" height="14.0148" fill="#FFC985"/>
</g>
</g>
<defs>
<linearGradient id="paint0_linear" x1="146.999" y1="11" x2="146.999" y2="126" gradientUnits="userSpaceOnUse">
<stop stop-color="white" stop-opacity="0.35"/>
<stop offset="1" stop-color="white" stop-opacity="0"/>
</linearGradient>
</defs>
</svg>
