<svg width="308" height="179" viewBox="0 0 308 179" fill="none" xmlns="http://www.w3.org/2000/svg">
<path d="M47.3644 89.7719L47.488 89.0911L48.1982 89.167C48.2152 89.353 48.1064 89.8674 47.872 90.7102C47.3808 92.6454 46.4028 93.7867 44.9379 94.1341C44.0641 94.3414 43.3522 94.1437 42.8022 93.5413C42.246 92.9131 41.9221 91.8905 41.8303 90.4736L41.5121 85.0114C41.1459 88.2743 40.4094 90.892 39.3028 92.8646C38.2219 94.8311 36.859 96.0094 35.2143 96.3995C33.8008 96.7347 32.6742 96.3911 31.8345 95.3687C31.0144 94.3145 30.5442 92.6752 30.4238 90.4507L29.6284 76.7952L26.0818 77.6363L26.0126 77.0012C28.6597 76.3734 30.5689 75.8392 31.7402 75.3985L32.0943 75.5181L32.9478 89.9335C33.0701 91.4789 33.4018 92.6489 33.9432 93.4435C34.5102 94.232 35.2434 94.5195 36.1429 94.3062C37.8134 93.91 39.101 92.071 40.0057 88.789C40.892 85.4299 41.1792 81.0321 40.8671 75.5956L40.7386 73.5088L43.2829 72.9054L44.2733 90.3014C44.3136 91.7305 44.7835 92.3384 45.683 92.1251C46.0942 92.0276 46.4469 91.7404 46.7409 91.2635C47.0607 90.7804 47.2685 90.2833 47.3644 89.7719ZM78.0148 82.5028L78.1384 81.822L78.8486 81.8979C78.8581 82.1671 78.7623 82.6785 78.5609 83.432C78.0698 85.3672 77.0661 86.5146 75.5498 86.8742C74.5989 87.0997 73.8447 86.9528 73.2872 86.4336C72.7237 85.8886 72.4082 84.959 72.3408 83.6449L71.8364 72.9335C71.7717 71.4016 71.4558 70.2414 70.8888 69.4529C70.3157 68.6387 69.5665 68.3414 68.6413 68.5608C66.9451 68.9631 65.6623 70.9367 64.7929 74.4818C63.9492 78.0208 63.6427 82.1653 63.8735 86.9153L64.0071 89.3674L61.4628 89.9708L60.2788 69.5261L56.6551 70.3855L56.6245 69.7413C58.7832 69.2293 60.6153 68.7134 62.1208 68.1935L62.5226 68.3425C62.8871 72.6264 63.1417 75.9321 63.2865 78.2594C63.6284 74.8937 64.3435 72.186 65.4318 70.1363C66.5458 68.0805 67.9252 66.8576 69.57 66.4675C70.9835 66.1323 72.1162 66.5016 72.9681 67.5754C73.8395 68.6174 74.3165 70.228 74.399 72.4072L74.9054 82.9552C74.9836 84.4297 75.4725 85.0602 76.372 84.8469C76.7832 84.7494 77.1358 84.4622 77.4299 83.9852C77.7497 83.5022 77.9446 83.0081 78.0148 82.5028ZM88.7404 83.7459C86.9158 84.1787 85.3401 83.8873 84.0134 82.8718C82.6868 81.8563 81.7461 80.1792 81.1915 77.8405C80.3687 74.371 80.6494 71.0334 82.0336 67.8278C83.4374 64.5903 85.5528 62.6363 88.3798 61.9659C90.1788 61.5392 91.7416 61.8336 93.0683 62.8491C94.4206 63.8585 95.3741 65.5326 95.9288 67.8713C96.4982 70.0436 96.5574 72.2962 96.1063 74.6291C95.6748 76.9302 94.7921 78.9311 93.4581 80.6319C92.1242 82.3327 90.5516 83.3707 88.7404 83.7459ZM89.0496 82.8175C90.3089 82.5189 91.3333 81.5158 92.1228 79.8085C92.9244 78.1525 93.4095 76.1916 93.5779 73.9257C93.7388 71.7431 93.5816 69.6494 93.1062 67.6448C92.6857 65.8716 92.0255 64.5758 91.1257 63.7577C90.2516 62.9335 89.2363 62.6585 88.0798 62.9328C86.7948 63.2376 85.7447 64.2467 84.9295 65.9601C84.1597 67.6357 83.6875 69.5936 83.513 71.8337C83.3777 74.0103 83.5447 76.088 84.014 78.0669C84.4407 79.8659 85.091 81.1775 85.9651 82.0017C86.865 82.8199 87.8931 83.0918 89.0496 82.8175ZM109.786 57.1335L114.296 56.0638L115.327 73.2874C115.392 74.8193 115.848 75.4847 116.696 75.2836C117.107 75.1861 117.46 74.8988 117.754 74.4219C118.048 73.945 118.243 73.4509 118.339 72.9395L118.463 72.2587L119.173 72.3346C119.19 72.5206 119.081 73.035 118.847 73.8778C118.304 75.8252 117.3 76.9726 115.836 77.32C114.987 77.5212 114.285 77.3621 113.727 76.8428C113.164 76.2978 112.842 75.3426 112.762 73.977L111.782 57.3115L109.816 57.7777C108.403 58.113 107.395 59.0713 106.793 60.6528C106.171 62.2661 105.845 64.0944 105.814 66.1377C105.816 66.4901 105.811 67.1563 105.799 68.1364C105.787 69.1164 105.782 69.8371 105.782 70.2984C105.777 70.734 105.759 71.4032 105.729 72.3062C105.693 73.1834 105.637 73.8618 105.56 74.3414C105.484 74.821 105.381 75.4155 105.25 76.125C105.146 76.8285 104.995 77.3936 104.797 77.8205C104.62 78.2155 104.394 78.6356 104.119 79.0807C103.87 79.5198 103.556 79.8523 103.175 80.0783C102.826 80.3239 102.42 80.5016 101.958 80.6113C101.238 80.782 100.633 80.749 100.143 80.5124C99.6203 80.2563 99.2922 79.8455 99.1581 79.2801C99.0667 78.8946 99.0872 78.5232 99.2196 78.1661C99.3264 77.815 99.4863 77.5735 99.6993 77.4416L99.9417 77.2619L100.061 77.7631C100.141 77.9883 100.372 78.2185 100.754 78.4538C101.155 78.6572 101.6 78.701 102.088 78.5852C102.859 78.4024 103.448 77.9098 103.855 77.1075C104.256 76.2796 104.508 75.2832 104.612 74.1185C104.709 72.9281 104.757 71.6409 104.755 70.2571C104.746 68.8476 104.779 67.4417 104.854 66.0396C104.948 64.6057 105.124 63.2881 105.382 62.0868C105.66 60.8537 106.169 59.7964 106.91 58.9149C107.645 58.0077 108.604 57.4139 109.786 57.1335ZM134.527 52.7725C135.075 55.0855 134.657 58.7001 133.271 63.6163C131.903 68.6096 130.049 72.5239 127.709 75.3593C124.985 80.7013 121.323 83.9178 116.723 85.0088C115.387 85.3258 114.322 85.4154 113.529 85.2776C112.737 85.1399 112.276 84.8012 112.148 84.2615C112.081 83.9788 112.107 83.6876 112.226 83.3879C112.351 83.114 112.52 82.911 112.733 82.779L112.976 82.5994C114.01 83.4128 115.44 83.6031 117.264 83.1703C120.837 82.3231 123.936 79.8237 126.561 75.6721L125.321 75.7627C124.937 70.9404 124.291 66.6146 123.383 62.7853C122.578 59.3929 121.809 57.0645 121.075 55.7999L120.688 55.1994L118.067 55.8211L117.998 55.186C119.719 54.7776 121.256 54.3318 122.607 53.8485L122.97 54.0066C123.979 55.3962 124.946 58.0442 125.872 61.9506C126.72 65.5229 127.323 69.6144 127.684 74.225C129.544 71.4223 130.905 68.0049 131.767 63.9729C132.663 59.8515 132.815 56.5444 132.224 54.0515C132.053 53.3319 131.74 52.7547 131.284 52.32C131.539 51.9066 132.013 51.6177 132.707 51.4531C133.658 51.2276 134.265 51.6674 134.527 52.7725ZM157.131 63.7396L157.255 63.0588L157.965 63.1347C157.982 63.3207 157.873 63.8351 157.639 64.6779C157.147 66.6131 156.157 67.7575 154.666 68.111C152.764 68.562 151.74 67.4477 151.593 64.768L151.177 57.8631C149.398 58.7193 147.777 59.321 146.312 59.6684C144.256 60.156 142.677 60.0825 141.577 59.4477C140.476 58.8129 139.867 57.5595 139.749 55.6873L139.472 50.7446L135.848 51.604L135.779 50.9689C138.144 50.4081 140.079 49.8678 141.584 49.3479L142.024 49.4878L142.348 55.3152C142.452 56.7836 142.881 57.7946 143.637 58.3483C144.418 58.8959 145.644 58.9717 147.315 58.5755C148.497 58.2951 149.768 57.8172 151.128 57.1418L150.544 47.4673L153.088 46.8639L154.08 64.0966C154.197 65.6163 154.653 66.2817 155.45 66.0928C155.861 65.9953 156.213 65.7081 156.508 65.2311C156.827 64.7481 157.035 64.2509 157.131 63.7396ZM179.089 58.5321L179.212 57.8513L179.923 57.9272C179.939 58.1131 179.831 58.6276 179.596 59.4704C179.105 61.4056 178.127 62.5469 176.662 62.8943C175.788 63.1015 175.077 62.9039 174.526 62.3015C173.97 61.6733 173.646 60.6507 173.555 59.2338L173.236 53.7716C172.87 57.0345 172.134 59.6522 171.027 61.6248C169.946 63.5913 168.583 64.7696 166.939 65.1597C165.525 65.4949 164.399 65.1513 163.559 64.1289C162.739 63.0747 162.269 61.4353 162.148 59.2108L161.353 45.5554L157.806 46.3965L157.737 45.7614C160.384 45.1336 162.293 44.5994 163.465 44.1587L163.819 44.2783L164.672 58.6937C164.794 60.2391 165.126 61.4091 165.667 62.2037C166.235 62.9922 166.968 63.2797 167.867 63.0664C169.538 62.6702 170.825 60.8311 171.73 57.5492C172.616 54.1901 172.904 49.7923 172.591 44.3558L172.463 42.269L175.007 41.6655L175.998 59.0616C176.038 60.4907 176.508 61.0986 177.407 60.8853C177.819 60.7878 178.171 60.5006 178.465 60.0236C178.785 59.5406 178.993 59.0434 179.089 58.5321ZM212.561 50.5937L212.685 49.9129L213.395 49.9888C213.404 50.258 213.309 50.7694 213.107 51.5229C212.616 53.4581 211.6 54.6086 210.058 54.9743C209.158 55.1876 208.414 55.0248 207.824 54.4859C207.261 53.941 206.948 53.0242 206.887 51.7358L206.383 41.0244C206.286 39.4729 205.954 38.3029 205.387 37.5144C204.82 36.726 204.087 36.4384 203.188 36.6517C201.466 37.0601 200.169 39.0912 199.299 42.7452C198.429 46.2903 198.141 50.5119 198.434 55.41L198.553 57.4583L196.009 58.0617L195.165 43.6849C195.068 42.1334 194.736 40.9633 194.169 40.1749C193.602 39.3864 192.869 39.0988 191.97 39.3122C190.325 39.7023 189.044 41.5126 188.127 44.7432C187.218 47.8905 186.922 52.1953 187.24 57.6575L187.374 60.1096L184.83 60.713L183.646 40.2684L180.022 41.1277L179.991 40.4835C182.176 39.9654 183.995 39.4526 185.449 38.9448L185.851 39.0939C186.259 43.4488 186.522 46.6168 186.639 48.5978C186.98 45.3411 187.69 42.7294 188.771 40.7629C189.878 38.7903 191.254 37.609 192.898 37.2189C194.312 36.8837 195.429 37.2432 196.249 38.2974C197.088 39.3198 197.568 40.9432 197.689 43.1677L197.85 45.7355C198.209 42.5558 198.932 39.9956 200.019 38.0548C201.106 36.114 202.472 34.9485 204.116 34.5584C205.504 34.2293 206.634 34.5857 207.505 35.6277C208.371 36.6441 208.851 38.2675 208.945 40.4981L209.452 51.0462C209.53 52.5206 210.019 53.1512 210.918 52.9378C211.329 52.8403 211.682 52.5531 211.976 52.0762C212.296 51.5931 212.491 51.099 212.561 50.5937ZM229.114 32.6203C229.352 33.6226 229.228 34.5885 228.743 35.518C228.283 36.4413 227.588 37.2305 226.657 37.8855C225.669 38.527 224.619 39.0748 223.505 39.529C221.69 40.2309 219.812 40.7848 217.872 41.1905C217.897 42.3247 218.044 43.4573 218.312 44.5881C219.317 48.8285 221.298 50.5983 224.254 49.8974C226.387 49.3915 227.958 47.6616 228.968 44.7076L229.705 44.8991C228.511 48.7926 226.424 51.0929 223.442 51.7999C221.541 52.2509 219.914 51.9717 218.561 50.9623C217.209 49.9529 216.258 48.2918 215.71 45.9788C215.128 43.7551 215.092 41.4835 215.6 39.1641C216.129 36.8129 217.114 34.7876 218.557 33.0882C219.994 31.363 221.669 30.3006 223.583 29.901C225.022 29.5597 226.235 29.6384 227.222 30.1373C228.209 30.6362 228.84 31.4638 229.114 32.6203ZM223.312 30.8202C221.693 31.2042 220.382 32.3159 219.38 34.1552C218.397 35.9627 217.887 38.1059 217.851 40.5848C219.534 40.24 221.058 39.7428 222.424 39.0931C225.786 37.5899 227.205 35.5025 226.68 32.8311C226.26 31.0578 225.137 30.3875 223.312 30.8202ZM40.7199 106.051C43.4441 105.405 45.8765 106.104 48.0171 108.148C50.1516 110.166 51.7278 113.321 52.7457 117.613C53.4039 120.389 53.68 122.983 53.5739 125.397C53.4616 127.786 53.0114 129.779 52.2233 131.377C50.6409 134.549 48.539 136.445 45.9176 137.067C44.1443 137.487 42.5943 137.19 41.2677 136.174C39.9349 135.133 38.9913 133.443 38.4366 131.105C37.6199 127.661 37.8908 124.339 39.2493 121.139C40.6531 117.902 42.7428 115.954 45.5184 115.296C48.2683 114.644 50.3504 115.697 51.7649 118.456C49.4682 110.26 45.6728 106.79 40.3786 108.045C39.2478 108.314 38.4265 108.685 37.9146 109.159L37.7199 109.368C37.6759 109.297 37.6356 109.185 37.599 109.03C37.5503 108.825 37.5401 108.61 37.5684 108.386C37.5968 108.162 37.6991 107.907 37.8756 107.621C38.0459 107.309 38.3698 107.015 38.8473 106.739C39.3504 106.457 39.9746 106.228 40.7199 106.051ZM46.3039 136.12C47.6402 135.803 48.6849 134.714 49.4378 132.852C50.236 130.953 50.671 128.895 50.7427 126.679C50.8597 124.426 50.6957 122.361 50.2508 120.485C49.8485 118.789 49.2256 117.593 48.3819 116.897C47.5579 116.169 46.5676 115.943 45.4111 116.217C44.1005 116.528 43.0375 117.54 42.2223 119.254C41.4207 120.91 40.9356 122.87 40.7672 125.136C40.6319 127.313 40.7959 129.378 41.2591 131.331C41.6919 133.156 42.3453 134.48 43.2194 135.304C44.1192 136.122 45.1474 136.394 46.3039 136.12ZM76.8959 125.933L77.0195 125.252L77.7297 125.328C77.7467 125.514 77.6379 126.029 77.4035 126.871C76.9123 128.807 75.9343 129.948 74.4694 130.295C73.5957 130.503 72.8837 130.305 72.3337 129.703C71.7775 129.074 71.4536 128.052 71.3618 126.635L71.0436 121.173C70.6774 124.436 69.9409 127.053 68.8343 129.026C67.7534 130.992 66.3905 132.171 64.7458 132.561C63.3323 132.896 62.2057 132.552 61.366 131.53C60.5459 130.476 60.0757 128.836 59.9553 126.612L59.1599 112.956L55.6133 113.798L55.5441 113.162C58.1912 112.535 60.1004 112 61.2717 111.56L61.6258 111.679L62.4794 126.095C62.6016 127.64 62.9333 128.81 63.4747 129.605C64.0417 130.393 64.7749 130.681 65.6744 130.468C67.3449 130.071 68.6325 128.232 69.5372 124.95C70.4235 121.591 70.7107 117.193 70.3986 111.757L70.2701 109.67L72.8144 109.067L73.8048 126.463C73.8451 127.892 74.315 128.5 75.2145 128.286C75.6257 128.189 75.9784 127.902 76.2724 127.425C76.5922 126.942 76.8 126.445 76.8959 125.933ZM87.2766 115.572C88.1822 115.384 89.2069 115.413 90.3507 115.657C91.6927 115.936 92.5435 116.834 92.9031 118.35C93.3297 120.149 92.8491 122.014 91.4611 123.945C90.0609 125.824 88.063 127.072 85.4673 127.687C82.2805 128.443 80.4281 127.729 79.91 125.544C79.7576 124.902 79.796 124.377 80.0252 123.97C80.28 123.556 80.6388 123.295 81.1014 123.185L81.5052 123.171C81.573 123.915 81.6405 124.428 81.7075 124.711C81.8904 125.482 82.2801 126.095 82.8768 126.551C83.4674 126.981 84.3281 127.062 85.4589 126.793C87.2579 126.367 88.6022 125.396 89.4918 123.882C90.4207 122.305 90.7053 120.758 90.3457 119.242C90.0775 118.111 89.5007 117.338 88.6152 116.924C87.7297 116.51 86.866 116.416 86.024 116.643C85.2077 116.863 84.5003 117.086 83.9018 117.309L83.2738 117.58L83.0342 116.741C83.5996 116.607 84.3817 116.299 85.3805 115.818C86.1088 115.455 86.7607 115.056 87.3362 114.621C87.9251 114.129 88.3717 113.494 88.6758 112.716C88.9995 111.906 89.0639 111.09 88.8689 110.267C88.619 109.214 88.1027 108.468 87.32 108.029C86.5373 107.59 85.5806 107.505 84.4498 107.773C83.4475 108.011 82.5447 108.496 81.7414 109.23C80.9381 109.963 80.3942 110.703 80.1097 111.449L79.7234 112.396L78.9949 112.243C79.0773 111.789 79.3122 111.177 79.6995 110.406C80.7268 108.1 82.5549 106.594 85.1837 105.889C86.7 105.529 87.9736 105.634 89.0046 106.204C90.0551 106.742 90.7358 107.667 91.0467 108.977C91.4551 110.699 91.1105 112.165 90.0132 113.376C89.1301 114.345 88.218 115.077 87.2766 115.572ZM114.402 117.038L114.526 116.357L115.236 116.433C115.253 116.619 115.144 117.134 114.91 117.976C114.419 119.912 113.428 121.056 111.937 121.41C110.112 121.842 109.089 120.619 108.868 117.74L108.481 113.19C107.624 119.419 105.589 122.915 102.377 123.677C99.6269 124.329 97.7765 122.651 96.8257 118.641C96.2223 116.097 96.1786 113.624 96.6946 111.221C97.2181 108.735 98.2759 106.557 99.8682 104.686C101.506 102.778 103.545 101.534 105.987 100.955C106.552 100.821 107.299 100.766 108.228 100.79C108.71 100.649 109.312 100.384 110.034 99.9952L110.273 100.142L111.293 117.491C111.397 118.959 111.886 119.589 112.759 119.382C113.171 119.285 113.523 118.998 113.817 118.521C114.111 118.044 114.306 117.55 114.402 117.038ZM103.122 121.668C104.869 121.253 106.156 119.523 106.981 116.477C107.831 113.425 108.14 109.348 107.907 104.246L107.768 101.428C107.416 101.431 107.034 101.48 106.623 101.578C104.516 102.078 102.804 103.217 101.488 104.994C100.244 106.728 99.4541 108.721 99.1193 110.972C98.8041 113.191 98.9269 115.483 99.4876 117.847C100.189 120.803 101.4 122.076 103.122 121.668ZM125.719 92.8145C124.228 93.168 123.022 93.006 122.102 92.3286C121.175 91.6255 120.557 90.5097 120.249 88.9812L121.9 88.3862C122.442 91.2436 123.689 92.4407 125.642 91.9775C127.544 91.5265 128.622 89.7778 128.877 86.7314L130.542 86.5401C130.433 88.1404 129.968 89.4994 129.147 90.617C128.326 91.7346 127.184 92.4671 125.719 92.8145ZM136.415 111.818L136.538 111.137L137.248 111.213C137.265 111.399 137.157 111.913 136.922 112.756C136.431 114.691 135.453 115.832 133.988 116.18C133.114 116.387 132.402 116.19 131.852 115.587C131.296 114.959 130.972 113.936 130.881 112.519L130.562 107.057C130.196 110.32 129.46 112.938 128.353 114.91C127.272 116.877 125.909 118.055 124.265 118.445C122.851 118.78 121.724 118.437 120.885 117.415C120.065 116.36 119.594 114.721 119.474 112.496L118.679 98.841L115.132 99.6821L115.063 99.047C117.71 98.4192 119.619 97.885 120.79 97.4443L121.145 97.5639L121.998 111.979C122.12 113.525 122.452 114.695 122.993 115.489C123.56 116.278 124.294 116.565 125.193 116.352C126.864 115.956 128.151 114.117 129.056 110.835C129.942 107.476 130.229 103.078 129.917 97.6414L129.789 95.5545L132.333 94.9511L133.324 112.347C133.364 113.776 133.834 114.384 134.733 114.171C135.144 114.073 135.497 113.786 135.791 113.309C136.111 112.826 136.319 112.329 136.415 111.818ZM158.631 106.549L158.754 105.868L159.464 105.944C159.481 106.13 159.373 106.644 159.138 107.487C158.647 109.422 157.656 110.567 156.165 110.92C155.317 111.121 154.615 110.962 154.057 110.443C153.494 109.898 153.172 108.943 153.092 107.577L152.686 100.711L144.05 102.759L144.623 113.413L142.079 114.017L140.972 93.5539L137.348 94.4133L137.317 93.7691C139.656 93.2145 141.591 92.6742 143.122 92.1482L143.524 92.2972L144.031 101.99L152.666 99.942L152.082 90.2675L154.626 89.6641L155.618 106.897C155.709 108.423 156.165 109.088 156.988 108.893C157.399 108.796 157.752 108.508 158.046 108.031C158.34 107.554 158.535 107.06 158.631 106.549ZM171.656 96.5378L161.556 98.9332L161.511 97.8852L171.611 95.4898L171.656 96.5378ZM195.149 97.8882L195.273 97.2074L195.983 97.2832C195.993 97.5524 195.897 98.0638 195.695 98.8173C195.204 100.753 194.2 101.9 192.684 102.26C191.733 102.485 190.979 102.338 190.422 101.819C189.858 101.274 189.543 100.344 189.475 99.0302L188.971 88.3188C188.906 86.7869 188.59 85.6267 188.023 84.8382C187.45 84.0241 186.701 83.7267 185.776 83.9461C184.08 84.3484 182.797 86.3221 181.927 89.8671C181.084 93.4061 180.777 97.5506 181.008 102.301L181.142 104.753L178.597 105.356L177.413 84.9114L173.789 85.7708L173.759 85.1266C175.918 84.6146 177.75 84.0987 179.255 83.5788L179.657 83.7278C180.021 88.0118 180.276 91.3174 180.421 93.6447C180.763 90.279 181.478 87.5714 182.566 85.5217C183.68 83.4659 185.06 82.2429 186.704 81.8528C188.118 81.5176 189.251 81.8869 190.102 82.9607C190.974 84.0027 191.451 85.6133 191.533 87.7925L192.04 98.3406C192.118 99.815 192.607 100.446 193.506 100.232C193.918 100.135 194.27 99.8475 194.564 99.3706C194.884 98.8876 195.079 98.3934 195.149 97.8882ZM205.065 99.3232C204.526 99.4512 203.958 99.518 203.362 99.5236L203.714 106.159L207.338 105.299L207.359 105.905C204.949 106.504 203.046 107.118 201.648 107.748L201.255 107.638L199.624 79.6438L196.001 80.5032L195.97 79.859C198.155 79.3409 199.974 78.828 201.428 78.3203L201.83 78.4693C202.048 80.5348 202.284 83.5327 202.538 87.463C203.34 81.0022 205.386 77.3817 208.675 76.6015C211.425 75.9493 213.276 77.6278 214.226 81.637C214.824 84.1556 214.87 86.6419 214.367 89.0959C213.843 91.5817 212.772 93.7629 211.154 95.6396C209.537 97.5163 207.507 98.7442 205.065 99.3232ZM207.93 78.6105C206.234 79.0128 204.961 80.6855 204.112 83.6286C203.282 86.5399 202.947 90.447 203.105 95.3499L203.322 98.8408C203.649 98.8448 204.018 98.798 204.429 98.7005C206.536 98.2007 208.235 97.0649 209.525 95.2931C210.801 93.5789 211.594 91.5993 211.903 89.3543C212.238 87.1033 212.125 84.7956 211.564 82.4312C210.863 79.4757 209.652 78.2021 207.93 78.6105ZM226.656 94.2029C224.831 94.6356 223.255 94.3442 221.929 93.3287C220.602 92.3132 219.661 90.6362 219.107 88.2975C218.284 84.828 218.565 81.4904 219.949 78.2847C221.353 75.0472 223.468 73.0933 226.295 72.4228C228.094 71.9962 229.657 72.2906 230.983 73.3061C232.336 74.3155 233.289 75.9895 233.844 78.3282C234.413 80.5005 234.473 82.7531 234.021 85.086C233.59 87.3871 232.707 89.3881 231.373 91.0888C230.039 92.7896 228.467 93.8276 226.656 94.2029ZM226.965 93.2745C228.224 92.9758 229.248 91.9728 230.038 90.2654C230.84 88.6094 231.325 86.6485 231.493 84.3827C231.654 82.2 231.497 80.1064 231.021 78.1018C230.601 76.3285 229.941 75.0328 229.041 74.2147C228.167 73.3905 227.151 73.1155 225.995 73.3898C224.71 73.6945 223.66 74.7036 222.845 76.4171C222.075 78.0927 221.603 80.0505 221.428 82.2907C221.293 84.4673 221.46 86.545 221.929 88.5239C222.356 90.3229 223.006 91.6345 223.88 92.4587C224.78 93.2768 225.808 93.5487 226.965 93.2745ZM251.982 70.3619C252.22 71.3642 252.096 72.3301 251.611 73.2595C251.151 74.1829 250.456 74.9721 249.526 75.6271C248.538 76.2686 247.487 76.8164 246.373 77.2706C244.558 77.9725 242.68 78.5263 240.741 78.9321C240.765 80.0663 240.912 81.1988 241.18 82.3296C242.186 86.5701 244.166 88.3399 247.122 87.639C249.255 87.1331 250.826 85.4032 251.836 82.4492L252.573 82.6407C251.379 86.5342 249.292 88.8345 246.311 89.5415C244.409 89.9925 242.782 89.7133 241.429 88.7039C240.077 87.6945 239.127 86.0333 238.578 83.7203C237.996 81.4966 237.96 79.2251 238.468 76.9057C238.997 74.5545 239.982 72.5292 241.425 70.8297C242.862 69.1046 244.537 68.0422 246.451 67.6426C247.89 67.3012 249.103 67.38 250.09 67.8789C251.077 68.3777 251.708 69.2054 251.982 70.3619ZM246.18 68.5618C244.561 68.9458 243.251 70.0575 242.248 71.8968C241.265 73.7043 240.756 75.8475 240.719 78.3264C242.402 77.9816 243.926 77.4844 245.292 76.8347C248.655 75.3314 250.073 73.2441 249.548 70.5726C249.128 68.7994 248.005 68.1291 246.18 68.5618ZM259.737 64.736L260.952 85.8249L258.407 86.4283L257.223 65.9836L253.6 66.843L253.569 66.1988C255.908 65.6441 257.83 65.1069 259.335 64.587L259.737 64.736ZM266.544 62.8773C267.623 62.6213 268.551 62.6999 269.328 63.1129C270.124 63.4941 270.638 64.173 270.87 65.1496C271.071 65.9977 270.977 66.8614 270.588 67.7408C270.2 68.6202 269.626 69.4077 268.868 70.1032C268.13 70.7669 267.409 71.3316 266.705 71.7971C266.027 72.2566 265.369 72.6298 264.731 72.9168L263.929 73.3106L265.512 73.4644L270.238 79.9986C270.653 80.6059 271.026 81.0332 271.356 81.2807C271.687 81.5281 272.057 81.6031 272.468 81.5056C272.905 81.4019 273.255 81.1019 273.517 80.6053C273.805 80.1027 273.968 79.589 274.007 79.0641L274.083 78.3539L274.793 78.4298C274.807 78.8336 274.756 79.3615 274.639 80.0135C274.263 81.9758 273.317 83.1367 271.8 83.4963C270.31 83.8498 268.993 83.049 267.851 81.094L262.563 73.3902C262.64 73.3719 263.063 73.0951 263.832 72.5599C264.769 71.9306 265.56 71.3764 266.206 70.8974C266.969 70.3364 267.625 69.6108 268.174 68.7206C268.743 67.7985 268.935 66.952 268.753 66.181C268.594 65.5128 268.254 65.0506 267.732 64.7945C267.229 64.5065 266.644 64.4417 265.975 64.6002C265.359 64.7465 264.846 65.0446 264.437 65.4945C264.053 65.9383 263.865 66.4037 263.872 66.8906C263.648 66.8623 263.49 66.6554 263.399 66.2699C263.234 65.576 263.454 64.8996 264.058 64.2406C264.662 63.5817 265.49 63.1272 266.544 62.8773ZM307.145 71.3271L307.269 70.6463L307.979 70.7222C307.989 70.9913 307.893 71.5027 307.692 72.2562C307.2 74.1914 306.184 75.3419 304.642 75.7076C303.742 75.9209 302.998 75.7581 302.409 75.2193C301.845 74.6743 301.533 73.7576 301.471 72.4691L300.967 61.7578C300.871 60.2062 300.539 59.0362 299.972 58.2477C299.405 57.4593 298.671 57.1717 297.772 57.385C296.05 57.7934 294.754 59.8246 293.883 63.4785C293.014 67.0236 292.725 71.2452 293.018 76.1433L293.138 78.1916L290.593 78.795L289.749 64.4182C289.653 62.8667 289.321 61.6967 288.754 60.9082C288.187 60.1197 287.453 59.8322 286.554 60.0455C284.909 60.4356 283.628 62.2459 282.711 65.4765C281.802 68.6239 281.506 72.9286 281.825 78.3908L281.958 80.8429L279.414 81.4463L278.23 61.0017L274.606 61.8611L274.576 61.2168C276.76 60.6988 278.579 60.1859 280.033 59.6782L280.435 59.8272C280.844 64.1821 281.106 67.3501 281.223 69.3312C281.564 66.0744 282.275 63.4627 283.356 61.4962C284.462 59.5236 285.838 58.3423 287.483 57.9522C288.896 57.617 290.013 57.9765 290.833 59.0307C291.673 60.0531 292.153 61.6765 292.273 63.9011L292.434 66.4688C292.793 63.2891 293.516 60.7289 294.603 58.7881C295.69 56.8473 297.056 55.6818 298.701 55.2918C300.088 54.9626 301.218 55.3191 302.089 56.3611C302.955 57.3774 303.435 59.0008 303.53 61.2314L304.036 71.7795C304.114 73.2539 304.603 73.8845 305.503 73.6712C305.914 73.5736 306.266 73.2864 306.56 72.8095C306.88 72.3265 307.075 71.8323 307.145 71.3271ZM56.595 165.606C57.8543 165.308 59.0227 165.37 60.1003 165.793C61.1974 166.184 61.935 167.177 62.3129 168.77C62.8066 170.852 62.3797 172.772 61.0322 174.53C59.7044 176.256 57.9225 177.385 55.6866 177.915C53.7334 178.378 52.0928 178.156 50.7649 177.25C49.4626 176.337 48.5402 174.737 47.9978 172.45C47.4797 170.265 47.4205 168.013 47.8202 165.692C48.2456 163.365 49.1419 161.307 50.5089 159.517C51.8442 157.707 53.5398 156.559 55.5958 156.071C57.0093 155.736 58.1936 155.808 59.1488 156.287C60.1297 156.76 60.7542 157.562 61.0224 158.693C61.6136 161.186 60.1378 163.49 56.595 165.606ZM55.4703 156.915C53.8255 157.305 52.5005 158.529 51.4954 160.586C50.4707 162.675 50.028 165.101 50.1675 167.864L52.4753 166.95C53.8462 166.435 55.2497 165.6 56.6859 164.445C57.521 163.731 58.1237 162.896 58.4941 161.939C58.8841 160.951 58.9541 159.93 58.7042 158.876C58.2958 157.154 57.2179 156.501 55.4703 156.915ZM56.2382 176.807C57.7031 176.459 58.7542 175.627 59.3916 174.308C60.0487 172.958 60.1699 171.409 59.7555 169.661C59.4324 168.299 58.9022 167.38 58.1649 166.903C57.4275 166.427 56.442 166.335 55.2084 166.627C54.6687 166.755 53.9735 167.029 53.1228 167.448L52.8032 167.646L50.2053 168.71C50.3328 169.82 50.488 170.76 50.6708 171.531C51.6582 175.694 53.514 177.453 56.2382 176.807ZM93.9728 165.048L94.0964 164.367L94.8066 164.443C94.8162 164.712 94.7203 165.224 94.5189 165.977C94.0278 167.913 93.0241 169.06 91.5078 169.42C90.5569 169.645 89.8027 169.498 89.2452 168.979C88.6817 168.434 88.3662 167.504 88.2989 166.19L87.7944 155.479C87.7297 153.947 87.4139 152.787 86.8468 151.998C86.2737 151.184 85.5245 150.887 84.5993 151.106C82.9032 151.508 81.6204 153.482 80.7509 157.027C79.9072 160.566 79.6007 164.711 79.8315 169.461L79.9651 171.913L77.4208 172.516L76.2368 152.071L72.6131 152.931L72.5825 152.287C74.7413 151.775 76.5734 151.259 78.0788 150.739L78.4806 150.888C78.8451 155.172 79.0997 158.477 79.2445 160.805C79.5864 157.439 80.3015 154.731 81.3898 152.682C82.5038 150.626 83.8832 149.403 85.528 149.013C86.9415 148.678 88.0742 149.047 88.9261 150.121C89.7975 151.163 90.2745 152.773 90.357 154.953L90.8634 165.501C90.9416 166.975 91.4305 167.606 92.33 167.392C92.7412 167.295 93.0938 167.008 93.3879 166.531C93.7077 166.048 93.9026 165.553 93.9728 165.048ZM104.698 166.291C102.874 166.724 101.298 166.433 99.9714 165.417C98.6448 164.402 97.7042 162.725 97.1495 160.386C96.3267 156.916 96.6074 153.579 97.9916 150.373C99.3954 147.136 101.511 145.182 104.338 144.511C106.137 144.085 107.7 144.379 109.026 145.394C110.379 146.404 111.332 148.078 111.887 150.417C112.456 152.589 112.515 154.842 112.064 157.174C111.633 159.476 110.75 161.476 109.416 163.177C108.082 164.878 106.51 165.916 104.698 166.291ZM105.008 165.363C106.267 165.064 107.291 164.061 108.081 162.354C108.882 160.698 109.367 158.737 109.536 156.471C109.697 154.288 109.54 152.195 109.064 150.19C108.644 148.417 107.984 147.121 107.084 146.303C106.21 145.479 105.194 145.204 104.038 145.478C102.753 145.783 101.703 146.792 100.888 148.505C100.118 150.181 99.6455 152.139 99.471 154.379C99.3357 156.556 99.5027 158.633 99.972 160.612C100.399 162.411 101.049 163.723 101.923 164.547C102.823 165.365 103.851 165.637 105.008 165.363ZM119.079 130.632C121.803 129.986 124.235 130.685 126.376 132.729C128.51 134.747 130.087 137.902 131.104 142.194C131.763 144.97 132.039 147.565 131.933 149.979C131.82 152.367 131.37 154.36 130.582 155.959C129 159.13 126.898 161.026 124.276 161.648C122.503 162.069 120.953 161.771 119.626 160.756C118.294 159.715 117.35 158.025 116.795 155.686C115.979 152.242 116.25 148.92 117.608 145.721C119.012 142.483 121.102 140.536 123.877 139.877C126.627 139.225 128.709 140.279 130.124 143.038C127.827 134.842 124.031 131.371 118.737 132.627C117.607 132.895 116.785 133.266 116.273 133.741L116.079 133.95C116.035 133.879 115.994 133.766 115.958 133.612C115.909 133.406 115.899 133.191 115.927 132.968C115.955 132.744 116.058 132.489 116.234 132.203C116.405 131.891 116.729 131.597 117.206 131.321C117.709 131.038 118.333 130.809 119.079 130.632ZM124.663 160.701C125.999 160.385 127.044 159.295 127.797 157.434C128.595 155.534 129.03 153.477 129.101 151.261C129.218 149.007 129.054 146.942 128.61 145.066C128.207 143.37 127.584 142.174 126.741 141.478C125.917 140.751 124.926 140.524 123.77 140.799C122.459 141.109 121.396 142.122 120.581 143.835C119.779 145.491 119.294 147.452 119.126 149.718C118.991 151.894 119.155 153.959 119.618 155.912C120.051 157.737 120.704 159.061 121.578 159.886C122.478 160.704 123.506 160.976 124.663 160.701ZM154.098 150.789L154.222 150.108L154.932 150.184C154.949 150.37 154.84 150.884 154.606 151.727C154.115 153.662 153.124 154.807 151.633 155.16C149.808 155.593 148.785 154.37 148.564 151.491L148.177 146.94C147.32 153.17 145.285 156.666 142.073 157.428C139.323 158.08 137.473 156.401 136.522 152.392C135.918 149.848 135.875 147.374 136.391 144.972C136.914 142.486 137.972 140.308 139.564 138.437C141.202 136.529 143.241 135.285 145.683 134.706C146.248 134.572 146.995 134.517 147.924 134.541C148.406 134.399 149.008 134.134 149.731 133.746L149.969 133.893L150.989 151.241C151.093 152.71 151.582 153.34 152.455 153.133C152.867 153.035 153.219 152.748 153.513 152.271C153.807 151.794 154.002 151.3 154.098 150.789ZM142.818 155.419C144.565 155.004 145.852 153.274 146.677 150.228C147.527 147.176 147.836 143.099 147.603 137.996L147.464 135.179C147.112 135.181 146.73 135.231 146.319 135.329C144.212 135.828 142.5 136.967 141.185 138.745C139.94 140.479 139.15 142.471 138.815 144.722C138.5 146.942 138.623 149.233 139.184 151.598C139.885 154.553 141.096 155.827 142.818 155.419ZM164.085 152.207C163.546 152.335 162.978 152.402 162.382 152.407L162.734 159.042L166.358 158.183L166.379 158.789C163.969 159.387 162.066 160.002 160.668 160.632L160.275 160.521L158.644 132.528L155.021 133.387L154.99 132.743C157.175 132.225 158.994 131.712 160.448 131.204L160.85 131.353C161.068 133.419 161.304 136.417 161.558 140.347C162.36 133.886 164.406 130.265 167.695 129.485C170.445 128.833 172.296 130.512 173.246 134.521C173.844 137.039 173.89 139.526 173.387 141.98C172.863 144.465 171.792 146.647 170.174 148.523C168.557 150.4 166.527 151.628 164.085 152.207ZM166.95 131.494C165.254 131.897 163.981 133.569 163.132 136.512C162.302 139.424 161.967 143.331 162.125 148.234L162.342 151.725C162.669 151.729 163.038 151.682 163.449 151.584C165.556 151.085 167.255 149.949 168.545 148.177C169.821 146.463 170.614 144.483 170.923 142.238C171.258 139.987 171.145 137.679 170.584 135.315C169.884 132.36 168.672 131.086 166.95 131.494ZM185.676 147.087C183.851 147.519 182.275 147.228 180.949 146.213C179.622 145.197 178.681 143.52 178.127 141.181C177.304 137.712 177.585 134.374 178.969 131.169C180.373 127.931 182.488 125.977 185.315 125.307C187.114 124.88 188.677 125.174 190.003 126.19C191.356 127.199 192.309 128.873 192.864 131.212C193.433 133.384 193.493 135.637 193.041 137.97C192.61 140.271 191.727 142.272 190.393 143.973C189.059 145.673 187.487 146.711 185.676 147.087ZM185.985 146.158C187.244 145.86 188.268 144.857 189.058 143.149C189.86 141.493 190.345 139.532 190.513 137.267C190.674 135.084 190.517 132.99 190.041 130.986C189.621 129.212 188.961 127.917 188.061 127.099C187.187 126.274 186.171 125.999 185.015 126.274C183.73 126.578 182.68 127.587 181.865 129.301C181.095 130.976 180.623 132.934 180.448 135.175C180.313 137.351 180.48 139.429 180.949 141.408C181.376 143.207 182.026 144.518 182.9 145.343C183.8 146.161 184.828 146.433 185.985 146.158ZM201.44 121.727L202.654 142.816L200.11 143.419L198.926 122.974L195.302 123.834L195.272 123.19C197.61 122.635 199.532 122.098 201.038 121.578L201.44 121.727ZM208.247 119.868C209.326 119.612 210.254 119.691 211.031 120.104C211.827 120.485 212.341 121.164 212.572 122.14C212.773 122.989 212.68 123.852 212.291 124.732C211.902 125.611 211.329 126.398 210.571 127.094C209.833 127.758 209.112 128.322 208.408 128.788C207.729 129.247 207.071 129.621 206.434 129.908L205.631 130.301L207.215 130.455L211.941 136.989C212.356 137.597 212.729 138.024 213.059 138.271C213.389 138.519 213.76 138.594 214.171 138.496C214.608 138.393 214.958 138.093 215.22 137.596C215.508 137.094 215.671 136.58 215.709 136.055L215.785 135.345L216.496 135.421C216.51 135.824 216.459 136.352 216.342 137.004C215.966 138.967 215.019 140.127 213.503 140.487C212.013 140.841 210.696 140.04 209.554 138.085L204.266 130.381C204.343 130.363 204.766 130.086 205.535 129.551C206.471 128.921 207.263 128.367 207.909 127.888C208.672 127.327 209.328 126.602 209.877 125.711C210.445 124.789 210.638 123.943 210.455 123.172C210.297 122.504 209.956 122.041 209.434 121.785C208.932 121.497 208.346 121.433 207.678 121.591C207.061 121.737 206.548 122.035 206.139 122.485C205.756 122.929 205.568 123.394 205.575 123.881C205.351 123.853 205.193 123.646 205.102 123.261C204.937 122.567 205.157 121.89 205.76 121.231C206.364 120.572 207.193 120.118 208.247 119.868Z" fill="#FFB85E"/>
<path d="M47.3644 89.7719L47.488 89.0911L48.1982 89.167C48.2152 89.353 48.1064 89.8674 47.872 90.7102C47.3808 92.6454 46.4028 93.7867 44.9379 94.1341C44.0641 94.3414 43.3522 94.1437 42.8022 93.5413C42.246 92.9131 41.9221 91.8905 41.8303 90.4736L41.5121 85.0114C41.1459 88.2743 40.4094 90.892 39.3028 92.8646C38.2219 94.8311 36.859 96.0094 35.2143 96.3995C33.8008 96.7347 32.6742 96.3911 31.8345 95.3687C31.0144 94.3145 30.5442 92.6752 30.4238 90.4507L29.6284 76.7952L26.0818 77.6363L26.0126 77.0012C28.6597 76.3734 30.5689 75.8392 31.7402 75.3985L32.0943 75.5181L32.9478 89.9335C33.0701 91.4789 33.4018 92.6489 33.9432 93.4435C34.5102 94.232 35.2434 94.5195 36.1429 94.3062C37.8134 93.91 39.101 92.071 40.0057 88.789C40.892 85.4299 41.1792 81.0321 40.8671 75.5956L40.7386 73.5088L43.2829 72.9054L44.2733 90.3014C44.3136 91.7305 44.7835 92.3384 45.683 92.1251C46.0942 92.0276 46.4469 91.7404 46.7409 91.2635C47.0607 90.7804 47.2685 90.2833 47.3644 89.7719ZM78.0148 82.5028L78.1384 81.822L78.8486 81.8979C78.8581 82.1671 78.7623 82.6785 78.5609 83.432C78.0698 85.3672 77.0661 86.5146 75.5498 86.8742C74.5989 87.0997 73.8447 86.9528 73.2872 86.4336C72.7237 85.8886 72.4082 84.959 72.3408 83.6449L71.8364 72.9335C71.7717 71.4016 71.4558 70.2414 70.8888 69.4529C70.3157 68.6387 69.5665 68.3414 68.6413 68.5608C66.9451 68.9631 65.6623 70.9367 64.7929 74.4818C63.9492 78.0208 63.6427 82.1653 63.8735 86.9153L64.0071 89.3674L61.4628 89.9708L60.2788 69.5261L56.6551 70.3855L56.6245 69.7413C58.7832 69.2293 60.6153 68.7134 62.1208 68.1935L62.5226 68.3425C62.8871 72.6264 63.1417 75.9321 63.2865 78.2594C63.6284 74.8937 64.3435 72.186 65.4318 70.1363C66.5458 68.0805 67.9252 66.8576 69.57 66.4675C70.9835 66.1323 72.1162 66.5016 72.9681 67.5754C73.8395 68.6174 74.3165 70.228 74.399 72.4072L74.9054 82.9552C74.9836 84.4297 75.4725 85.0602 76.372 84.8469C76.7832 84.7494 77.1358 84.4622 77.4299 83.9852C77.7497 83.5022 77.9446 83.0081 78.0148 82.5028ZM88.7404 83.7459C86.9158 84.1787 85.3401 83.8873 84.0134 82.8718C82.6868 81.8563 81.7461 80.1792 81.1915 77.8405C80.3687 74.371 80.6494 71.0334 82.0336 67.8278C83.4374 64.5903 85.5528 62.6363 88.3798 61.9659C90.1788 61.5392 91.7416 61.8336 93.0683 62.8491C94.4206 63.8585 95.3741 65.5326 95.9288 67.8713C96.4982 70.0436 96.5574 72.2962 96.1063 74.6291C95.6748 76.9302 94.7921 78.9311 93.4581 80.6319C92.1242 82.3327 90.5516 83.3707 88.7404 83.7459ZM89.0496 82.8175C90.3089 82.5189 91.3333 81.5158 92.1228 79.8085C92.9244 78.1525 93.4095 76.1916 93.5779 73.9257C93.7388 71.7431 93.5816 69.6494 93.1062 67.6448C92.6857 65.8716 92.0255 64.5758 91.1257 63.7577C90.2516 62.9335 89.2363 62.6585 88.0798 62.9328C86.7948 63.2376 85.7447 64.2467 84.9295 65.9601C84.1597 67.6357 83.6875 69.5936 83.513 71.8337C83.3777 74.0103 83.5447 76.088 84.014 78.0669C84.4407 79.8659 85.091 81.1775 85.9651 82.0017C86.865 82.8199 87.8931 83.0918 89.0496 82.8175ZM109.786 57.1335L114.296 56.0638L115.327 73.2874C115.392 74.8193 115.848 75.4847 116.696 75.2836C117.107 75.1861 117.46 74.8988 117.754 74.4219C118.048 73.945 118.243 73.4509 118.339 72.9395L118.463 72.2587L119.173 72.3346C119.19 72.5206 119.081 73.035 118.847 73.8778C118.304 75.8252 117.3 76.9726 115.836 77.32C114.987 77.5212 114.285 77.3621 113.727 76.8428C113.164 76.2978 112.842 75.3426 112.762 73.977L111.782 57.3115L109.816 57.7777C108.403 58.113 107.395 59.0713 106.793 60.6528C106.171 62.2661 105.845 64.0944 105.814 66.1377C105.816 66.4901 105.811 67.1563 105.799 68.1364C105.787 69.1164 105.782 69.8371 105.782 70.2984C105.777 70.734 105.759 71.4032 105.729 72.3062C105.693 73.1834 105.637 73.8618 105.56 74.3414C105.484 74.821 105.381 75.4155 105.25 76.125C105.146 76.8285 104.995 77.3936 104.797 77.8205C104.62 78.2155 104.394 78.6356 104.119 79.0807C103.87 79.5198 103.556 79.8523 103.175 80.0783C102.826 80.3239 102.42 80.5016 101.958 80.6113C101.238 80.782 100.633 80.749 100.143 80.5124C99.6203 80.2563 99.2922 79.8455 99.1581 79.2801C99.0667 78.8946 99.0872 78.5232 99.2196 78.1661C99.3264 77.815 99.4863 77.5735 99.6993 77.4416L99.9417 77.2619L100.061 77.7631C100.141 77.9883 100.372 78.2185 100.754 78.4538C101.155 78.6572 101.6 78.701 102.088 78.5852C102.859 78.4024 103.448 77.9098 103.855 77.1075C104.256 76.2796 104.508 75.2832 104.612 74.1185C104.709 72.9281 104.757 71.6409 104.755 70.2571C104.746 68.8476 104.779 67.4417 104.854 66.0396C104.948 64.6057 105.124 63.2881 105.382 62.0868C105.66 60.8537 106.169 59.7964 106.91 58.9149C107.645 58.0077 108.604 57.4139 109.786 57.1335ZM134.527 52.7725C135.075 55.0855 134.657 58.7001 133.271 63.6163C131.903 68.6096 130.049 72.5239 127.709 75.3593C124.985 80.7013 121.323 83.9178 116.723 85.0088C115.387 85.3258 114.322 85.4154 113.529 85.2776C112.737 85.1399 112.276 84.8012 112.148 84.2615C112.081 83.9788 112.107 83.6876 112.226 83.3879C112.351 83.114 112.52 82.911 112.733 82.779L112.976 82.5994C114.01 83.4128 115.44 83.6031 117.264 83.1703C120.837 82.3231 123.936 79.8237 126.561 75.6721L125.321 75.7627C124.937 70.9404 124.291 66.6146 123.383 62.7853C122.578 59.3929 121.809 57.0645 121.075 55.7999L120.688 55.1994L118.067 55.8211L117.998 55.186C119.719 54.7776 121.256 54.3318 122.607 53.8485L122.97 54.0066C123.979 55.3962 124.946 58.0442 125.872 61.9506C126.72 65.5229 127.323 69.6144 127.684 74.225C129.544 71.4223 130.905 68.0049 131.767 63.9729C132.663 59.8515 132.815 56.5444 132.224 54.0515C132.053 53.3319 131.74 52.7547 131.284 52.32C131.539 51.9066 132.013 51.6177 132.707 51.4531C133.658 51.2276 134.265 51.6674 134.527 52.7725ZM157.131 63.7396L157.255 63.0588L157.965 63.1347C157.982 63.3207 157.873 63.8351 157.639 64.6779C157.147 66.6131 156.157 67.7575 154.666 68.111C152.764 68.562 151.74 67.4477 151.593 64.768L151.177 57.8631C149.398 58.7193 147.777 59.321 146.312 59.6684C144.256 60.156 142.677 60.0825 141.577 59.4477C140.476 58.8129 139.867 57.5595 139.749 55.6873L139.472 50.7446L135.848 51.604L135.779 50.9689C138.144 50.4081 140.079 49.8678 141.584 49.3479L142.024 49.4878L142.348 55.3152C142.452 56.7836 142.881 57.7946 143.637 58.3483C144.418 58.8959 145.644 58.9717 147.315 58.5755C148.497 58.2951 149.768 57.8172 151.128 57.1418L150.544 47.4673L153.088 46.8639L154.08 64.0966C154.197 65.6163 154.653 66.2817 155.45 66.0928C155.861 65.9953 156.213 65.7081 156.508 65.2311C156.827 64.7481 157.035 64.2509 157.131 63.7396ZM179.089 58.5321L179.212 57.8513L179.923 57.9272C179.939 58.1131 179.831 58.6276 179.596 59.4704C179.105 61.4056 178.127 62.5469 176.662 62.8943C175.788 63.1015 175.077 62.9039 174.526 62.3015C173.97 61.6733 173.646 60.6507 173.555 59.2338L173.236 53.7716C172.87 57.0345 172.134 59.6522 171.027 61.6248C169.946 63.5913 168.583 64.7696 166.939 65.1597C165.525 65.4949 164.399 65.1513 163.559 64.1289C162.739 63.0747 162.269 61.4353 162.148 59.2108L161.353 45.5554L157.806 46.3965L157.737 45.7614C160.384 45.1336 162.293 44.5994 163.465 44.1587L163.819 44.2783L164.672 58.6937C164.794 60.2391 165.126 61.4091 165.667 62.2037C166.235 62.9922 166.968 63.2797 167.867 63.0664C169.538 62.6702 170.825 60.8311 171.73 57.5492C172.616 54.1901 172.904 49.7923 172.591 44.3558L172.463 42.269L175.007 41.6655L175.998 59.0616C176.038 60.4907 176.508 61.0986 177.407 60.8853C177.819 60.7878 178.171 60.5006 178.465 60.0236C178.785 59.5406 178.993 59.0434 179.089 58.5321ZM212.561 50.5937L212.685 49.9129L213.395 49.9888C213.404 50.258 213.309 50.7694 213.107 51.5229C212.616 53.4581 211.6 54.6086 210.058 54.9743C209.158 55.1876 208.414 55.0248 207.824 54.4859C207.261 53.941 206.948 53.0242 206.887 51.7358L206.383 41.0244C206.286 39.4729 205.954 38.3029 205.387 37.5144C204.82 36.726 204.087 36.4384 203.188 36.6517C201.466 37.0601 200.169 39.0912 199.299 42.7452C198.429 46.2903 198.141 50.5119 198.434 55.41L198.553 57.4583L196.009 58.0617L195.165 43.6849C195.068 42.1334 194.736 40.9633 194.169 40.1749C193.602 39.3864 192.869 39.0988 191.97 39.3122C190.325 39.7023 189.044 41.5126 188.127 44.7432C187.218 47.8905 186.922 52.1953 187.24 57.6575L187.374 60.1096L184.83 60.713L183.646 40.2684L180.022 41.1277L179.991 40.4835C182.176 39.9654 183.995 39.4526 185.449 38.9448L185.851 39.0939C186.259 43.4488 186.522 46.6168 186.639 48.5978C186.98 45.3411 187.69 42.7294 188.771 40.7629C189.878 38.7903 191.254 37.609 192.898 37.2189C194.312 36.8837 195.429 37.2432 196.249 38.2974C197.088 39.3198 197.568 40.9432 197.689 43.1677L197.85 45.7355C198.209 42.5558 198.932 39.9956 200.019 38.0548C201.106 36.114 202.472 34.9485 204.116 34.5584C205.504 34.2293 206.634 34.5857 207.505 35.6277C208.371 36.6441 208.851 38.2675 208.945 40.4981L209.452 51.0462C209.53 52.5206 210.019 53.1512 210.918 52.9378C211.329 52.8403 211.682 52.5531 211.976 52.0762C212.296 51.5931 212.491 51.099 212.561 50.5937ZM229.114 32.6203C229.352 33.6226 229.228 34.5885 228.743 35.518C228.283 36.4413 227.588 37.2305 226.657 37.8855C225.669 38.527 224.619 39.0748 223.505 39.529C221.69 40.2309 219.812 40.7848 217.872 41.1905C217.897 42.3247 218.044 43.4573 218.312 44.5881C219.317 48.8285 221.298 50.5983 224.254 49.8974C226.387 49.3915 227.958 47.6616 228.968 44.7076L229.705 44.8991C228.511 48.7926 226.424 51.0929 223.442 51.7999C221.541 52.2509 219.914 51.9717 218.561 50.9623C217.209 49.9529 216.258 48.2918 215.71 45.9788C215.128 43.7551 215.092 41.4835 215.6 39.1641C216.129 36.8129 217.114 34.7876 218.557 33.0882C219.994 31.363 221.669 30.3006 223.583 29.901C225.022 29.5597 226.235 29.6384 227.222 30.1373C228.209 30.6362 228.84 31.4638 229.114 32.6203ZM223.312 30.8202C221.693 31.2042 220.382 32.3159 219.38 34.1552C218.397 35.9627 217.887 38.1059 217.851 40.5848C219.534 40.24 221.058 39.7428 222.424 39.0931C225.786 37.5899 227.205 35.5025 226.68 32.8311C226.26 31.0578 225.137 30.3875 223.312 30.8202ZM40.7199 106.051C43.4441 105.405 45.8765 106.104 48.0171 108.148C50.1516 110.166 51.7278 113.321 52.7457 117.613C53.4039 120.389 53.68 122.983 53.5739 125.397C53.4616 127.786 53.0114 129.779 52.2233 131.377C50.6409 134.549 48.539 136.445 45.9176 137.067C44.1443 137.487 42.5943 137.19 41.2677 136.174C39.9349 135.133 38.9913 133.443 38.4366 131.105C37.6199 127.661 37.8908 124.339 39.2493 121.139C40.6531 117.902 42.7428 115.954 45.5184 115.296C48.2683 114.644 50.3504 115.697 51.7649 118.456C49.4682 110.26 45.6728 106.79 40.3786 108.045C39.2478 108.314 38.4265 108.685 37.9146 109.159L37.7199 109.368C37.6759 109.297 37.6356 109.185 37.599 109.03C37.5503 108.825 37.5401 108.61 37.5684 108.386C37.5968 108.162 37.6991 107.907 37.8756 107.621C38.0459 107.309 38.3698 107.015 38.8473 106.739C39.3504 106.457 39.9746 106.228 40.7199 106.051ZM46.3039 136.12C47.6402 135.803 48.6849 134.714 49.4378 132.852C50.236 130.953 50.671 128.895 50.7427 126.679C50.8597 124.426 50.6957 122.361 50.2508 120.485C49.8485 118.789 49.2256 117.593 48.3819 116.897C47.5579 116.169 46.5676 115.943 45.4111 116.217C44.1005 116.528 43.0375 117.54 42.2223 119.254C41.4207 120.91 40.9356 122.87 40.7672 125.136C40.6319 127.313 40.7959 129.378 41.2591 131.331C41.6919 133.156 42.3453 134.48 43.2194 135.304C44.1192 136.122 45.1474 136.394 46.3039 136.12ZM76.8959 125.933L77.0195 125.252L77.7297 125.328C77.7467 125.514 77.6379 126.029 77.4035 126.871C76.9123 128.807 75.9343 129.948 74.4694 130.295C73.5957 130.503 72.8837 130.305 72.3337 129.703C71.7775 129.074 71.4536 128.052 71.3618 126.635L71.0436 121.173C70.6774 124.436 69.9409 127.053 68.8343 129.026C67.7534 130.992 66.3905 132.171 64.7458 132.561C63.3323 132.896 62.2057 132.552 61.366 131.53C60.5459 130.476 60.0757 128.836 59.9553 126.612L59.1599 112.956L55.6133 113.798L55.5441 113.162C58.1912 112.535 60.1004 112 61.2717 111.56L61.6258 111.679L62.4794 126.095C62.6016 127.64 62.9333 128.81 63.4747 129.605C64.0417 130.393 64.7749 130.681 65.6744 130.468C67.3449 130.071 68.6325 128.232 69.5372 124.95C70.4235 121.591 70.7107 117.193 70.3986 111.757L70.2701 109.67L72.8144 109.067L73.8048 126.463C73.8451 127.892 74.315 128.5 75.2145 128.286C75.6257 128.189 75.9784 127.902 76.2724 127.425C76.5922 126.942 76.8 126.445 76.8959 125.933ZM87.2766 115.572C88.1822 115.384 89.2069 115.413 90.3507 115.657C91.6927 115.936 92.5435 116.834 92.9031 118.35C93.3297 120.149 92.8491 122.014 91.4611 123.945C90.0609 125.824 88.063 127.072 85.4673 127.687C82.2805 128.443 80.4281 127.729 79.91 125.544C79.7576 124.902 79.796 124.377 80.0252 123.97C80.28 123.556 80.6388 123.295 81.1014 123.185L81.5052 123.171C81.573 123.915 81.6405 124.428 81.7075 124.711C81.8904 125.482 82.2801 126.095 82.8768 126.551C83.4674 126.981 84.3281 127.062 85.4589 126.793C87.2579 126.367 88.6022 125.396 89.4918 123.882C90.4207 122.305 90.7053 120.758 90.3457 119.242C90.0775 118.111 89.5007 117.338 88.6152 116.924C87.7297 116.51 86.866 116.416 86.024 116.643C85.2077 116.863 84.5003 117.086 83.9018 117.309L83.2738 117.58L83.0342 116.741C83.5996 116.607 84.3817 116.299 85.3805 115.818C86.1088 115.455 86.7607 115.056 87.3362 114.621C87.9251 114.129 88.3717 113.494 88.6758 112.716C88.9995 111.906 89.0639 111.09 88.8689 110.267C88.619 109.214 88.1027 108.468 87.32 108.029C86.5373 107.59 85.5806 107.505 84.4498 107.773C83.4475 108.011 82.5447 108.496 81.7414 109.23C80.9381 109.963 80.3942 110.703 80.1097 111.449L79.7234 112.396L78.9949 112.243C79.0773 111.789 79.3122 111.177 79.6995 110.406C80.7268 108.1 82.5549 106.594 85.1837 105.889C86.7 105.529 87.9736 105.634 89.0046 106.204C90.0551 106.742 90.7358 107.667 91.0467 108.977C91.4551 110.699 91.1105 112.165 90.0132 113.376C89.1301 114.345 88.218 115.077 87.2766 115.572ZM114.402 117.038L114.526 116.357L115.236 116.433C115.253 116.619 115.144 117.134 114.91 117.976C114.419 119.912 113.428 121.056 111.937 121.41C110.112 121.842 109.089 120.619 108.868 117.74L108.481 113.19C107.624 119.419 105.589 122.915 102.377 123.677C99.6269 124.329 97.7765 122.651 96.8257 118.641C96.2223 116.097 96.1786 113.624 96.6946 111.221C97.2181 108.735 98.2759 106.557 99.8682 104.686C101.506 102.778 103.545 101.534 105.987 100.955C106.552 100.821 107.299 100.766 108.228 100.79C108.71 100.649 109.312 100.384 110.034 99.9952L110.273 100.142L111.293 117.491C111.397 118.959 111.886 119.589 112.759 119.382C113.171 119.285 113.523 118.998 113.817 118.521C114.111 118.044 114.306 117.55 114.402 117.038ZM103.122 121.668C104.869 121.253 106.156 119.523 106.981 116.477C107.831 113.425 108.14 109.348 107.907 104.246L107.768 101.428C107.416 101.431 107.034 101.48 106.623 101.578C104.516 102.078 102.804 103.217 101.488 104.994C100.244 106.728 99.4541 108.721 99.1193 110.972C98.8041 113.191 98.9269 115.483 99.4876 117.847C100.189 120.803 101.4 122.076 103.122 121.668ZM125.719 92.8145C124.228 93.168 123.022 93.006 122.102 92.3286C121.175 91.6255 120.557 90.5097 120.249 88.9812L121.9 88.3862C122.442 91.2436 123.689 92.4407 125.642 91.9775C127.544 91.5265 128.622 89.7778 128.877 86.7314L130.542 86.5401C130.433 88.1404 129.968 89.4994 129.147 90.617C128.326 91.7346 127.184 92.4671 125.719 92.8145ZM136.415 111.818L136.538 111.137L137.248 111.213C137.265 111.399 137.157 111.913 136.922 112.756C136.431 114.691 135.453 115.832 133.988 116.18C133.114 116.387 132.402 116.19 131.852 115.587C131.296 114.959 130.972 113.936 130.881 112.519L130.562 107.057C130.196 110.32 129.46 112.938 128.353 114.91C127.272 116.877 125.909 118.055 124.265 118.445C122.851 118.78 121.724 118.437 120.885 117.415C120.065 116.36 119.594 114.721 119.474 112.496L118.679 98.841L115.132 99.6821L115.063 99.047C117.71 98.4192 119.619 97.885 120.79 97.4443L121.145 97.5639L121.998 111.979C122.12 113.525 122.452 114.695 122.993 115.489C123.56 116.278 124.294 116.565 125.193 116.352C126.864 115.956 128.151 114.117 129.056 110.835C129.942 107.476 130.229 103.078 129.917 97.6414L129.789 95.5545L132.333 94.9511L133.324 112.347C133.364 113.776 133.834 114.384 134.733 114.171C135.144 114.073 135.497 113.786 135.791 113.309C136.111 112.826 136.319 112.329 136.415 111.818ZM158.631 106.549L158.754 105.868L159.464 105.944C159.481 106.13 159.373 106.644 159.138 107.487C158.647 109.422 157.656 110.567 156.165 110.92C155.317 111.121 154.615 110.962 154.057 110.443C153.494 109.898 153.172 108.943 153.092 107.577L152.686 100.711L144.05 102.759L144.623 113.413L142.079 114.017L140.972 93.5539L137.348 94.4133L137.317 93.7691C139.656 93.2145 141.591 92.6742 143.122 92.1482L143.524 92.2972L144.031 101.99L152.666 99.942L152.082 90.2675L154.626 89.6641L155.618 106.897C155.709 108.423 156.165 109.088 156.988 108.893C157.399 108.796 157.752 108.508 158.046 108.031C158.34 107.554 158.535 107.06 158.631 106.549ZM171.656 96.5378L161.556 98.9332L161.511 97.8852L171.611 95.4898L171.656 96.5378ZM195.149 97.8882L195.273 97.2074L195.983 97.2832C195.993 97.5524 195.897 98.0638 195.695 98.8173C195.204 100.753 194.2 101.9 192.684 102.26C191.733 102.485 190.979 102.338 190.422 101.819C189.858 101.274 189.543 100.344 189.475 99.0302L188.971 88.3188C188.906 86.7869 188.59 85.6267 188.023 84.8382C187.45 84.0241 186.701 83.7267 185.776 83.9461C184.08 84.3484 182.797 86.3221 181.927 89.8671C181.084 93.4061 180.777 97.5506 181.008 102.301L181.142 104.753L178.597 105.356L177.413 84.9114L173.789 85.7708L173.759 85.1266C175.918 84.6146 177.75 84.0987 179.255 83.5788L179.657 83.7278C180.021 88.0118 180.276 91.3174 180.421 93.6447C180.763 90.279 181.478 87.5714 182.566 85.5217C183.68 83.4659 185.06 82.2429 186.704 81.8528C188.118 81.5176 189.251 81.8869 190.102 82.9607C190.974 84.0027 191.451 85.6133 191.533 87.7925L192.04 98.3406C192.118 99.815 192.607 100.446 193.506 100.232C193.918 100.135 194.27 99.8475 194.564 99.3706C194.884 98.8876 195.079 98.3934 195.149 97.8882ZM205.065 99.3232C204.526 99.4512 203.958 99.518 203.362 99.5236L203.714 106.159L207.338 105.299L207.359 105.905C204.949 106.504 203.046 107.118 201.648 107.748L201.255 107.638L199.624 79.6438L196.001 80.5032L195.97 79.859C198.155 79.3409 199.974 78.828 201.428 78.3203L201.83 78.4693C202.048 80.5348 202.284 83.5327 202.538 87.463C203.34 81.0022 205.386 77.3817 208.675 76.6015C211.425 75.9493 213.276 77.6278 214.226 81.637C214.824 84.1556 214.87 86.6419 214.367 89.0959C213.843 91.5817 212.772 93.7629 211.154 95.6396C209.537 97.5163 207.507 98.7442 205.065 99.3232ZM207.93 78.6105C206.234 79.0128 204.961 80.6855 204.112 83.6286C203.282 86.5399 202.947 90.447 203.105 95.3499L203.322 98.8408C203.649 98.8448 204.018 98.798 204.429 98.7005C206.536 98.2007 208.235 97.0649 209.525 95.2931C210.801 93.5789 211.594 91.5993 211.903 89.3543C212.238 87.1033 212.125 84.7956 211.564 82.4312C210.863 79.4757 209.652 78.2021 207.93 78.6105ZM226.656 94.2029C224.831 94.6356 223.255 94.3442 221.929 93.3287C220.602 92.3132 219.661 90.6362 219.107 88.2975C218.284 84.828 218.565 81.4904 219.949 78.2847C221.353 75.0472 223.468 73.0933 226.295 72.4228C228.094 71.9962 229.657 72.2906 230.983 73.3061C232.336 74.3155 233.289 75.9895 233.844 78.3282C234.413 80.5005 234.473 82.7531 234.021 85.086C233.59 87.3871 232.707 89.3881 231.373 91.0888C230.039 92.7896 228.467 93.8276 226.656 94.2029ZM226.965 93.2745C228.224 92.9758 229.248 91.9728 230.038 90.2654C230.84 88.6094 231.325 86.6485 231.493 84.3827C231.654 82.2 231.497 80.1064 231.021 78.1018C230.601 76.3285 229.941 75.0328 229.041 74.2147C228.167 73.3905 227.151 73.1155 225.995 73.3898C224.71 73.6945 223.66 74.7036 222.845 76.4171C222.075 78.0927 221.603 80.0505 221.428 82.2907C221.293 84.4673 221.46 86.545 221.929 88.5239C222.356 90.3229 223.006 91.6345 223.88 92.4587C224.78 93.2768 225.808 93.5487 226.965 93.2745ZM251.982 70.3619C252.22 71.3642 252.096 72.3301 251.611 73.2595C251.151 74.1829 250.456 74.9721 249.526 75.6271C248.538 76.2686 247.487 76.8164 246.373 77.2706C244.558 77.9725 242.68 78.5263 240.741 78.9321C240.765 80.0663 240.912 81.1988 241.18 82.3296C242.186 86.5701 244.166 88.3399 247.122 87.639C249.255 87.1331 250.826 85.4032 251.836 82.4492L252.573 82.6407C251.379 86.5342 249.292 88.8345 246.311 89.5415C244.409 89.9925 242.782 89.7133 241.429 88.7039C240.077 87.6945 239.127 86.0333 238.578 83.7203C237.996 81.4966 237.96 79.2251 238.468 76.9057C238.997 74.5545 239.982 72.5292 241.425 70.8297C242.862 69.1046 244.537 68.0422 246.451 67.6426C247.89 67.3012 249.103 67.38 250.09 67.8789C251.077 68.3777 251.708 69.2054 251.982 70.3619ZM246.18 68.5618C244.561 68.9458 243.251 70.0575 242.248 71.8968C241.265 73.7043 240.756 75.8475 240.719 78.3264C242.402 77.9816 243.926 77.4844 245.292 76.8347C248.655 75.3314 250.073 73.2441 249.548 70.5726C249.128 68.7994 248.005 68.1291 246.18 68.5618ZM259.737 64.736L260.952 85.8249L258.407 86.4283L257.223 65.9836L253.6 66.843L253.569 66.1988C255.908 65.6441 257.83 65.1069 259.335 64.587L259.737 64.736ZM266.544 62.8773C267.623 62.6213 268.551 62.6999 269.328 63.1129C270.124 63.4941 270.638 64.173 270.87 65.1496C271.071 65.9977 270.977 66.8614 270.588 67.7408C270.2 68.6202 269.626 69.4077 268.868 70.1032C268.13 70.7669 267.409 71.3316 266.705 71.7971C266.027 72.2566 265.369 72.6298 264.731 72.9168L263.929 73.3106L265.512 73.4644L270.238 79.9986C270.653 80.6059 271.026 81.0332 271.356 81.2807C271.687 81.5281 272.057 81.6031 272.468 81.5056C272.905 81.4019 273.255 81.1019 273.517 80.6053C273.805 80.1027 273.968 79.589 274.007 79.0641L274.083 78.3539L274.793 78.4298C274.807 78.8336 274.756 79.3615 274.639 80.0135C274.263 81.9758 273.317 83.1367 271.8 83.4963C270.31 83.8498 268.993 83.049 267.851 81.094L262.563 73.3902C262.64 73.3719 263.063 73.0951 263.832 72.5599C264.769 71.9306 265.56 71.3764 266.206 70.8974C266.969 70.3364 267.625 69.6108 268.174 68.7206C268.743 67.7985 268.935 66.952 268.753 66.181C268.594 65.5128 268.254 65.0506 267.732 64.7945C267.229 64.5065 266.644 64.4417 265.975 64.6002C265.359 64.7465 264.846 65.0446 264.437 65.4945C264.053 65.9383 263.865 66.4037 263.872 66.8906C263.648 66.8623 263.49 66.6554 263.399 66.2699C263.234 65.576 263.454 64.8996 264.058 64.2406C264.662 63.5817 265.49 63.1272 266.544 62.8773ZM307.145 71.3271L307.269 70.6463L307.979 70.7222C307.989 70.9913 307.893 71.5027 307.692 72.2562C307.2 74.1914 306.184 75.3419 304.642 75.7076C303.742 75.9209 302.998 75.7581 302.409 75.2193C301.845 74.6743 301.533 73.7576 301.471 72.4691L300.967 61.7578C300.871 60.2062 300.539 59.0362 299.972 58.2477C299.405 57.4593 298.671 57.1717 297.772 57.385C296.05 57.7934 294.754 59.8246 293.883 63.4785C293.014 67.0236 292.725 71.2452 293.018 76.1433L293.138 78.1916L290.593 78.795L289.749 64.4182C289.653 62.8667 289.321 61.6967 288.754 60.9082C288.187 60.1197 287.453 59.8322 286.554 60.0455C284.909 60.4356 283.628 62.2459 282.711 65.4765C281.802 68.6239 281.506 72.9286 281.825 78.3908L281.958 80.8429L279.414 81.4463L278.23 61.0017L274.606 61.8611L274.576 61.2168C276.76 60.6988 278.579 60.1859 280.033 59.6782L280.435 59.8272C280.844 64.1821 281.106 67.3501 281.223 69.3312C281.564 66.0744 282.275 63.4627 283.356 61.4962C284.462 59.5236 285.838 58.3423 287.483 57.9522C288.896 57.617 290.013 57.9765 290.833 59.0307C291.673 60.0531 292.153 61.6765 292.273 63.9011L292.434 66.4688C292.793 63.2891 293.516 60.7289 294.603 58.7881C295.69 56.8473 297.056 55.6818 298.701 55.2918C300.088 54.9626 301.218 55.3191 302.089 56.3611C302.955 57.3774 303.435 59.0008 303.53 61.2314L304.036 71.7795C304.114 73.2539 304.603 73.8845 305.503 73.6712C305.914 73.5736 306.266 73.2864 306.56 72.8095C306.88 72.3265 307.075 71.8323 307.145 71.3271ZM56.595 165.606C57.8543 165.308 59.0227 165.37 60.1003 165.793C61.1974 166.184 61.935 167.177 62.3129 168.77C62.8066 170.852 62.3797 172.772 61.0322 174.53C59.7044 176.256 57.9225 177.385 55.6866 177.915C53.7334 178.378 52.0928 178.156 50.7649 177.25C49.4626 176.337 48.5402 174.737 47.9978 172.45C47.4797 170.265 47.4205 168.013 47.8202 165.692C48.2456 163.365 49.1419 161.307 50.5089 159.517C51.8442 157.707 53.5398 156.559 55.5958 156.071C57.0093 155.736 58.1936 155.808 59.1488 156.287C60.1297 156.76 60.7542 157.562 61.0224 158.693C61.6136 161.186 60.1378 163.49 56.595 165.606ZM55.4703 156.915C53.8255 157.305 52.5005 158.529 51.4954 160.586C50.4707 162.675 50.028 165.101 50.1675 167.864L52.4753 166.95C53.8462 166.435 55.2497 165.6 56.6859 164.445C57.521 163.731 58.1237 162.896 58.4941 161.939C58.8841 160.951 58.9541 159.93 58.7042 158.876C58.2958 157.154 57.2179 156.501 55.4703 156.915ZM56.2382 176.807C57.7031 176.459 58.7542 175.627 59.3916 174.308C60.0487 172.958 60.1699 171.409 59.7555 169.661C59.4324 168.299 58.9022 167.38 58.1649 166.903C57.4275 166.427 56.442 166.335 55.2084 166.627C54.6687 166.755 53.9735 167.029 53.1228 167.448L52.8032 167.646L50.2053 168.71C50.3328 169.82 50.488 170.76 50.6708 171.531C51.6582 175.694 53.514 177.453 56.2382 176.807ZM93.9728 165.048L94.0964 164.367L94.8066 164.443C94.8162 164.712 94.7203 165.224 94.5189 165.977C94.0278 167.913 93.0241 169.06 91.5078 169.42C90.5569 169.645 89.8027 169.498 89.2452 168.979C88.6817 168.434 88.3662 167.504 88.2989 166.19L87.7944 155.479C87.7297 153.947 87.4139 152.787 86.8468 151.998C86.2737 151.184 85.5245 150.887 84.5993 151.106C82.9032 151.508 81.6204 153.482 80.7509 157.027C79.9072 160.566 79.6007 164.711 79.8315 169.461L79.9651 171.913L77.4208 172.516L76.2368 152.071L72.6131 152.931L72.5825 152.287C74.7413 151.775 76.5734 151.259 78.0788 150.739L78.4806 150.888C78.8451 155.172 79.0997 158.477 79.2445 160.805C79.5864 157.439 80.3015 154.731 81.3898 152.682C82.5038 150.626 83.8832 149.403 85.528 149.013C86.9415 148.678 88.0742 149.047 88.9261 150.121C89.7975 151.163 90.2745 152.773 90.357 154.953L90.8634 165.501C90.9416 166.975 91.4305 167.606 92.33 167.392C92.7412 167.295 93.0938 167.008 93.3879 166.531C93.7077 166.048 93.9026 165.553 93.9728 165.048ZM104.698 166.291C102.874 166.724 101.298 166.433 99.9714 165.417C98.6448 164.402 97.7042 162.725 97.1495 160.386C96.3267 156.916 96.6074 153.579 97.9916 150.373C99.3954 147.136 101.511 145.182 104.338 144.511C106.137 144.085 107.7 144.379 109.026 145.394C110.379 146.404 111.332 148.078 111.887 150.417C112.456 152.589 112.515 154.842 112.064 157.174C111.633 159.476 110.75 161.476 109.416 163.177C108.082 164.878 106.51 165.916 104.698 166.291ZM105.008 165.363C106.267 165.064 107.291 164.061 108.081 162.354C108.882 160.698 109.367 158.737 109.536 156.471C109.697 154.288 109.54 152.195 109.064 150.19C108.644 148.417 107.984 147.121 107.084 146.303C106.21 145.479 105.194 145.204 104.038 145.478C102.753 145.783 101.703 146.792 100.888 148.505C100.118 150.181 99.6455 152.139 99.471 154.379C99.3357 156.556 99.5027 158.633 99.972 160.612C100.399 162.411 101.049 163.723 101.923 164.547C102.823 165.365 103.851 165.637 105.008 165.363ZM119.079 130.632C121.803 129.986 124.235 130.685 126.376 132.729C128.51 134.747 130.087 137.902 131.104 142.194C131.763 144.97 132.039 147.565 131.933 149.979C131.82 152.367 131.37 154.36 130.582 155.959C129 159.13 126.898 161.026 124.276 161.648C122.503 162.069 120.953 161.771 119.626 160.756C118.294 159.715 117.35 158.025 116.795 155.686C115.979 152.242 116.25 148.92 117.608 145.721C119.012 142.483 121.102 140.536 123.877 139.877C126.627 139.225 128.709 140.279 130.124 143.038C127.827 134.842 124.031 131.371 118.737 132.627C117.607 132.895 116.785 133.266 116.273 133.741L116.079 133.95C116.035 133.879 115.994 133.766 115.958 133.612C115.909 133.406 115.899 133.191 115.927 132.968C115.955 132.744 116.058 132.489 116.234 132.203C116.405 131.891 116.729 131.597 117.206 131.321C117.709 131.038 118.333 130.809 119.079 130.632ZM124.663 160.701C125.999 160.385 127.044 159.295 127.797 157.434C128.595 155.534 129.03 153.477 129.101 151.261C129.218 149.007 129.054 146.942 128.61 145.066C128.207 143.37 127.584 142.174 126.741 141.478C125.917 140.751 124.926 140.524 123.77 140.799C122.459 141.109 121.396 142.122 120.581 143.835C119.779 145.491 119.294 147.452 119.126 149.718C118.991 151.894 119.155 153.959 119.618 155.912C120.051 157.737 120.704 159.061 121.578 159.886C122.478 160.704 123.506 160.976 124.663 160.701ZM154.098 150.789L154.222 150.108L154.932 150.184C154.949 150.37 154.84 150.884 154.606 151.727C154.115 153.662 153.124 154.807 151.633 155.16C149.808 155.593 148.785 154.37 148.564 151.491L148.177 146.94C147.32 153.17 145.285 156.666 142.073 157.428C139.323 158.08 137.473 156.401 136.522 152.392C135.918 149.848 135.875 147.374 136.391 144.972C136.914 142.486 137.972 140.308 139.564 138.437C141.202 136.529 143.241 135.285 145.683 134.706C146.248 134.572 146.995 134.517 147.924 134.541C148.406 134.399 149.008 134.134 149.731 133.746L149.969 133.893L150.989 151.241C151.093 152.71 151.582 153.34 152.455 153.133C152.867 153.035 153.219 152.748 153.513 152.271C153.807 151.794 154.002 151.3 154.098 150.789ZM142.818 155.419C144.565 155.004 145.852 153.274 146.677 150.228C147.527 147.176 147.836 143.099 147.603 137.996L147.464 135.179C147.112 135.181 146.73 135.231 146.319 135.329C144.212 135.828 142.5 136.967 141.185 138.745C139.94 140.479 139.15 142.471 138.815 144.722C138.5 146.942 138.623 149.233 139.184 151.598C139.885 154.553 141.096 155.827 142.818 155.419ZM164.085 152.207C163.546 152.335 162.978 152.402 162.382 152.407L162.734 159.042L166.358 158.183L166.379 158.789C163.969 159.387 162.066 160.002 160.668 160.632L160.275 160.521L158.644 132.528L155.021 133.387L154.99 132.743C157.175 132.225 158.994 131.712 160.448 131.204L160.85 131.353C161.068 133.419 161.304 136.417 161.558 140.347C162.36 133.886 164.406 130.265 167.695 129.485C170.445 128.833 172.296 130.512 173.246 134.521C173.844 137.039 173.89 139.526 173.387 141.98C172.863 144.465 171.792 146.647 170.174 148.523C168.557 150.4 166.527 151.628 164.085 152.207ZM166.95 131.494C165.254 131.897 163.981 133.569 163.132 136.512C162.302 139.424 161.967 143.331 162.125 148.234L162.342 151.725C162.669 151.729 163.038 151.682 163.449 151.584C165.556 151.085 167.255 149.949 168.545 148.177C169.821 146.463 170.614 144.483 170.923 142.238C171.258 139.987 171.145 137.679 170.584 135.315C169.884 132.36 168.672 131.086 166.95 131.494ZM185.676 147.087C183.851 147.519 182.275 147.228 180.949 146.213C179.622 145.197 178.681 143.52 178.127 141.181C177.304 137.712 177.585 134.374 178.969 131.169C180.373 127.931 182.488 125.977 185.315 125.307C187.114 124.88 188.677 125.174 190.003 126.19C191.356 127.199 192.309 128.873 192.864 131.212C193.433 133.384 193.493 135.637 193.041 137.97C192.61 140.271 191.727 142.272 190.393 143.973C189.059 145.673 187.487 146.711 185.676 147.087ZM185.985 146.158C187.244 145.86 188.268 144.857 189.058 143.149C189.86 141.493 190.345 139.532 190.513 137.267C190.674 135.084 190.517 132.99 190.041 130.986C189.621 129.212 188.961 127.917 188.061 127.099C187.187 126.274 186.171 125.999 185.015 126.274C183.73 126.578 182.68 127.587 181.865 129.301C181.095 130.976 180.623 132.934 180.448 135.175C180.313 137.351 180.48 139.429 180.949 141.408C181.376 143.207 182.026 144.518 182.9 145.343C183.8 146.161 184.828 146.433 185.985 146.158ZM201.44 121.727L202.654 142.816L200.11 143.419L198.926 122.974L195.302 123.834L195.272 123.19C197.61 122.635 199.532 122.098 201.038 121.578L201.44 121.727ZM208.247 119.868C209.326 119.612 210.254 119.691 211.031 120.104C211.827 120.485 212.341 121.164 212.572 122.14C212.773 122.989 212.68 123.852 212.291 124.732C211.902 125.611 211.329 126.398 210.571 127.094C209.833 127.758 209.112 128.322 208.408 128.788C207.729 129.247 207.071 129.621 206.434 129.908L205.631 130.301L207.215 130.455L211.941 136.989C212.356 137.597 212.729 138.024 213.059 138.271C213.389 138.519 213.76 138.594 214.171 138.496C214.608 138.393 214.958 138.093 215.22 137.596C215.508 137.094 215.671 136.58 215.709 136.055L215.785 135.345L216.496 135.421C216.51 135.824 216.459 136.352 216.342 137.004C215.966 138.967 215.019 140.127 213.503 140.487C212.013 140.841 210.696 140.04 209.554 138.085L204.266 130.381C204.343 130.363 204.766 130.086 205.535 129.551C206.471 128.921 207.263 128.367 207.909 127.888C208.672 127.327 209.328 126.602 209.877 125.711C210.445 124.789 210.638 123.943 210.455 123.172C210.297 122.504 209.956 122.041 209.434 121.785C208.932 121.497 208.346 121.433 207.678 121.591C207.061 121.737 206.548 122.035 206.139 122.485C205.756 122.929 205.568 123.394 205.575 123.881C205.351 123.853 205.193 123.646 205.102 123.261C204.937 122.567 205.157 121.89 205.76 121.231C206.364 120.572 207.193 120.118 208.247 119.868Z" fill="url(#paint0_linear)"/>
<g opacity="0.8">
<mask id="mask0" mask-type="alpha" maskUnits="userSpaceOnUse" x="0" y="41" width="46" height="48">
<path d="M35.1274 48.4054L30.8008 49.3916C31.2204 48.5406 31.3623 47.5464 31.1356 46.5515C30.7722 44.9572 29.5592 43.7273 27.9701 43.3419C26.3809 42.9565 24.7393 43.4942 23.686 44.7449L21.0548 47.8693C20.3368 47.5243 19.5023 47.4094 18.667 47.5998C17.8317 47.7901 17.1294 48.2553 16.6319 48.8774L12.9067 47.2019C11.4153 46.5311 9.70293 46.758 8.43775 47.7939C7.1726 48.8299 6.61236 50.4638 6.97577 52.0582C7.20254 53.0531 7.76134 53.8876 8.50816 54.4727L4.18164 55.4589C2.73122 55.7895 1.82021 57.2384 2.1508 58.6888L3.20881 63.3306C3.52756 64.7291 4.88593 65.6257 6.28288 65.3918L10.7629 85.0473C11.1713 86.839 12.9612 87.9644 14.7528 87.556L39.5094 81.9132C41.3011 81.5049 42.4265 79.715 42.0181 77.9233L40.7661 72.4305C40.6687 72.0033 40.2434 71.7358 39.8161 71.8332C39.3889 71.9306 39.1215 72.3559 39.2188 72.7831L40.4708 78.276C40.6847 79.2145 40.0952 80.152 39.1567 80.366L30.3372 82.3762L25.4703 61.0236L35.9919 58.6255L37.6318 65.8204C37.7292 66.2476 38.1545 66.5151 38.5818 66.4177C39.0091 66.3203 39.2765 65.8949 39.1791 65.4677L37.5381 58.2679C38.8984 57.8732 39.734 56.4765 39.4153 55.0781L38.3573 50.4363C38.0267 48.9859 36.5777 48.0749 35.1274 48.4054ZM24.8998 45.7672C25.5728 44.9681 26.5807 44.6379 27.5961 44.8843C28.6114 45.1305 29.3561 45.8856 29.5883 46.9042C29.9185 48.3529 29.0085 49.8001 27.5598 50.1303L23.2133 51.121L23.0369 50.3474C22.9074 49.7791 22.6504 49.2727 22.3038 48.8498L24.8998 45.7672ZM17.9957 53.9379L22.0186 53.021L23.5704 59.829L19.5475 60.746L17.9957 53.9379ZM19.0197 49.147C20.1288 48.8942 21.2368 49.5909 21.4896 50.7L21.666 51.4737L17.643 52.3906L17.4667 51.617C17.2139 50.5078 17.9105 49.3999 19.0197 49.147ZM8.52306 51.7055C8.29088 50.6869 8.6349 49.6836 9.44317 49.0218C10.2515 48.3599 11.3029 48.2207 12.2556 48.6492L15.9312 50.3024C15.802 50.8336 15.7899 51.4014 15.9194 51.9696L16.0957 52.7432L11.7492 53.7339C10.3005 54.0642 8.85325 53.1542 8.52306 51.7055ZM4.7561 62.978L3.69809 58.3361C3.56195 57.7389 3.93706 57.1423 4.53432 57.0061L16.4484 54.2906L18.0002 61.0986L6.70498 63.6731L6.08607 63.8142C5.48882 63.9503 4.89221 63.5751 4.7561 62.978ZM12.3102 84.6946L7.83129 65.0441L18.3528 62.6459L23.2197 83.9985L14.4002 86.0087C13.4617 86.2226 12.5241 85.6331 12.3102 84.6946ZM24.767 83.6458L19.9001 62.2933L23.9231 61.3763L28.7899 82.7289L24.767 83.6458ZM37.868 55.4308C38.0041 56.0281 37.629 56.6247 37.0318 56.7608L36.4129 56.9019L25.1177 59.4764L23.5659 52.6683L35.48 49.9527C36.0773 49.8166 36.6739 50.1917 36.81 50.789L37.868 55.4308Z" fill="black"/>
<path d="M39.0227 68.3518C38.8192 68.3982 38.6384 68.5263 38.5274 68.7031C38.4163 68.8798 38.379 69.0983 38.4254 69.3018C38.4717 69.5052 38.6 69.686 38.7767 69.797C38.9534 69.9081 39.1719 69.9454 39.3753 69.8991C39.5788 69.8527 39.7595 69.7244 39.8706 69.5476C39.9817 69.371 40.019 69.1525 39.9726 68.9491C39.9263 68.7456 39.798 68.5649 39.6213 68.4538C39.4446 68.3427 39.2261 68.3054 39.0227 68.3518Z" fill="black"/>
</mask>
<g mask="url(#mask0)">
<rect width="20.5503" height="24" transform="matrix(-0.974994 0.222229 0.222229 0.974994 13 66.1114)" fill="#FFC985"/>
<rect x="47.6372" y="58.2166" width="56.0758" height="22.0155" transform="rotate(167.16 47.6372 58.2166)" fill="#FFC985"/>
</g>
</g>
<defs>
<linearGradient id="paint0_linear" x1="159.412" y1="32.8258" x2="169.164" y2="73.9456" gradientUnits="userSpaceOnUse">
<stop stop-color="white" stop-opacity="0.35"/>
<stop offset="1" stop-color="white" stop-opacity="0"/>
</linearGradient>
</defs>
</svg>
