<svg width="14" height="14" viewBox="0 0 14 14" fill="none" xmlns="http://www.w3.org/2000/svg">
<path d="M13.7777 6.32842L7.3027 0.121688C7.13362 -0.0405625 6.86638 -0.0405625 6.6973 0.121688L0.215866 6.33483C0.0787201 6.47198 0 6.66093 0 6.85405C0 7.25599 0.327271 7.58327 0.729202 7.58327H1.75V13.125C1.75 13.608 2.142 14 2.625 14H5.1042C5.3457 14 5.5417 13.804 5.5417 13.5625V9.77082C5.5417 9.69081 5.60696 9.62491 5.6875 9.62491H8.3125C8.3924 9.62491 8.4583 9.69081 8.4583 9.77082V13.5625C8.4583 13.804 8.6543 14 8.8958 14H11.375C11.858 14 12.25 13.608 12.25 13.125V7.58327H13.2708C13.6727 7.58327 14 7.25599 14 6.85405C14 6.66093 13.9213 6.47198 13.7777 6.32842Z" fill="#FFB960"/>
</svg>
