<svg width="35" height="35" viewBox="0 0 35 35" fill="none" xmlns="http://www.w3.org/2000/svg">
<circle cx="17.5" cy="17.5" r="17.5" fill="#FFB960"/>
<path d="M11.7668 10V26.0781H21.4769L24.0976 23.4589V10H11.7668ZM23.1555 22.4564H20.4758V25.1361H12.7089V10.9421H23.1555V22.4564ZM21.4179 23.3985H22.8254L21.4179 24.8051V23.3985Z" fill="#C6914F"/>
<path d="M21.2818 14.8259V13.8838H19.3077C19.3723 13.7181 19.4081 13.5382 19.4081 13.3499C19.4081 12.5361 18.746 11.874 17.9321 11.874C17.1183 11.874 16.4562 12.5361 16.4562 13.3499C16.4562 13.5382 16.492 13.7181 16.5566 13.8838H14.5825V14.8259H21.2818ZM17.3983 13.3499C17.3983 13.0556 17.6378 12.8161 17.9321 12.8161C18.2265 12.8161 18.466 13.0556 18.466 13.3499C18.466 13.6443 18.2265 13.8838 17.9321 13.8838C17.6378 13.8838 17.3983 13.6443 17.3983 13.3499Z" fill="#C6914F"/>
<path d="M14.5825 16.228H21.2818V17.1701H14.5825V16.228Z" fill="#C6914F"/>
<path d="M14.5825 18.2378H21.2818V19.1799H14.5825V18.2378Z" fill="#C6914F"/>
<path d="M14.5825 20.2476H17.9321V21.1896H14.5825V20.2476Z" fill="#C6914F"/>
<path d="M16.9272 22.4565H18.937V23.3986H16.9272V22.4565Z" fill="#C6914F"/>
</svg>
