<svg width="40" height="33" viewBox="0 0 40 33" fill="none" xmlns="http://www.w3.org/2000/svg">
<path d="M33.4373 17.1722H29.6025C29.0806 17.1722 28.5753 17.2435 28.0944 17.3747C27.1457 15.5098 25.209 14.2285 22.9772 14.2285H16.1987C13.967 14.2285 12.0302 15.5098 11.0816 17.3747C10.6007 17.2435 10.0954 17.1722 9.57347 17.1722H5.73867C2.57437 17.1722 0 19.7466 0 22.9109V29.0412C0 30.9397 1.54462 32.4844 3.4432 32.4844H35.7328C37.6313 32.4844 39.176 30.9397 39.176 29.0412V22.9109C39.176 19.7466 36.6016 17.1722 33.4373 17.1722ZM10.4601 19.9673V30.189H3.4432C2.81034 30.189 2.29547 29.6741 2.29547 29.0412V22.911C2.29547 21.0124 3.84009 19.4678 5.73867 19.4678H9.57347C9.88505 19.4678 10.1867 19.5101 10.474 19.588C10.4657 19.7136 10.4601 19.8399 10.4601 19.9673ZM26.4204 30.189H12.7555V19.9673C12.7555 18.0687 14.3001 16.5241 16.1987 16.5241H22.9772C24.8758 16.5241 26.4204 18.0687 26.4204 19.9673V30.189ZM36.8805 29.0412C36.8805 29.6741 36.3656 30.189 35.7328 30.189H28.7159V19.9673C28.7159 19.8397 28.7102 19.7135 28.702 19.588C28.9892 19.5101 29.2909 19.4677 29.6025 19.4677H33.4373C35.3359 19.4677 36.8805 21.0123 36.8805 22.9109V29.0412Z" fill="#C8C8C8"/>
<path d="M7.6561 6.33301C4.84423 6.33301 2.55664 8.62059 2.55664 11.4325C2.55656 14.2443 4.84423 16.5319 7.6561 16.5319C10.4679 16.5319 12.7556 14.2443 12.7556 11.4325C12.7556 8.62059 10.468 6.33301 7.6561 6.33301ZM7.65602 14.2365C6.10987 14.2365 4.85203 12.9786 4.85203 11.4325C4.85203 9.88631 6.10987 8.62847 7.65602 8.62847C9.20217 8.62847 10.46 9.88631 10.46 11.4325C10.46 12.9786 9.20217 14.2365 7.65602 14.2365Z" fill="#C8C8C8"/>
<path d="M19.5879 0C15.8313 0 12.7751 3.05618 12.7751 6.81279C12.7751 10.5694 15.8313 13.6256 19.5879 13.6256C23.3445 13.6256 26.4007 10.5694 26.4007 6.81279C26.4007 3.05626 23.3445 0 19.5879 0ZM19.5879 11.3301C17.0971 11.3301 15.0706 9.30368 15.0706 6.81279C15.0706 4.32198 17.0971 2.29547 19.5879 2.29547C22.0788 2.29547 24.1053 4.3219 24.1053 6.81279C24.1053 9.30368 22.0788 11.3301 19.5879 11.3301Z" fill="#C8C8C8"/>
<path d="M31.5199 6.33301C28.7081 6.33301 26.4204 8.62059 26.4204 11.4325C26.4205 14.2443 28.7081 16.5319 31.5199 16.5319C34.3317 16.5319 36.6193 14.2443 36.6193 11.4325C36.6193 8.62059 34.3317 6.33301 31.5199 6.33301ZM31.5199 14.2365C29.9738 14.2365 28.7159 12.9786 28.7159 11.4325C28.716 9.88631 29.9738 8.62847 31.5199 8.62847C33.066 8.62847 34.3239 9.88631 34.3239 11.4325C34.3239 12.9786 33.066 14.2365 31.5199 14.2365Z" fill="#C8C8C8"/>
</svg>
