<svg width="20" height="27" viewBox="0 0 20 27" fill="none" xmlns="http://www.w3.org/2000/svg">
<path d="M0 0.696106V26.7742H15.7493L20 22.5259V0.696106H0ZM18.472 20.8999H14.1256V25.2462H1.52802V2.22412H18.472V20.8999ZM15.6537 22.4279H17.9365L15.6537 24.7095V22.4279Z" fill="#FFB960"/>
<path d="M15.4331 8.52295V6.99494H12.2313C12.3359 6.72621 12.394 6.43436 12.394 6.12906C12.394 4.80906 11.3201 3.73517 10.0001 3.73517C8.6801 3.73517 7.60621 4.80906 7.60621 6.12906C7.60621 6.43436 7.66428 6.72621 7.76894 6.99494H4.56714V8.52295H15.4331ZM9.13423 6.12906C9.13423 5.65161 9.52265 5.26318 10.0001 5.26318C10.4776 5.26318 10.866 5.65161 10.866 6.12906C10.866 6.60651 10.4776 6.99494 10.0001 6.99494C9.52265 6.99494 9.13423 6.60646 9.13423 6.12906Z" fill="#FFB960"/>
<path d="M4.56714 10.798H15.4331V12.326H4.56714V10.798Z" fill="#FFB960"/>
<path d="M4.56714 14.0577H15.4331V15.5858H4.56714V14.0577Z" fill="#FFB960"/>
<path d="M4.56714 17.3176H10.0001V18.8456H4.56714V17.3176Z" fill="#FFB960"/>
<path d="M8.37012 20.8999H11.6299V22.4279H8.37012V20.8999Z" fill="#FFB960"/>
</svg>
