<svg width="22" height="28" viewBox="0 0 22 28" fill="none" xmlns="http://www.w3.org/2000/svg">
<path d="M9.41268 0.153625H0.855698C0.383085 0.153625 0 0.536711 0 1.00932V26.6803C0 27.1529 0.383085 27.536 0.855698 27.536H9.41268C9.88529 27.536 10.2684 27.1529 10.2684 26.6803V1.00932C10.2684 0.536711 9.88524 0.153625 9.41268 0.153625ZM8.55698 25.8246H1.7114V23.2575H5.98989V21.5461H1.7114V18.979H4.27849V17.2676H1.7114V14.7005H5.98989V12.9891H1.7114V10.422H4.27849V8.71061H1.7114V6.14351H5.98989V4.43212H1.7114V1.86502H8.55698V25.8246Z" fill="#FFB960"/>
<path d="M20.7936 21.8027L17.9698 24.6179V3.07146L20.785 5.88671L21.9915 4.68017L17.7131 0.40168C17.3793 0.0698828 16.8403 0.0698828 16.5065 0.40168L12.228 4.68017L13.4346 5.88671L16.2584 3.07146V24.6179L13.4431 21.8027L12.2366 23.0092L16.5151 27.2877C16.8489 27.6195 17.3878 27.6195 17.7216 27.2877L22.0001 23.0092L20.7936 21.8027Z" fill="#FFB960"/>
</svg>
