<svg width="25" height="28" viewBox="0 0 25 28" fill="none" xmlns="http://www.w3.org/2000/svg">
<path d="M25.0001 11.2389V3.91531H21.4801V2.16144C21.4801 1.08956 20.6079 0.217529 19.536 0.217529H2.90007C1.82814 0.217529 0.956055 1.08956 0.956055 2.16144V7.30665C0.956055 8.37858 1.82809 9.25062 2.90002 9.25062H19.536C20.6079 9.25062 21.4799 8.37853 21.4799 7.30665V5.55284H23.3625V9.88243L10.3992 12.3387V15.2004H8.92545V27.7815H13.5106V15.2004H12.0368V13.6951L25.0001 11.2389ZM19.536 7.61309H2.90007C2.73114 7.61309 2.59364 7.47559 2.59364 7.30665V2.16144C2.59364 1.9925 2.73114 1.85506 2.90007 1.85506H19.536C19.705 1.85506 19.8425 1.99256 19.8425 2.16144V7.30665H19.8425C19.8425 7.47564 19.705 7.61309 19.536 7.61309ZM11.8731 26.144H10.563V16.8379H11.8731V26.144Z" fill="#FFB960"/>
</svg>
