<svg width="48" height="32" viewBox="0 0 48 32" fill="none" xmlns="http://www.w3.org/2000/svg">
<path d="M18.5891 5.77351C14.5745 6.30582 11.7527 8.35317 10.1236 11.9155C9.30909 13.6763 8.90182 15.4165 8.90182 17.1363C8.90182 17.341 8.90182 17.5253 8.90182 17.6891C8.96 17.8119 9.01818 18.119 9.07636 18.6104H18.5891V32H0V19.6545C0 13.5944 1.71636 8.92642 5.14909 5.65067C8.58182 2.37492 13.0618 0.491363 18.5891 0V5.77351ZM48 5.77351C44.8 6.14203 42.3564 7.41139 40.6691 9.58157C39.04 11.7518 38.2255 14.2495 38.2255 17.0749C38.2255 17.3205 38.2255 17.5662 38.2255 17.8119C38.2836 18.0576 38.3709 18.3237 38.4873 18.6104H48V32H29.3236V19.6545C29.3236 14.7818 30.7782 10.4415 33.6873 6.6334C36.5964 2.78439 41.3673 0.573256 48 0V5.77351Z" fill="#E7B87C"/>
</svg>
