<svg width="23" height="30" viewBox="0 0 23 30" fill="none" xmlns="http://www.w3.org/2000/svg">
<g opacity="0.2">
<path d="M0 0V29.9899H18.1117L23 25.1043V0H0ZM21.2428 23.2344H16.2445V28.2326H1.75722V1.75722H21.2428V23.2344ZM18.0017 24.9916H20.627L18.0017 27.6154V24.9916Z" fill="white"/>
<path d="M17.748 9.00107V7.24385H14.0659C14.1863 6.93481 14.2531 6.59918 14.2531 6.24809C14.2531 4.73009 13.0181 3.49512 11.5001 3.49512C9.9821 3.49512 8.74713 4.73009 8.74713 6.24809C8.74713 6.59918 8.8139 6.93481 8.93427 7.24385H5.2522V9.00107H17.748ZM10.5043 6.24809C10.5043 5.69902 10.951 5.25234 11.5001 5.25234C12.0492 5.25234 12.4959 5.69902 12.4959 6.24809C12.4959 6.79716 12.0492 7.24385 11.5001 7.24385C10.951 7.24385 10.5043 6.79711 10.5043 6.24809Z" fill="white"/>
<path d="M5.2522 11.6182H17.748V13.3754H5.2522V11.6182Z" fill="white"/>
<path d="M5.2522 15.3662H17.748V17.1234H5.2522V15.3662Z" fill="white"/>
<path d="M5.2522 19.1152H11.5001V20.8725H5.2522V19.1152Z" fill="white"/>
<path d="M9.62549 23.2344H13.3742V24.9916H9.62549V23.2344Z" fill="white"/>
</g>
</svg>
