<svg width="28" height="28" viewBox="0 0 28 28" fill="none" xmlns="http://www.w3.org/2000/svg">
<path d="M24.7188 2.1875H23.4062V0H21.2188V2.1875H6.78125V0H4.59375V2.1875H3.28125C1.47197 2.1875 0 3.65947 0 5.46875V24.7188C0 26.528 1.47197 28 3.28125 28H24.7188C26.528 28 28 26.528 28 24.7188V5.46875C28 3.65947 26.528 2.1875 24.7188 2.1875ZM25.8125 24.7188C25.8125 25.3218 25.3218 25.8125 24.7188 25.8125H3.28125C2.67816 25.8125 2.1875 25.3218 2.1875 24.7188V10.2812H25.8125V24.7188ZM25.8125 8.09375H2.1875V5.46875C2.1875 4.86566 2.67816 4.375 3.28125 4.375H4.59375V6.5625H6.78125V4.375H21.2188V6.5625H23.4062V4.375H24.7188C25.3218 4.375 25.8125 4.86566 25.8125 5.46875V8.09375Z" fill="#FFB960"/>
<path d="M6.34375 12.5781H4.15625V14.7656H6.34375V12.5781Z" fill="#FFB960"/>
<path d="M10.7188 12.5781H8.53125V14.7656H10.7188V12.5781Z" fill="#FFB960"/>
<path d="M15.0938 12.5781H12.9062V14.7656H15.0938V12.5781Z" fill="#FFB960"/>
<path d="M19.4688 12.5781H17.2812V14.7656H19.4688V12.5781Z" fill="#FFB960"/>
<path d="M23.8438 12.5781H21.6562V14.7656H23.8438V12.5781Z" fill="#FFB960"/>
<path d="M6.34375 16.9531H4.15625V19.1406H6.34375V16.9531Z" fill="#FFB960"/>
<path d="M10.7188 16.9531H8.53125V19.1406H10.7188V16.9531Z" fill="#FFB960"/>
<path d="M15.0938 16.9531H12.9062V19.1406H15.0938V16.9531Z" fill="#FFB960"/>
<path d="M19.4688 16.9531H17.2812V19.1406H19.4688V16.9531Z" fill="#FFB960"/>
<path d="M6.34375 21.3281H4.15625V23.5156H6.34375V21.3281Z" fill="#FFB960"/>
<path d="M10.7188 21.3281H8.53125V23.5156H10.7188V21.3281Z" fill="#FFB960"/>
<path d="M15.0938 21.3281H12.9062V23.5156H15.0938V21.3281Z" fill="#FFB960"/>
<path d="M19.4688 21.3281H17.2812V23.5156H19.4688V21.3281Z" fill="#FFB960"/>
<path d="M23.8438 16.9531H21.6562V19.1406H23.8438V16.9531Z" fill="#FFB960"/>
</svg>
