<svg width="29" height="38" viewBox="0 0 29 38" fill="none" xmlns="http://www.w3.org/2000/svg">
<path d="M0 0.132812V37.9461H22.8365L29 31.786V0.132812H0ZM26.7844 29.4283H20.4822V35.7305H2.21562V2.34844H26.7844V29.4283ZM22.6978 31.6439H26.0079L22.6978 34.9522V31.6439Z" fill="#C6914F"/>
<path d="M22.3779 11.4823V9.2667H17.7353C17.8871 8.87705 17.9713 8.45386 17.9713 8.01118C17.9713 6.09718 16.4141 4.54004 14.5001 4.54004C12.5861 4.54004 11.029 6.09718 11.029 8.01118C11.029 8.45386 11.1132 8.87705 11.2649 9.2667H6.62231V11.4823H22.3779ZM13.2446 8.01118C13.2446 7.31887 13.8078 6.75566 14.5001 6.75566C15.1924 6.75566 15.7556 7.31887 15.7556 8.01118C15.7556 8.70349 15.1924 9.2667 14.5001 9.2667C13.8078 9.2667 13.2446 8.70342 13.2446 8.01118Z" fill="#C6914F"/>
<path d="M6.62231 14.7812H22.3779V16.9969H6.62231V14.7812Z" fill="#C6914F"/>
<path d="M6.62231 19.5078H22.3779V21.7234H6.62231V19.5078Z" fill="#C6914F"/>
<path d="M6.62231 24.2344H14.5001V26.45H6.62231V24.2344Z" fill="#C6914F"/>
<path d="M12.1367 29.4277H16.8634V31.6434H12.1367V29.4277Z" fill="#C6914F"/>
</svg>
