<svg width="14" height="14" viewBox="0 0 14 14" fill="none" xmlns="http://www.w3.org/2000/svg">
<g opacity="0.5">
<path d="M9.625 0H4.375C1.95913 0 0 1.95913 0 4.375V9.625C0 12.0409 1.95913 14 4.375 14H9.625C12.0409 14 14 12.0409 14 9.625V4.375C14 1.95913 12.0409 0 9.625 0ZM12.6875 9.625C12.6875 11.3138 11.3138 12.6875 9.625 12.6875H4.375C2.68625 12.6875 1.3125 11.3138 1.3125 9.625V4.375C1.3125 2.68625 2.68625 1.3125 4.375 1.3125H9.625C11.3138 1.3125 12.6875 2.68625 12.6875 4.375V9.625Z" fill="white"/>
<path d="M7 3.5C5.06712 3.5 3.5 5.06712 3.5 7C3.5 8.93288 5.06712 10.5 7 10.5C8.93288 10.5 10.5 8.93288 10.5 7C10.5 5.06712 8.93288 3.5 7 3.5ZM7 9.1875C5.79425 9.1875 4.8125 8.20575 4.8125 7C4.8125 5.79338 5.79425 4.8125 7 4.8125C8.20575 4.8125 9.1875 5.79338 9.1875 7C9.1875 8.20575 8.20575 9.1875 7 9.1875Z" fill="white"/>
<path d="M10.7625 3.70326C11.0201 3.70326 11.2289 3.49445 11.2289 3.23688C11.2289 2.97931 11.0201 2.77051 10.7625 2.77051C10.5049 2.77051 10.2961 2.97931 10.2961 3.23688C10.2961 3.49445 10.5049 3.70326 10.7625 3.70326Z" fill="white"/>
</g>
</svg>
