<svg width="11" height="16" viewBox="0 0 11 16" fill="none" xmlns="http://www.w3.org/2000/svg">
<g opacity="0.5">
<path d="M0.397062 8.58702C-0.0115723 9.39029 0.452391 9.77426 1.51097 10.4302C2.4109 10.9862 3.65413 11.1895 4.45274 11.2708C4.12543 11.5855 5.62531 10.1429 1.30566 14.2979C0.389729 15.1758 1.86428 16.5844 2.77954 15.7251L5.25734 13.3353C6.20593 14.2479 7.11519 15.1225 7.73514 15.7285C8.65107 16.5911 10.1249 15.1945 9.21902 14.3012C9.15103 14.2366 5.86129 11.0808 6.06194 11.2741C6.87054 11.1928 8.09511 10.9775 8.98438 10.4335L8.98371 10.4329C10.0423 9.77359 10.5063 9.39029 10.1036 8.58702C9.8603 8.13106 9.20436 7.74976 8.33109 8.40904C8.33109 8.40904 7.15185 9.3123 5.25001 9.3123C3.34749 9.3123 2.16892 8.40904 2.16892 8.40904C1.29632 7.74642 0.637709 8.13106 0.397062 8.58702Z" fill="white"/>
<path d="M5.24871 8.09402C7.56719 8.09402 9.46037 6.28216 9.46037 4.05168C9.46037 1.81186 7.56719 0 5.24871 0C2.92956 0 1.03638 1.81186 1.03638 4.05168C1.03638 6.28216 2.92956 8.09402 5.24871 8.09402ZM5.24871 2.0525C6.38795 2.0525 7.31721 2.94643 7.31721 4.05168C7.31721 5.14759 6.38795 6.04152 5.24871 6.04152C4.10946 6.04152 3.18021 5.14759 3.18021 4.05168C3.17954 2.94576 4.1088 2.0525 5.24871 2.0525Z" fill="white"/>
</g>
</svg>
