<svg width="13" height="14" viewBox="0 0 13 14" fill="none" xmlns="http://www.w3.org/2000/svg">
<path d="M6.12114 0C4.09604 0 2.44849 1.64755 2.44849 3.67266C2.44849 5.69776 4.09604 7.34531 6.12114 7.34531C8.14625 7.34531 9.7938 5.69776 9.7938 3.67266C9.7938 1.64755 8.14625 0 6.12114 0Z" fill="#FFB960"/>
<path d="M10.6906 9.74466C9.68509 8.72371 8.35214 8.16147 6.93724 8.16147H5.30495C3.89008 8.16147 2.55709 8.72371 1.5516 9.74466C0.551034 10.7606 0 12.1016 0 13.5208C0 13.7462 0.182708 13.9289 0.408073 13.9289H11.8341C12.0595 13.9289 12.2422 13.7462 12.2422 13.5208C12.2422 12.1016 11.6912 10.7606 10.6906 9.74466Z" fill="#FFB960"/>
</svg>
