<svg width="10" height="10" viewBox="0 0 10 10" fill="none" xmlns="http://www.w3.org/2000/svg">
<path d="M8.59619 6.14505C8.02048 6.14505 7.45659 6.05516 6.92214 5.87881C6.66131 5.78892 6.36511 5.85818 6.19368 6.03306L5.13414 6.83324C3.91839 6.18436 3.14031 5.40676 2.50027 4.19986L3.27884 3.16537C3.47483 2.96937 3.54508 2.6825 3.46108 2.41381C3.28326 1.87594 3.19288 1.31153 3.19288 0.736817C3.19288 0.330578 2.8623 0 2.45606 0H0.736817C0.330578 0 0 0.330578 0 0.736817C0 5.47651 3.8565 9.33301 8.59619 9.33301C9.00243 9.33301 9.33301 9.00243 9.33301 8.59619V6.88187C9.33301 6.47563 9.00243 6.14505 8.59619 6.14505Z" fill="#FFB960"/>
</svg>
