<svg width="14" height="15" viewBox="0 0 14 15" fill="none" xmlns="http://www.w3.org/2000/svg">
<g opacity="0.3">
<path d="M12.11 6.03307C12.1273 4.00611 10.4009 2.14792 8.26164 1.89097C8.21909 1.88592 8.17275 1.87824 8.12368 1.87012C8.01777 1.85257 7.90825 1.83453 7.79774 1.83453C7.35929 1.83453 7.24209 2.14252 7.21124 2.3262C7.18124 2.5048 7.20986 2.65477 7.29616 2.77215C7.44136 2.96959 7.69684 3.00464 7.90204 3.03272C7.96218 3.04103 8.01893 3.04875 8.06644 3.05942C9.98847 3.4889 10.6357 4.16412 10.9519 6.06981C10.9597 6.11638 10.9632 6.17375 10.9669 6.23461C10.9807 6.46241 11.0094 6.93635 11.5189 6.93635H11.519C11.5614 6.93635 11.607 6.93269 11.6544 6.92546C12.1289 6.85335 12.1141 6.42012 12.1069 6.21197C12.1049 6.15335 12.103 6.0979 12.1079 6.06102C12.1093 6.05173 12.11 6.0424 12.11 6.03307Z" fill="#1F1F1F"/>
<path d="M7.6733 1.14693C7.73022 1.15104 7.78411 1.15497 7.82899 1.16185C10.9852 1.64722 12.4366 3.14259 12.8389 6.32345C12.8457 6.37752 12.8468 6.44346 12.8479 6.51329C12.8519 6.76181 12.8602 7.2788 13.4154 7.28951L13.4326 7.28969C13.6067 7.28969 13.7452 7.23718 13.8443 7.13351C14.0171 6.95273 14.0051 6.68416 13.9954 6.46833C13.993 6.41538 13.9907 6.36551 13.9913 6.32184C14.0314 3.06865 11.2154 0.118676 7.96516 0.00897437C7.95168 0.00852789 7.93882 0.00924226 7.92583 0.0110729C7.91944 0.0120105 7.90761 0.0131713 7.88734 0.0131713C7.85493 0.0131713 7.81506 0.0103585 7.77277 0.00750097C7.72165 0.00401837 7.6637 0 7.60494 0C7.08733 0 6.98892 0.367905 6.97633 0.587219C6.94731 1.09407 7.43764 1.12974 7.6733 1.14693Z" fill="#1F1F1F"/>
<path d="M12.6865 10.4345C12.6194 10.3833 12.55 10.3302 12.4851 10.2779C12.1405 10.0006 11.7738 9.74497 11.4193 9.49775C11.3457 9.44649 11.2721 9.39519 11.1988 9.34375C10.7446 9.02474 10.3363 8.86972 9.95057 8.86972C9.431 8.86972 8.97799 9.15681 8.6041 9.72291C8.43846 9.97388 8.2375 10.0959 7.98983 10.0959C7.84338 10.0959 7.67698 10.0541 7.4953 9.97165C6.02935 9.30687 4.98257 8.28763 4.38396 6.94224C4.0946 6.29198 4.1884 5.86692 4.69766 5.52098C4.98685 5.32471 5.52514 4.9593 5.48701 4.25957C5.44383 3.46496 3.69057 1.07407 2.95186 0.802519C2.6391 0.687504 2.31048 0.686432 1.97339 0.79984C1.12417 1.08532 0.51476 1.58668 0.210881 2.24962C-0.0827725 2.8902 -0.0695119 3.64235 0.249234 4.42477C1.17069 6.68694 2.46622 8.65925 4.09995 10.2868C5.69909 11.8801 7.66456 13.1851 9.94173 14.1657C10.147 14.254 10.3623 14.3022 10.5195 14.3373C10.5731 14.3494 10.6193 14.3596 10.653 14.3689C10.6716 14.3739 10.6907 14.3766 10.7098 14.3768L10.7278 14.3769C10.7279 14.3769 10.7278 14.3769 10.7279 14.3769C11.7989 14.3769 13.085 13.3982 13.4799 12.2824C13.8259 11.3054 13.1942 10.8225 12.6865 10.4345Z" fill="#1F1F1F"/>
<path d="M8.14686 3.73101C7.96349 3.73566 7.58188 3.74512 7.44798 4.13379C7.38534 4.31542 7.39284 4.47312 7.4703 4.60251C7.58398 4.79235 7.80178 4.85053 7.99988 4.88245C8.71832 4.99774 9.0873 5.39502 9.1611 6.13262C9.19539 6.47654 9.42698 6.71671 9.72434 6.71671H9.72439C9.74636 6.71671 9.76881 6.71541 9.79118 6.71269C10.1488 6.67014 10.3222 6.40738 10.3065 5.93179C10.3122 5.43543 10.0525 4.87192 9.61067 4.42307C9.16735 3.97283 8.63295 3.71927 8.14686 3.73101Z" fill="#1F1F1F"/>
</g>
</svg>
