<svg width="18" height="19" viewBox="0 0 18 19" fill="none" xmlns="http://www.w3.org/2000/svg">
<path d="M15.3862 7.79135C15.4078 5.25765 13.2498 2.93492 10.5757 2.61373C10.5225 2.60742 10.4646 2.59782 10.4033 2.58766C10.2709 2.56573 10.134 2.54318 9.99584 2.54318C9.44778 2.54318 9.30127 2.92816 9.26271 3.15777C9.2252 3.38101 9.26098 3.56848 9.36886 3.71521C9.55036 3.962 9.86971 4.00582 10.1262 4.04092C10.2014 4.0513 10.2723 4.06096 10.3317 4.07429C12.7342 4.61114 13.5432 5.45516 13.9386 7.83728C13.9482 7.89549 13.9526 7.96721 13.9572 8.04328C13.9745 8.32802 14.0104 8.92045 14.6473 8.92045H14.6474C14.7004 8.92045 14.7574 8.91588 14.8167 8.90684C15.4098 8.8167 15.3912 8.27517 15.3823 8.01498C15.3798 7.9417 15.3774 7.87238 15.3836 7.82628C15.3853 7.81468 15.3861 7.80301 15.3862 7.79135Z" fill="#9774BF"/>
<path d="M9.84028 1.68367C9.91144 1.6888 9.9788 1.69371 10.0349 1.70231C13.9801 2.30903 15.7944 4.17824 16.2972 8.15431C16.3058 8.2219 16.3071 8.30433 16.3085 8.39162C16.3135 8.70226 16.3239 9.34849 17.0179 9.36189L17.0394 9.36211C17.2571 9.36211 17.4302 9.29648 17.5541 9.16689C17.7701 8.94091 17.755 8.60521 17.7429 8.33542C17.7399 8.26923 17.7371 8.20688 17.7378 8.1523C17.788 4.08582 14.268 0.398345 10.2051 0.261218C10.1883 0.26066 10.1722 0.261553 10.1559 0.263841C10.148 0.265013 10.1332 0.266464 10.1078 0.266464C10.0673 0.266464 10.0175 0.262948 9.96462 0.259376C9.90072 0.255023 9.82828 0.25 9.75483 0.25C9.10782 0.25 8.98481 0.709881 8.96907 0.984023C8.93279 1.61759 9.54571 1.66218 9.84028 1.68367Z" fill="#9774BF"/>
<path d="M16.1069 13.2931C16.023 13.2291 15.9363 13.1628 15.8551 13.0974C15.4243 12.7507 14.9661 12.4312 14.5229 12.1222C14.4309 12.0581 14.3389 11.994 14.2473 11.9297C13.6796 11.5309 13.1692 11.3371 12.687 11.3371C12.0375 11.3371 11.4713 11.696 11.0039 12.4036C10.7969 12.7173 10.5456 12.8699 10.2361 12.8699C10.053 12.8699 9.845 12.8176 9.61791 12.7146C7.78547 11.8836 6.47699 10.6095 5.72873 8.9278C5.36702 8.11497 5.48428 7.58365 6.12086 7.15123C6.48235 6.90589 7.1552 6.44913 7.10754 5.57446C7.05357 4.5812 4.86199 1.59259 3.9386 1.25315C3.54765 1.10938 3.13688 1.10804 2.71551 1.2498C1.65399 1.60665 0.892229 2.23335 0.512381 3.06203C0.145314 3.86275 0.161889 4.80294 0.560322 5.78096C1.71214 8.60867 3.33155 11.0741 5.37372 13.1085C7.37264 15.1001 9.82948 16.7314 12.6759 17.9571C12.9325 18.0675 13.2016 18.1277 13.3981 18.1716C13.4651 18.1867 13.5229 18.1995 13.5651 18.2111C13.5882 18.2174 13.6121 18.2208 13.6361 18.221L13.6586 18.2211C13.6586 18.2211 13.6586 18.2211 13.6587 18.2211C14.9975 18.2211 16.605 16.9978 17.0987 15.603C17.5312 14.3818 16.7415 13.7781 16.1069 13.2931Z" fill="#9774BF"/>
<path d="M10.4324 4.91376C10.2031 4.91956 9.72613 4.93139 9.55875 5.41723C9.48045 5.64426 9.48983 5.84139 9.58666 6.00313C9.72875 6.24043 10.001 6.31316 10.2486 6.35306C11.1467 6.49716 11.6079 6.99377 11.7002 7.91576C11.743 8.34567 12.0325 8.64588 12.4042 8.64588H12.4043C12.4317 8.64588 12.4598 8.64426 12.4878 8.64086C12.9348 8.58767 13.1515 8.25922 13.1319 7.66473C13.1391 7.04428 12.8144 6.33989 12.2621 5.77882C11.708 5.21603 11.04 4.89908 10.4324 4.91376Z" fill="#9774BF"/>
</svg>
