<svg width="41" height="44" viewBox="0 0 41 44" fill="none" xmlns="http://www.w3.org/2000/svg">
<g opacity="0.2">
<path d="M37.1178 7.52379H32.3349C32.9796 6.73004 33.3669 5.71922 33.3669 4.61937C33.3669 2.85688 32.3868 1.2739 30.8091 0.488266C29.2313 -0.29745 27.3775 -0.125546 25.971 0.936501L22.4575 3.58965C21.7856 3.05504 20.9362 2.7344 20.0128 2.7344C19.0894 2.7344 18.24 3.05504 17.5681 3.58965L14.0546 0.936501C12.6481 -0.125631 10.7942 -0.297279 9.21649 0.488266C7.63882 1.2739 6.6587 2.85679 6.6587 4.61937C6.6587 5.71922 7.04605 6.73004 7.69073 7.52379H2.90784C1.30442 7.52379 0 8.82822 0 10.4316V15.5631C0 17.1091 1.21274 18.3766 2.73679 18.4655V40.1943C2.73679 42.1749 4.34817 43.7863 6.32884 43.7863H33.6968C35.6774 43.7863 37.2888 42.1749 37.2888 40.1943V34.122C37.2888 33.6497 36.9059 33.2668 36.4336 33.2668C35.9612 33.2668 35.5783 33.6497 35.5783 34.122V40.1943C35.5783 41.2318 34.7343 42.0758 33.6968 42.0758H23.9469V18.471H35.5783V35.4248C35.5783 35.897 35.9612 36.28 36.4336 36.28C36.9059 36.28 37.2888 35.897 37.2888 35.4248V18.4655C38.8129 18.3766 40.0256 17.109 40.0256 15.5631V10.4316C40.0256 8.82822 38.7211 7.52379 37.1178 7.52379ZM27.0017 2.30156C27.9003 1.62301 29.0386 1.51739 30.0467 2.0195C31.0547 2.52145 31.6564 3.49335 31.6564 4.61937C31.6564 6.22091 30.3535 7.52379 28.752 7.52379H23.9469V6.66854C23.9469 6.04037 23.7981 5.44657 23.5352 4.91922L27.0017 2.30156ZM17.7892 9.23429H22.2364V16.7605H17.7892V9.23429ZM20.0128 4.4449C21.2389 4.4449 22.2364 5.44246 22.2364 6.66854V7.52379H17.7892V6.66854C17.7892 5.44238 18.7866 4.4449 20.0128 4.4449ZM8.3692 4.61937C8.3692 3.49327 8.97104 2.52136 9.97895 2.0195C10.9869 1.51747 12.1252 1.62301 13.0238 2.30156L16.4904 4.91922C16.2274 5.44657 16.0787 6.04037 16.0787 6.66846V7.52371H11.2736C9.67208 7.52379 8.3692 6.22082 8.3692 4.61937ZM1.7105 15.5631V10.4316C1.7105 9.77138 2.24759 9.23429 2.90784 9.23429H16.0787V16.7605H3.59204H2.90784C2.24759 16.7605 1.7105 16.2233 1.7105 15.5631ZM4.44729 40.1943V18.471H16.0787V42.0758H6.32884C5.29133 42.0758 4.44729 41.2318 4.44729 40.1943ZM17.7892 42.0758V18.471H22.2364V42.0758H17.7892ZM38.3151 15.5631C38.3151 16.2234 37.778 16.7605 37.1178 16.7605H36.4336H23.9469V9.23429H37.1178C37.778 9.23429 38.3151 9.77138 38.3151 10.4316V15.5631Z" fill="black"/>
<path d="M36.4336 29.418C36.2087 29.418 35.988 29.5094 35.829 29.6686C35.6699 29.8276 35.5784 30.0483 35.5784 30.2732C35.5784 30.4981 35.6699 30.7188 35.829 30.8778C35.988 31.0369 36.2087 31.1285 36.4336 31.1285C36.6585 31.1285 36.8792 31.037 37.0383 30.8778C37.1974 30.7188 37.2889 30.4981 37.2889 30.2732C37.2889 30.0483 37.1974 29.8276 37.0383 29.6686C36.8792 29.5095 36.6585 29.418 36.4336 29.418Z" fill="black"/>
</g>
</svg>
