<svg width="17" height="10" viewBox="0 0 17 10" fill="none" xmlns="http://www.w3.org/2000/svg">
<g opacity="0.5">
<path d="M16.9134 8.93703C16.8936 8.89439 16.8752 8.85902 16.858 8.83069C16.5746 8.32016 16.0329 7.69352 15.2333 6.95059L15.2164 6.93357L15.2079 6.92523L15.1994 6.91668H15.1908C14.8279 6.57073 14.5981 6.33813 14.5018 6.21904C14.3258 5.99218 14.2863 5.76255 14.3825 5.52989C14.4505 5.3541 14.7059 4.98286 15.1482 4.41566C15.3808 4.11506 15.565 3.87414 15.701 3.69263C16.6822 2.38822 17.1076 1.55468 16.9771 1.19169L16.9264 1.10687C16.8923 1.0558 16.8044 1.00908 16.6628 0.966476C16.5209 0.923959 16.3395 0.916928 16.1182 0.945263L13.6684 0.962186C13.6287 0.948123 13.572 0.949434 13.4982 0.966476C13.4245 0.983519 13.3876 0.99207 13.3876 0.99207L13.3449 1.01337L13.3111 1.03897C13.2827 1.05589 13.2515 1.08566 13.2175 1.1282C13.1836 1.1706 13.1553 1.22036 13.1326 1.27706C12.8659 1.96326 12.5627 2.60125 12.2223 3.19101C12.0125 3.54267 11.8198 3.84744 11.6438 4.10549C11.468 4.36346 11.3205 4.55352 11.2015 4.67535C11.0824 4.7973 10.9748 4.89499 10.8782 4.96879C10.7818 5.04262 10.7081 5.07382 10.6572 5.06241C10.6061 5.051 10.558 5.03967 10.5124 5.02835C10.4331 4.97728 10.3692 4.90783 10.3211 4.81994C10.2728 4.73205 10.2403 4.62142 10.2232 4.48815C10.2063 4.35478 10.1963 4.24008 10.1934 4.14363C10.1908 4.0473 10.192 3.91105 10.1978 3.73526C10.2037 3.55939 10.2063 3.44039 10.2063 3.378C10.2063 3.16246 10.2105 2.92854 10.219 2.67618C10.2275 2.42382 10.2345 2.22387 10.2403 2.07657C10.2461 1.92911 10.2487 1.77311 10.2487 1.60864C10.2487 1.44417 10.2387 1.31519 10.219 1.22158C10.1994 1.12808 10.1694 1.03733 10.1299 0.949345C10.0901 0.86145 10.0319 0.793459 9.95548 0.745192C9.87893 0.696984 9.78377 0.658727 9.67052 0.630303C9.36992 0.562282 8.98715 0.525486 8.52203 0.519765C7.46726 0.508443 6.78953 0.576554 6.48896 0.724007C6.36987 0.786308 6.2621 0.871431 6.16574 0.979109C6.06364 1.10392 6.0494 1.17203 6.12311 1.18323C6.46342 1.23421 6.70434 1.35616 6.84614 1.54896L6.89723 1.65113C6.93698 1.72484 6.97667 1.85534 7.01638 2.04245C7.05604 2.22956 7.08163 2.43655 7.09289 2.66328C7.1212 3.07734 7.1212 3.43178 7.09289 3.72662C7.0645 4.02159 7.03768 4.25122 7.01209 4.41569C6.9865 4.58015 6.94824 4.71342 6.89723 4.81547C6.84614 4.91755 6.81214 4.97994 6.7951 5.00258C6.77808 5.02522 6.7639 5.0395 6.75264 5.0451C6.67893 5.07334 6.60227 5.08773 6.52292 5.08773C6.44346 5.08773 6.3471 5.04799 6.23371 4.96856C6.12034 4.88912 6.00268 4.78001 5.88073 4.64105C5.75878 4.50206 5.62125 4.30783 5.46807 4.05833C5.31502 3.80883 5.15621 3.51395 4.99175 3.1737L4.85567 2.92694C4.77061 2.76819 4.65441 2.53704 4.50696 2.2337C4.35941 1.93024 4.229 1.63671 4.11563 1.35315C4.07032 1.23406 4.00223 1.1434 3.91151 1.08101L3.86893 1.05541C3.84063 1.03277 3.79519 1.00873 3.73286 0.983102C3.67044 0.957508 3.60531 0.939155 3.5372 0.927862L1.20639 0.944786C0.968214 0.944786 0.806608 0.998744 0.721514 1.10651L0.687459 1.15749C0.670446 1.18588 0.661865 1.23123 0.661865 1.29365C0.661865 1.35604 0.678878 1.43261 0.712933 1.52328C1.05319 2.32297 1.42321 3.0942 1.82299 3.8371C2.22278 4.58 2.57018 5.17843 2.865 5.63184C3.15988 6.08559 3.46045 6.51383 3.76671 6.91635C4.07297 7.31903 4.27569 7.57708 4.37488 7.69045C4.47418 7.80402 4.55218 7.88894 4.60888 7.94564L4.82159 8.14976C4.95769 8.28589 5.15755 8.44893 5.42127 8.63887C5.68504 8.82893 5.97705 9.01604 6.29747 9.2005C6.61794 9.38466 6.99076 9.53495 7.41614 9.65117C7.84146 9.76752 8.25542 9.81421 8.6581 9.79169H9.63638C9.83478 9.77455 9.98509 9.71216 10.0873 9.60449L10.1211 9.56185C10.1439 9.528 10.1652 9.47542 10.1848 9.40465C10.2047 9.33377 10.2146 9.25568 10.2146 9.17074C10.2088 8.92693 10.2274 8.70719 10.2698 8.51156C10.3122 8.31599 10.3605 8.16853 10.4146 8.06923C10.4686 7.97001 10.5296 7.88629 10.5974 7.81842C10.6654 7.75039 10.7138 7.70919 10.7423 7.69501C10.7705 7.68073 10.7931 7.67105 10.8101 7.66524C10.9462 7.61989 11.1064 7.66381 11.2908 7.7972C11.4752 7.93047 11.6481 8.09503 11.8098 8.2906C11.9714 8.48635 12.1656 8.70597 12.3924 8.94978C12.6194 9.19368 12.8178 9.37498 12.9879 9.49425L13.158 9.59632C13.2715 9.66443 13.419 9.72682 13.6005 9.78352C13.7817 9.84019 13.9404 9.85437 14.0767 9.82604L16.2543 9.79207C16.4697 9.79207 16.6373 9.75641 16.7562 9.68565C16.8753 9.61477 16.9461 9.53667 16.9689 9.45173C16.9917 9.36669 16.9929 9.27022 16.9732 9.16236C16.9531 9.05477 16.9332 8.97954 16.9134 8.93703Z" fill="white"/>
</g>
</svg>
