<svg width="20" height="20" viewBox="0 0 20 20" fill="none" xmlns="http://www.w3.org/2000/svg">
<path d="M20 10.1703C20 15.3264 15.7876 19.5063 10.5903 19.5063C8.94098 19.5063 7.39165 19.0844 6.04295 18.3457L0.83374 20L2.53181 14.9895C1.67559 13.5833 1.18248 11.9321 1.18248 10.1697C1.1831 5.0136 5.39422 0.83374 10.5915 0.83374C15.7883 0.83499 20 5.01423 20 10.1703ZM10.5897 2.32244C6.22794 2.32244 2.67993 5.84358 2.67993 10.1722C2.67993 11.8896 3.23991 13.4796 4.18676 14.7733L3.19929 17.6876L6.23794 16.722C7.4879 17.5419 8.98347 18.0194 10.5897 18.0194C14.9514 18.0194 18.5007 14.4989 18.5007 10.1703C18.5019 5.84358 14.952 2.32244 10.5897 2.32244ZM15.342 12.3209C15.2833 12.2265 15.1295 12.169 14.8995 12.054C14.6702 11.939 13.5346 11.3859 13.324 11.3109C13.1115 11.234 12.9577 11.1953 12.804 11.4246C12.6521 11.654 12.2096 12.169 12.074 12.3227C11.9396 12.4759 11.8053 12.4952 11.5746 12.3821C11.344 12.2659 10.6003 12.0259 9.71908 11.2465C9.03347 10.639 8.57036 9.89094 8.43662 9.66158C8.301 9.43283 8.42287 9.30909 8.53724 9.19534C8.64036 9.09222 8.76786 8.92785 8.88348 8.79348C8.9991 8.66036 9.03722 8.56599 9.11409 8.41287C9.18972 8.25975 9.15159 8.12663 9.09472 8.01101C9.03722 7.89601 8.57661 6.77105 8.38349 6.31294C8.19163 5.85545 7.99976 5.93107 7.86476 5.93107C7.73039 5.93107 7.57665 5.91232 7.4229 5.91232C7.26916 5.91232 7.01916 5.96795 6.80855 6.19732C6.59793 6.42668 6.0017 6.97979 6.0017 8.106C6.0017 9.23347 6.82729 10.3203 6.94292 10.4728C7.05916 10.6247 8.53911 13.0115 10.8834 13.9277C13.229 14.8433 13.229 14.5377 13.6514 14.4989C14.0752 14.4602 15.0164 13.9458 15.2076 13.4121C15.4001 12.8758 15.4001 12.4165 15.342 12.3209Z" fill="#69CB5C"/>
</svg>
