<svg width="16" height="16" viewBox="0 0 16 16" fill="none" xmlns="http://www.w3.org/2000/svg">
<path opacity="0.3" d="M16 8.13625C16 12.2611 12.6301 15.605 8.47224 15.605C7.15278 15.605 5.91332 15.2675 4.83436 14.6765L0.666992 16L2.02545 11.9916C1.34047 10.8667 0.945983 9.5457 0.945983 8.13575C0.946483 4.01088 4.31537 0.666992 8.47324 0.666992C12.6306 0.667992 16 4.01138 16 8.13625ZM8.47174 1.85795C4.98235 1.85795 2.14394 4.67486 2.14394 8.13775C2.14394 9.5117 2.59193 10.7837 3.3494 11.8186L2.55943 14.1501L4.99035 13.3776C5.99032 14.0336 7.18678 14.4155 8.47174 14.4155C11.9611 14.4155 14.8005 11.5991 14.8005 8.13625C14.8015 4.67486 11.9616 1.85795 8.47174 1.85795ZM12.2736 9.85669C12.2266 9.78119 12.1036 9.7352 11.9196 9.6432C11.7361 9.5512 10.8277 9.10872 10.6592 9.04872C10.4892 8.98722 10.3662 8.95622 10.2432 9.13972C10.1217 9.32321 9.7677 9.7352 9.6592 9.85819C9.5517 9.98069 9.44421 9.99619 9.25971 9.90569C9.07522 9.81269 8.48024 9.6207 7.77526 8.99722C7.22678 8.51124 6.85629 7.91276 6.74929 7.72926C6.6408 7.54627 6.73829 7.44727 6.82979 7.35627C6.91229 7.27378 7.01429 7.14228 7.10678 7.03478C7.19928 6.92829 7.22978 6.85279 7.29128 6.73029C7.35177 6.6078 7.32128 6.5013 7.27578 6.4088C7.22978 6.31681 6.86129 5.41684 6.7068 5.05035C6.5533 4.68436 6.39981 4.74486 6.29181 4.74486C6.18431 4.74486 6.06132 4.72986 5.93832 4.72986C5.81532 4.72986 5.61533 4.77436 5.44684 4.95785C5.27834 5.14135 4.80136 5.58383 4.80136 6.4848C4.80136 7.38677 5.46184 8.25625 5.55433 8.37824C5.64733 8.49974 6.83129 10.4092 8.70673 11.1422C10.5832 11.8746 10.5832 11.6301 10.9212 11.5991C11.2601 11.5681 12.0131 11.1566 12.1661 10.7297C12.3201 10.3007 12.3201 9.93319 12.2736 9.85669Z" fill="#1F1F1F"/>
</svg>
