<svg width="18" height="24" viewBox="0 0 18 24" fill="none" xmlns="http://www.w3.org/2000/svg">
<path d="M5.28656 7.25898V11.9254H7.0314V8.95585C7.0314 8.72158 7.22672 8.53163 7.46761 8.53163H10.0849C10.3258 8.53163 10.5211 8.72158 10.5211 8.95585V11.9254H12.2659V7.25898C12.2659 7.02471 12.4612 6.83476 12.7021 6.83476H13.1645L8.77624 3.55225L4.38794 6.83476H4.85035C5.09124 6.83476 5.28656 7.02471 5.28656 7.25898Z" fill="#CD9162"/>
<path d="M7.74414 9.38794H9.55109V11.9253H7.74414V9.38794Z" fill="#CD9162"/>
<path d="M8.64754 23.597C10.2744 21.5963 17.2951 12.7203 17.2951 8.51707C17.2951 3.81313 13.4233 0 8.64754 0C3.87155 0 0 3.81313 0 8.51707C0 12.7211 7.02043 21.5967 8.64754 23.597ZM2.76295 6.90348L8.38385 2.64495C8.53924 2.52705 8.75585 2.52705 8.91123 2.64495L14.5321 6.90348C14.6776 7.01514 14.7352 7.2052 14.6757 7.37695C14.6164 7.54871 14.4527 7.66453 14.2684 7.66536H12.9713V12.3497C12.9713 12.5849 12.7777 12.7756 12.5389 12.7756H4.75615C4.51737 12.7756 4.32377 12.5849 4.32377 12.3497V7.66536H3.02664C2.8417 7.66536 2.67723 7.54933 2.61749 7.37674C2.55795 7.20416 2.61643 7.01348 2.76295 6.90223V6.90348Z" fill="#CD9162"/>
</svg>
