<svg width="39" height="41" viewBox="0 0 39 41" fill="none" xmlns="http://www.w3.org/2000/svg">
<path d="M27.2112 20.4634H19.3953C18.9808 20.4634 18.6453 20.1274 18.6453 19.7134V12.9183C18.6453 12.5038 18.9808 12.1683 19.3953 12.1683C19.8093 12.1683 20.1453 12.5038 20.1453 12.9183V18.9629H26.4613V12.8093C26.4613 12.3948 26.7973 12.0593 27.2112 12.0593C27.6252 12.0593 27.9612 12.3948 27.9612 12.8093V19.7129C27.9612 20.1274 27.6252 20.4634 27.2112 20.4634Z" fill="white"/>
<path d="M28.9208 14.9683C28.7483 14.9683 28.5758 14.9093 28.4338 14.7883L23.3503 10.4443L18.3813 14.7678C18.0688 15.0393 17.5948 15.0063 17.3228 14.6943C17.0513 14.3818 17.0838 13.9078 17.3963 13.6358L22.8533 8.8878C23.1338 8.6448 23.5498 8.6423 23.8328 8.8838L29.4083 13.6483C29.7233 13.9173 29.7603 14.3908 29.4913 14.7058C29.3433 14.8793 29.1328 14.9683 28.9208 14.9683Z" fill="white"/>
<path d="M23.3838 29.584C19.7668 29.584 16.3183 28.2785 13.5898 25.858C7.48881 20.4449 6.92831 11.0774 12.3403 4.97688C14.9603 2.02087 18.5753 0.263363 22.5188 0.0268623C26.4693 -0.208139 30.2623 1.10487 33.2178 3.72588C36.1743 6.34689 37.9328 9.9629 38.1688 13.9069C38.4053 17.8504 37.0918 21.65 34.4703 24.6055C31.8488 27.5615 28.2328 29.32 24.2888 29.556C23.9863 29.5745 23.6848 29.584 23.3838 29.584ZM23.4208 1.49937C23.1513 1.49937 22.8803 1.50737 22.6088 1.52387C19.0648 1.73587 15.8168 3.31588 13.4628 5.97189C8.59931 11.4539 9.10331 19.8714 14.5853 24.7355C17.2408 27.0915 20.6608 28.268 24.1993 28.059C27.7438 27.8465 30.9928 26.2665 33.3488 23.6105C35.7043 20.9544 36.8843 17.5399 36.6718 13.9964C36.4593 10.4524 34.8798 7.20339 32.2233 4.84788C29.7703 2.67287 26.6713 1.49937 23.4208 1.49937Z" fill="white"/>
<path d="M11.4728 29.2058C11.2958 29.2058 11.1183 29.1438 10.9753 29.0168C10.6653 28.7418 10.6368 28.2683 10.9118 27.9583L13.5723 24.9584C13.8473 24.6494 14.3213 24.6194 14.6308 24.8949C14.9408 25.1699 14.9693 25.6434 14.6943 25.9534L12.0338 28.9533C11.8858 29.1203 11.6798 29.2058 11.4728 29.2058Z" fill="white"/>
<path d="M3.81075 40.2883C3.62675 40.2883 3.44825 40.2203 3.31075 40.0973L0.694241 37.7558C0.38574 37.4793 0.359239 37.0053 0.63574 36.6968L8.96277 27.3909C9.23777 27.0829 9.71028 27.0559 10.0193 27.3299L12.6448 29.6604C12.7938 29.7929 12.8843 29.9794 12.8958 30.1784C12.9073 30.3774 12.8388 30.5729 12.7058 30.7214L4.36976 40.0383C4.23725 40.1868 4.05125 40.2763 3.85225 40.2873C3.83825 40.2878 3.82475 40.2883 3.81075 40.2883ZM2.25325 37.1383L3.75175 38.4793L11.0853 30.2824L9.58178 28.9474L2.25325 37.1383Z" fill="white"/>
</svg>
