<svg width="45" height="42" viewBox="0 0 45 42" fill="none" xmlns="http://www.w3.org/2000/svg">
<path d="M42.4314 19.9055C42.3294 19.5995 42.0429 19.393 41.7199 19.393H27.5284C27.2054 19.393 26.9189 19.5995 26.8169 19.9055L26.2504 21.604V9.075H27.7829C28.1969 9.075 28.5329 8.7395 28.5329 8.325V4.303C28.5329 3.8885 28.1969 3.553 27.7829 3.553H25.5794V0.75C25.5794 0.3355 25.2434 0 24.8294 0H4.14944C3.73494 0 3.39944 0.3355 3.39944 0.75V3.553H1.19444C0.779943 3.553 0.444443 3.8885 0.444443 4.303V8.325C0.444443 8.7395 0.779943 9.075 1.19444 9.075H2.60444V40.416C2.60444 40.83 2.93994 41.166 3.35444 41.166H25.5009H43.7479C44.1619 41.166 44.4979 40.83 44.4979 40.416V26.3455C44.5859 26.1065 42.4314 19.9055 42.4314 19.9055ZM42.8294 25.8405C42.1774 26.226 41.4399 26.4305 40.6629 26.4305C39.8674 26.4305 39.1009 26.1915 38.4159 25.759V20.893H41.1794L42.8294 25.8405ZM32.3344 20.893H36.9159V25.7595C36.2304 26.1915 35.4634 26.431 34.6679 26.431C33.8379 26.431 33.0384 26.184 32.3344 25.714V20.893ZM28.0689 20.893H30.8339V25.712C30.1269 26.183 29.3259 26.4305 28.4974 26.4305C27.7534 26.4305 27.0429 26.2345 26.4069 25.876L28.0689 20.893ZM4.89944 1.5H24.0799V3.553H4.89944V1.5ZM1.94444 5.053H4.14944H24.8299H27.0334V7.575H25.5009H3.35444H1.94444V5.053ZM4.10444 9.075H24.7509V39.666H4.10444V9.075ZM26.2509 39.666V27.478C26.9554 27.7755 27.7144 27.9305 28.4979 27.9305C29.5934 27.9305 30.6499 27.6155 31.5834 27.0155C32.5139 27.6155 33.5699 27.9305 34.6679 27.9305C35.7284 27.9305 36.7549 27.6365 37.6664 27.075C38.5769 27.6365 39.6029 27.9305 40.6629 27.9305C41.4709 27.9305 42.2674 27.759 42.9979 27.437V39.666H26.2509Z" fill="white"/>
</svg>
