<svg width="42" height="33" viewBox="0 0 42 33" fill="none" xmlns="http://www.w3.org/2000/svg">
<path d="M25.3449 0C24.9309 0 24.5949 0.3355 24.5949 0.750001C24.5949 1.1645 24.9309 1.5 25.3449 1.5C33.5904 1.5 40.2984 8.20751 40.2984 16.4525C40.2984 24.697 33.5904 31.4045 25.3449 31.4045C19.1434 31.4045 13.6294 27.5555 11.4169 21.8785L12.4139 22.322C12.7929 22.491 13.2359 22.3195 13.4039 21.941C13.5719 21.5625 13.4019 21.119 13.0234 20.951L10.4594 19.8115C10.0899 19.648 9.65794 19.805 9.48044 20.168L8.34394 22.4955C8.16244 22.8675 8.31694 23.317 8.68894 23.4985C8.79494 23.5505 8.90694 23.5745 9.01744 23.5745C9.29494 23.5745 9.56194 23.4195 9.69194 23.1535L10.0279 22.465C12.4724 28.6905 18.5354 32.9045 25.3444 32.9045C34.4174 32.9045 41.7979 25.524 41.7979 16.4525C41.7979 7.38101 34.4179 0 25.3449 0Z" fill="white"/>
<path d="M19.4485 12.7546V3.20557C19.4485 2.79107 19.1129 2.45557 18.6984 2.45557H1.19444C0.779943 2.45557 0.444443 2.79107 0.444443 3.20557V12.7546C0.444443 13.1691 0.779943 13.5046 1.19444 13.5046H18.6984C19.1124 13.5046 19.4485 13.1691 19.4485 12.7546ZM17.9484 12.0046H1.94444V3.95558H17.9484V12.0046Z" fill="white"/>
<path d="M9.94694 10.668C11.4294 10.668 12.6359 9.46149 12.6359 7.979C12.6359 6.49652 11.4294 5.29004 9.94694 5.29004C8.46444 5.29004 7.25794 6.49652 7.25794 7.979C7.25794 9.46149 8.46444 10.668 9.94694 10.668ZM9.94694 6.79002C10.6024 6.79002 11.1359 7.32351 11.1359 7.979C11.1359 8.6345 10.6024 9.16799 9.94694 9.16799C9.29144 9.16799 8.75794 8.6345 8.75794 7.979C8.75794 7.32351 9.29144 6.79002 9.94694 6.79002Z" fill="white"/>
<path d="M17.2854 24.5466C17.4319 24.6931 17.6239 24.7661 17.8159 24.7661C18.0079 24.7661 18.1999 24.6931 18.3464 24.5466L25.7245 17.1636C25.865 17.0231 25.944 16.8321 25.944 16.6331V5.96558C25.944 5.55108 25.608 5.21558 25.194 5.21558C24.78 5.21558 24.444 5.55108 24.444 5.96558V16.3226L17.2849 23.4856C16.9924 23.7786 16.9924 24.2541 17.2854 24.5466Z" fill="white"/>
</svg>
