<svg width="46" height="33" viewBox="0 0 46 33" fill="none" xmlns="http://www.w3.org/2000/svg">
<path d="M38.3024 19.4045C38.2729 18.8355 38.2304 18.241 38.1679 17.6205C37.7924 13.9045 36.6474 8.68749 33.3214 4.933C30.4209 1.6595 26.3669 0 21.2699 0C18.7734 0 16.4709 0.53 14.4784 1.286C14.3949 1.3025 14.318 1.335 14.2464 1.377C10.4105 2.8845 7.77245 5.204 7.20445 6.099C2.89396 9.75099 0.444458 15.0095 0.444458 20.7075C0.444458 20.7705 0.452458 20.8335 0.467958 20.8945C0.509458 21.0545 1.52946 24.8455 5.93245 26.836C12.078 29.614 19.8919 32.5945 28.2339 32.5945C29.8899 32.5945 31.5659 32.4775 33.2539 32.2175C44.1634 30.5405 45.5624 28.018 45.5624 26.0075C45.5629 25.561 45.5629 24.2075 38.3024 19.4045ZM32.1949 5.9235C37.3864 11.778 36.9374 21.77 36.7494 24.1285L28.0109 26.3135C28.1069 24.2255 28.2439 19.3205 27.7104 14.855C27.0639 9.44899 25.3864 3.37 18.6204 1.712C19.4654 1.5785 20.3489 1.5 21.2699 1.5C25.9164 1.5 29.5924 2.988 32.1949 5.9235ZM14.7629 2.7715C21.7654 2.794 25.1969 6.469 26.2209 15.0325C26.7184 19.198 26.6094 23.883 26.5194 26.0365L23.8009 24.497C24.0259 22.1595 24.6354 12.533 20.0214 7.983C17.1049 5.1075 14.0244 4.2455 11.602 4.3625C12.4945 3.809 13.558 3.249 14.7629 2.7715ZM8.39045 7.0675C8.44345 7.0285 8.49395 6.9885 8.53995 6.949C8.68795 6.83 8.83395 6.71 8.98595 6.595C10.699 5.4825 14.9904 5.1295 18.9689 9.05099C22.9349 12.962 22.5319 21.645 22.3249 24.135C20.3629 24.051 14.5754 23.661 9.85795 21.9035C6.71645 20.7335 4.27346 18.729 2.59246 15.9505C3.54846 12.494 5.54246 9.40749 8.39045 7.0675ZM33.0264 30.735C23.2249 32.244 13.7274 28.713 6.55095 25.469C3.11496 23.9165 2.10746 21.1265 1.94546 20.603C1.95046 19.718 2.02696 18.8465 2.15746 17.9895C4.38796 20.978 7.22695 22.524 9.33495 23.309C14.8589 25.367 21.5509 25.623 22.7989 25.653L26.8374 27.9405C26.8424 27.9435 26.8484 27.944 26.8534 27.947C26.9034 27.974 26.9564 27.9965 27.0124 28.0115C27.0224 28.014 27.0324 28.0145 27.0424 28.0165C27.0799 28.025 27.1174 28.033 27.1569 28.036C27.1734 28.0375 27.1899 28.038 27.2059 28.038H27.2064C27.2064 28.038 27.2064 28.038 27.2069 28.038C27.2074 28.038 27.2079 28.038 27.2079 28.038C27.2654 28.038 27.3209 28.0295 27.3744 28.017C27.3789 28.016 27.3839 28.0165 27.3884 28.0155L37.6284 25.455C37.9299 25.38 38.1534 25.1265 38.1909 24.818C38.2014 24.7325 38.3639 23.34 38.3549 21.248C41.9364 23.6865 43.9319 25.4785 44.0624 26.008C44.0629 28.0185 40.3494 29.609 33.0264 30.735Z" fill="white"/>
</svg>
