<svg width="38" height="34" viewBox="0 0 38 34" fill="none" xmlns="http://www.w3.org/2000/svg">
<path d="M34.1706 18.7389C34.1636 18.7389 34.1566 18.7389 34.1496 18.7394C34.1191 18.7379 31.4636 18.7794 30.1931 15.7914C29.8396 14.9584 29.7186 14.0219 29.6791 13.557C30.4646 12.6605 30.8941 11.5245 30.8941 10.3215C30.8941 7.83797 29.0416 5.78448 26.6466 5.45548V0.749997C26.6466 0.335499 26.3106 0 25.8966 0H1.19446C0.779959 0 0.444458 0.335499 0.444458 0.749997V32.6719C0.444458 33.0859 0.779959 33.4219 1.19446 33.4219H25.8961C26.3101 33.4219 26.6461 33.0859 26.6461 32.6719V29.2349H35.6816C36.0956 29.2349 36.4316 28.8989 36.4316 28.4849V25.3724H36.7686C37.1826 25.3724 37.5186 25.0364 37.5186 24.6224V22.0879C37.5186 20.2409 36.0166 18.7389 34.1706 18.7389ZM29.3936 10.321C29.3936 11.2385 29.0341 12.1005 28.3816 12.7475C28.2356 12.8925 28.1551 13.0915 28.1601 13.298C28.1621 13.365 28.2066 14.9504 28.8126 16.3779C30.4436 20.2129 33.8951 20.2339 34.1771 20.2389C35.1931 20.2424 36.0191 21.0704 36.0191 22.0874V23.8719H35.8346C35.7856 23.8619 35.7346 23.8564 35.6821 23.8564C35.6296 23.8564 35.5791 23.8619 35.5296 23.8719H15.932V22.0874C15.932 21.0749 16.75 20.2494 17.7595 20.2389C18.1705 20.2594 21.377 20.2919 23.0646 16.4849C23.6461 15.1799 23.7641 13.3815 23.7691 13.306C23.7821 13.092 23.7036 12.882 23.5521 12.73C22.9116 12.0865 22.5591 11.231 22.5591 10.3215C22.5591 8.43747 24.0916 6.90447 25.9756 6.90447C27.8606 6.90398 29.3936 8.43697 29.3936 10.321ZM25.1461 31.9214H1.94446V1.49949H25.1461V5.47948C22.8296 5.87548 21.059 7.89297 21.059 10.321C21.059 11.509 21.4775 12.633 22.2446 13.5234C22.1811 14.1139 22.0171 15.1494 21.6936 15.8754C20.37 18.8629 17.9365 18.7484 17.8375 18.7409C17.818 18.7394 17.7985 18.7384 17.779 18.7384C15.9335 18.7384 14.432 20.2404 14.432 22.0869V24.6214C14.432 25.0354 14.7675 25.3714 15.182 25.3714H15.5975L15.615 28.4879C15.617 28.9004 15.9525 29.2334 16.365 29.2334H25.1461V31.9214ZM34.9316 27.7344H17.111L17.098 25.3719H34.9316V27.7344Z" fill="white"/>
<path d="M12.925 6.76392H4.62396C4.20946 6.76392 3.87396 7.09942 3.87396 7.51392C3.87396 7.92842 4.20946 8.26392 4.62396 8.26392H12.925C13.3395 8.26392 13.675 7.92842 13.675 7.51392C13.675 7.09942 13.3395 6.76392 12.925 6.76392Z" fill="white"/>
<path d="M12.925 10.5049H4.62396C4.20946 10.5049 3.87396 10.8404 3.87396 11.2549C3.87396 11.6694 4.20946 12.0049 4.62396 12.0049H12.925C13.3395 12.0049 13.675 11.6694 13.675 11.2549C13.675 10.8404 13.3395 10.5049 12.925 10.5049Z" fill="white"/>
</svg>
