<svg width="37" height="44" viewBox="0 0 37 44" fill="none" xmlns="http://www.w3.org/2000/svg">
<path d="M33.0372 0H7.41919C5.70229 0 4.30525 1.39704 4.30525 3.11395V7.5223H1.1918C0.778771 7.5223 0.444458 7.85661 0.444458 8.26965C0.444458 8.68268 0.778771 9.01699 1.1918 9.01699H4.30525V14.1851H1.1918C0.778771 14.1851 0.444458 14.5195 0.444458 14.9325C0.444458 15.3455 0.778771 15.6798 1.1918 15.6798H4.30525V20.848H1.1918C0.778771 20.848 0.444458 21.1823 0.444458 21.5953C0.444458 22.0079 0.778771 22.3427 1.1918 22.3427H4.30525V27.5103H1.1918C0.778771 27.5103 0.444458 27.8452 0.444458 28.2577C0.444458 28.6702 0.778771 29.005 1.1918 29.005H4.30525V33.6745H1.1918C0.778771 33.6745 0.444458 34.0093 0.444458 34.4218C0.444458 34.8344 0.778771 35.1692 1.1918 35.1692H4.30525V40.3323C4.30525 42.0492 5.70229 43.4463 7.41919 43.4463H27.6932L27.6982 43.4468L27.7032 43.4463H33.0377C34.7546 43.4463 36.1517 42.0492 36.1517 40.3323V3.11395C36.1512 1.39704 34.7541 0 33.0372 0ZM5.79994 40.3323V35.1692H8.7958C9.20884 35.1692 9.54315 34.8344 9.54315 34.4218C9.54315 34.0093 9.20884 33.6745 8.7958 33.6745H5.79994V29.005H8.7958C9.20884 29.005 9.54315 28.6702 9.54315 28.2577C9.54315 27.8452 9.20884 27.5103 8.7958 27.5103H5.79994V22.3422H8.7958C9.20884 22.3422 9.54315 22.0074 9.54315 21.5948C9.54315 21.1818 9.20884 20.8475 8.7958 20.8475H5.79994V15.6798H8.7958C9.20884 15.6798 9.54315 15.3455 9.54315 14.9325C9.54315 14.5195 9.20884 14.1851 8.7958 14.1851H5.79994V9.01699H8.7958C9.20884 9.01699 9.54315 8.68268 9.54315 8.26965C9.54315 7.85661 9.20884 7.5223 8.7958 7.5223H5.79994V3.11395C5.79994 2.22112 6.52636 1.49469 7.41919 1.49469H26.9503V41.9516H7.41919C6.52636 41.9516 5.79994 41.2252 5.79994 40.3323ZM34.6565 40.3323C34.6565 41.2252 33.9301 41.9516 33.0372 41.9516H28.445V1.49469H33.0372C33.9301 1.49469 34.6565 2.22112 34.6565 3.11395V40.3323Z" fill="white"/>
</svg>
