<svg width="15" height="15" viewBox="0 0 15 15" fill="none" xmlns="http://www.w3.org/2000/svg">
<path d="M15 7.5C15 3.3585 11.6415 0 7.49998 0C3.35847 0 -3.05176e-05 3.3585 -3.05176e-05 7.5C-3.05176e-05 11.6415 3.35847 15 7.49998 15C7.54404 15 7.58788 14.9991 7.63182 14.9983V9.15985H6.02049V7.28199H7.63182V5.90012C7.63182 4.29749 8.61018 3.42522 10.0398 3.42522C10.7244 3.42522 11.3128 3.47626 11.4844 3.49903V5.17399H10.4986C9.72083 5.17399 9.57022 5.54363 9.57022 6.08597V7.28199H11.4299L11.1875 9.15985H9.57022V14.7102C12.7051 13.8115 15 10.9234 15 7.5Z" fill="#5A5A5A"/>
</svg>
