<svg width="29" height="31" viewBox="0 0 29 31" fill="none" xmlns="http://www.w3.org/2000/svg">
<path d="M23.5612 19.5217C21.8135 19.5217 20.255 20.3546 19.2581 21.6417L10.9106 16.979C11.1062 16.4174 11.2135 15.8117 11.2135 15.1871C11.2135 14.5561 11.1062 13.9567 10.9043 13.3888L19.2455 8.7324C20.2361 10.0259 21.8009 10.865 23.5549 10.865C26.5456 10.865 28.9874 8.42955 28.9874 5.43251C28.9874 2.43548 26.552 0 23.5549 0C20.5579 0 18.1224 2.43548 18.1224 5.43251C18.1224 6.06347 18.2297 6.66918 18.4316 7.23073L10.0967 11.8872C9.10607 10.5874 7.5413 9.75455 5.78725 9.75455C2.79653 9.75455 0.354736 12.19 0.354736 15.1871C0.354736 18.1841 2.79653 20.6196 5.79356 20.6196C7.54761 20.6196 9.11238 19.7804 10.1093 18.4806L18.4505 23.1434C18.2486 23.7113 18.135 24.3233 18.135 24.9542C18.135 27.945 20.5705 30.3867 23.5675 30.3867C26.5646 30.3867 29 27.9513 29 24.9542C29 21.9572 26.5583 19.5217 23.5612 19.5217ZM23.5612 1.70989C25.6181 1.70989 27.2902 3.38191 27.2902 5.43882C27.2902 7.49573 25.6181 9.16776 23.5612 9.16776C21.5043 9.16776 19.8323 7.49573 19.8323 5.43882C19.8323 3.38191 21.5106 1.70989 23.5612 1.70989ZM5.79356 18.916C3.73665 18.916 2.06462 17.244 2.06462 15.1871C2.06462 13.1302 3.73665 11.4581 5.79356 11.4581C7.85047 11.4581 9.5225 13.1302 9.5225 15.1871C9.5225 17.244 7.84416 18.916 5.79356 18.916ZM23.5612 28.6769C21.5043 28.6769 19.8323 27.0048 19.8323 24.9479C19.8323 22.891 21.5043 21.219 23.5612 21.219C25.6181 21.219 27.2902 22.891 27.2902 24.9479C27.2902 27.0048 25.6181 28.6769 23.5612 28.6769Z" fill="#1F252B"/>
</svg>
