<?xml version="1.0"?>
<svg xmlns="http://www.w3.org/2000/svg" xmlns:xlink="http://www.w3.org/1999/xlink" version="1.1" id="Layer_1" x="0px" y="0px" viewBox="0 0 512 512" style="enable-background:new 0 0 512 512;" xml:space="preserve" width="512px" height="512px" class=""><g><g>
	<g>
		<path d="M256,0C114.615,0,0,114.615,0,256s114.615,256,256,256s256-114.615,256-256S397.385,0,256,0z M179.2,303.36    c-0.586,0.25-1.156,0.535-1.707,0.853l-35.84,26.88c-3.77,2.828-9.119,2.064-11.947-1.707c-1.108-1.477-1.707-3.274-1.707-5.12    v-128c0-2.686,1.265-5.215,3.413-6.827l34.133-25.6c3.77-2.828,9.119-2.064,11.947,1.707c1.108,1.477,1.707,3.274,1.707,5.12    V303.36z M247.467,324.267c0,4.713-3.82,8.533-8.533,8.533c-1.846,0-3.643-0.599-5.12-1.707l-35.84-26.88    c-0.551-0.319-1.121-0.604-1.707-0.853V170.667c0-4.713,3.82-8.533,8.533-8.533c1.846,0,3.643,0.599,5.12,1.707l35.84,26.88    c0.552,0.318,1.122,0.603,1.707,0.853V324.267z M315.733,303.36c-0.585,0.251-1.155,0.536-1.707,0.853l-35.84,26.88    c-3.77,2.828-9.119,2.064-11.947-1.707c-1.108-1.477-1.707-3.274-1.707-5.12V191.573c0.585-0.251,1.155-0.536,1.707-0.853    l35.84-26.88c3.77-2.828,9.119-2.064,11.947,1.707c1.108,1.477,1.707,3.274,1.707,5.12V303.36z M384,324.267    c0,4.713-3.82,8.533-8.533,8.533c-1.846,0-3.643-0.599-5.12-1.707l-35.84-26.88c-0.552-0.318-1.122-0.603-1.707-0.853V170.667    c0-4.713,3.821-8.533,8.533-8.533c1.846,0,3.643,0.599,5.12,1.707l34.133,25.6c2.149,1.612,3.413,4.141,3.413,6.827V324.267z" data-original="#000000" class="" data-old_color="#000000" fill="#FFFFFF"/>
	</g>
</g></g> </svg>
