<svg width="20" height="20" viewBox="0 0 20 20" fill="none" xmlns="http://www.w3.org/2000/svg">
<path d="M10 0C4.47721 0 0 4.47721 0 10C0 15.5228 4.47721 20 10 20C15.5228 20 20 15.5228 20 10C20 4.47721 15.5228 0 10 0ZM14.3365 11.3218C14.4152 11.4191 14.6023 11.6087 14.8984 11.891H14.9053L14.9122 11.8977L14.9191 11.9048L14.9331 11.9186C15.5853 12.5245 16.0269 13.0358 16.2583 13.4521C16.2723 13.475 16.2873 13.5042 16.3035 13.5389C16.3196 13.5736 16.3358 13.6348 16.352 13.7226C16.368 13.8108 16.3668 13.8891 16.3486 13.9585C16.3301 14.0276 16.2723 14.0917 16.1752 14.1493C16.078 14.2073 15.9416 14.2361 15.7657 14.2361L13.9895 14.2641C13.8786 14.2872 13.749 14.2756 13.6009 14.2294C13.4527 14.183 13.3327 14.1321 13.2402 14.0767L13.1013 13.9931C12.9624 13.896 12.8005 13.748 12.6156 13.5492C12.4304 13.3503 12.2721 13.171 12.1403 13.0114C12.0084 12.8518 11.8673 12.718 11.7168 12.6089C11.5664 12.5002 11.4358 12.4643 11.3248 12.5014C11.311 12.5063 11.2924 12.5144 11.2693 12.5258C11.2459 12.5373 11.2068 12.5706 11.1512 12.6263C11.0957 12.6819 11.046 12.7502 11.002 12.831C10.958 12.9121 10.9186 13.0323 10.884 13.1919C10.8493 13.3513 10.8341 13.5308 10.8389 13.7297C10.8389 13.7989 10.8306 13.8628 10.8146 13.9205C10.7984 13.9783 10.7809 14.0211 10.7625 14.0487L10.7347 14.0834C10.6514 14.1716 10.5289 14.2223 10.3671 14.2361H9.56907C9.24055 14.2547 8.9029 14.2166 8.55613 14.1217C8.20936 14.0266 7.90497 13.9043 7.64378 13.7539C7.38218 13.6038 7.1441 13.4511 6.92914 13.2962C6.71398 13.141 6.55094 13.0082 6.44001 12.8973L6.26663 12.7306C6.22039 12.6845 6.15672 12.615 6.0758 12.5223C5.99489 12.4298 5.82962 12.2195 5.57978 11.891C5.32994 11.5625 5.08477 11.2135 4.84426 10.8432C4.60375 10.4731 4.32045 9.98499 3.99416 9.37906C3.66807 8.77332 3.36632 8.14427 3.0887 7.49189C3.06092 7.41807 3.04693 7.35561 3.04693 7.30471C3.04693 7.25401 3.05382 7.2169 3.06781 7.19358L3.0956 7.15201C3.16495 7.064 3.29676 7.02 3.49104 7.02L5.3922 7.00621C5.44776 7.01553 5.50089 7.03054 5.55179 7.05143C5.60269 7.07211 5.6398 7.09178 5.66292 7.11024L5.6976 7.13112C5.77162 7.18223 5.82698 7.25604 5.86409 7.35318C5.95656 7.58477 6.06303 7.82406 6.18328 8.07146C6.30354 8.31887 6.39844 8.50746 6.4678 8.63684L6.57872 8.83821C6.71277 9.11563 6.84235 9.35634 6.96727 9.55974C7.09239 9.76334 7.20433 9.92193 7.3039 10.0351C7.40327 10.1484 7.49919 10.2377 7.59186 10.3022C7.68434 10.3671 7.76302 10.3995 7.82791 10.3995C7.8926 10.3995 7.95506 10.3879 8.01529 10.3648C8.02442 10.3602 8.03597 10.3486 8.04997 10.3301C8.06396 10.3117 8.09154 10.2608 8.13331 10.1772C8.17489 10.0941 8.20612 9.9854 8.227 9.85115C8.24789 9.71731 8.26979 9.52993 8.29291 9.28942C8.31603 9.04871 8.31603 8.75973 8.29291 8.42209C8.28358 8.23694 8.26269 8.06822 8.23045 7.91552C8.198 7.76302 8.16556 7.65655 8.13331 7.59633L8.09154 7.51318C7.97595 7.35602 7.77945 7.25645 7.50182 7.21467C7.4416 7.20575 7.45316 7.15019 7.5365 7.04839C7.61519 6.96037 7.70299 6.89122 7.80013 6.84012C8.0453 6.72007 8.59811 6.6645 9.45855 6.67343C9.83777 6.67829 10.1501 6.7081 10.3952 6.76367C10.4877 6.78699 10.5652 6.81802 10.6276 6.85736C10.6901 6.8965 10.7375 6.95226 10.77 7.02364C10.8022 7.09543 10.8266 7.16945 10.8428 7.2457C10.859 7.32215 10.8671 7.4276 10.8671 7.56145C10.8671 7.69569 10.8649 7.82304 10.8602 7.9431C10.8556 8.06335 10.8499 8.2266 10.843 8.43223C10.8361 8.63806 10.8325 8.82909 10.8325 9.0047C10.8325 9.05581 10.8302 9.15274 10.8256 9.29611C10.8209 9.43969 10.8195 9.55062 10.8221 9.6291C10.8243 9.70778 10.8325 9.80167 10.8462 9.91016C10.8602 10.0189 10.8868 10.1093 10.9261 10.1807C10.9653 10.2525 11.0174 10.3091 11.0823 10.3506C11.1192 10.3602 11.1585 10.3693 11.2003 10.3786C11.2419 10.3877 11.3019 10.3626 11.3806 10.3022C11.4591 10.2421 11.5471 10.1622 11.6442 10.0629C11.7414 9.9637 11.8616 9.80877 12.005 9.59807C12.1482 9.38798 12.3055 9.13915 12.4767 8.85221C12.7543 8.37119 13.0017 7.85062 13.2191 7.29092C13.2375 7.24448 13.2607 7.20413 13.2884 7.16945C13.3162 7.13457 13.3416 7.11024 13.3647 7.09645L13.3925 7.07556C13.4016 7.0709 13.4132 7.06522 13.4272 7.05832C13.4411 7.05163 13.4712 7.04453 13.5174 7.03744C13.5636 7.03074 13.6099 7.02953 13.6563 7.03419L15.6546 7.02C15.8349 6.99708 15.9829 7.00276 16.0985 7.03723C16.2141 7.07191 16.2859 7.11024 16.3137 7.15181L16.3555 7.22116C16.4617 7.51744 16.1149 8.19699 15.3147 9.26103C15.2036 9.40927 15.0531 9.60598 14.8637 9.85095C14.503 10.3137 14.2949 10.6167 14.2397 10.7605C14.1607 10.9497 14.1931 11.137 14.3365 11.3218Z" fill="#FDFDFD"/>
</svg>
