<svg width="20" height="20" viewBox="0 0 20 20" fill="none" xmlns="http://www.w3.org/2000/svg">
<path d="M19.9999 10C19.9999 4.478 15.5219 0 9.99994 0C4.47797 0 0 4.478 0 10C0 15.522 4.47797 20 9.99994 20C10.0587 20 10.1171 19.9988 10.1757 19.9977V12.2131H8.0273V9.70932H10.1757V7.86682C10.1757 5.72998 11.4802 4.56696 13.3863 4.56696C14.2991 4.56696 15.0837 4.63501 15.3124 4.66537V6.89865H13.998C12.961 6.89865 12.7602 7.39151 12.7602 8.11462V9.70932H15.2398L14.9166 12.2131H12.7602V19.6136C16.9401 18.4154 19.9999 14.5645 19.9999 10Z" fill="white"/>
</svg>
