<svg width="20" height="20" viewBox="0 0 20 20" fill="none" xmlns="http://www.w3.org/2000/svg">
<path fill-rule="evenodd" clip-rule="evenodd" d="M10 20C15.5228 20 20 15.5228 20 10C20 4.47715 15.5228 0 10 0C4.47715 0 0 4.47715 0 10C0 15.5228 4.47715 20 10 20ZM13.8251 6.24936C13.8251 8.36188 12.1126 10.0744 10.0002 10.0744C7.88771 10.0744 6.17524 8.36188 6.17524 6.24936C6.17524 4.13684 7.88771 2.42432 10.0002 2.42432C12.1126 2.42432 13.8251 4.13684 13.8251 6.24936ZM11.8819 6.24936C11.8819 5.21005 11.0394 4.36757 10.0002 4.36757C8.96089 4.36757 8.11843 5.21027 8.11843 6.24936C8.11843 7.28867 8.96089 8.13115 10.0002 8.13115C11.0394 8.13115 11.8819 7.28867 11.8819 6.24936ZM12.8001 10.3727C13.595 9.74627 14.193 10.1072 14.409 10.5411C14.7855 11.2974 14.3602 11.6631 13.4003 12.2794C12.5872 12.8014 11.4726 12.9989 10.7445 13.0739L11.3538 13.683L13.6077 15.9369C13.9501 16.2795 13.9503 16.8348 13.6077 17.1774L13.5044 17.2807C13.1618 17.6232 12.6064 17.6232 12.264 17.2807L10.0101 15.0267L7.75619 17.2807C7.4136 17.623 6.85837 17.6232 6.51579 17.2807L6.41251 17.1774C6.06993 16.8348 6.06993 16.2793 6.41251 15.9369L8.66643 13.683L9.27364 13.0757C8.54599 13.0021 7.41948 12.8054 6.59963 12.2791C5.63966 11.6629 5.21437 11.2974 5.59085 10.5411C5.80689 10.1072 6.40506 9.74627 7.19983 10.3727C8.27413 11.2192 9.99994 11.2192 9.99994 11.2192C9.99994 11.2192 11.7257 11.2192 12.8001 10.3727Z" fill="white"/>
</svg>
