<svg width="20" height="20" viewBox="0 0 20 20" fill="none" xmlns="http://www.w3.org/2000/svg">
<path d="M8.86523 11.4634L11.9619 9.82053L8.86523 8.21094V11.4634Z" fill="#FDFDFD"/>
<path d="M9.99994 0C4.47718 0 0 4.47721 0 10C0 15.5228 4.47718 20 9.99994 20C15.5227 20 19.9999 15.5228 19.9999 10C19.9999 4.47721 15.5227 0 9.99994 0ZM15.5833 12.329C15.4501 13.1727 15.0423 13.6308 14.1847 13.7277C13.2263 13.836 11.0715 13.8859 10.1137 13.8859C9.12267 13.8859 7.1183 13.8443 6.11774 13.761C5.25771 13.6894 4.67084 13.209 4.55262 12.354C4.46663 11.7314 4.41107 10.9914 4.41107 9.81485C4.41107 8.50503 4.45832 7.9508 4.56925 7.35906C4.72762 6.51464 5.13077 6.10561 6.05103 6.0105C7.01671 5.91053 7.92966 5.86064 9.97216 5.86064C10.9707 5.86064 13.1235 5.91235 14.118 6.00219C14.9865 6.08067 15.4759 6.61198 15.5831 7.45904C15.658 8.05017 15.7247 8.89641 15.7247 9.80674C15.7249 11.4049 15.5833 12.329 15.5833 12.329Z" fill="#FDFDFD"/>
</svg>
