<svg width="20" height="20" viewBox="0 0 20 20" fill="none" xmlns="http://www.w3.org/2000/svg">
<path d="M10 0C4.47721 0 0 4.47721 0 10C0 15.5228 4.47721 20 10 20C15.5228 20 20 15.5228 20 10C20 4.47721 15.5228 0 10 0ZM15.5516 7.61397V7.96115C15.5516 11.4327 12.948 15.3671 8.14568 15.3671C6.64139 15.3671 5.31068 14.9621 4.15335 14.2099C4.38473 14.2677 4.55832 14.2677 4.78971 14.2677C6.00483 14.2677 7.16195 13.8628 8.02989 13.1684C6.87277 13.1684 5.94703 12.4162 5.59985 11.3747C5.71565 11.4325 5.88924 11.4325 6.06282 11.4325C6.29421 11.4325 6.52559 11.3747 6.75718 11.3167C5.54206 11.0853 4.67432 10.0438 4.67432 8.77089V8.71309C5.0215 8.94448 5.42647 9.06027 5.83144 9.06027C5.13709 8.5973 4.67432 7.84515 4.67432 6.91941C4.67432 6.39864 4.79011 5.99367 5.0215 5.5887C6.35221 7.15079 8.26168 8.19233 10.4023 8.30812C10.3445 8.13453 10.3445 7.96094 10.3445 7.72956C10.3445 6.28305 11.5017 5.12593 12.9482 5.12593C13.7003 5.12593 14.3947 5.41531 14.8574 5.93588C15.4938 5.82008 16.0146 5.5887 16.5353 5.29952C16.3039 5.93588 15.899 6.39885 15.3782 6.74603C15.899 6.68823 16.4197 6.57244 16.8825 6.34105C16.5353 6.86182 16.1302 7.32459 15.5516 7.61397Z" fill="white"/>
</svg>
