<svg width="12" height="9" viewBox="0 0 12 9" fill="none" xmlns="http://www.w3.org/2000/svg">
<path d="M11 0H1.00001C0.448477 0 0 0.448477 0 1.00001V8.00002C0 8.55152 0.448477 9 1.00001 9H11C11.5515 9 12 8.55152 12 7.99999V1.00001C12 0.448477 11.5515 0 11 0ZM1.00001 0.499992H11C11.0369 0.499992 11.0693 0.513422 11.1039 0.521016C10.2381 1.31337 7.36741 3.93959 6.36281 4.84472C6.2842 4.91552 6.1575 4.99999 6.00002 4.99999C5.84255 4.99999 5.71584 4.91552 5.63698 4.84448C4.63247 3.93949 1.76159 1.31313 0.895969 0.521063C0.930609 0.513469 0.963141 0.499992 1.00001 0.499992ZM0.499992 7.99999V1.00001C0.499992 0.951023 0.514758 0.906586 0.527977 0.86182C1.1906 1.46829 3.19366 3.30073 4.49248 4.48181C3.19788 5.59385 1.1943 7.49341 0.526406 8.1303C0.514617 8.08779 0.499992 8.04621 0.499992 7.99999ZM11 8.50001H1.00001C0.96007 8.50001 0.924562 8.48609 0.887273 8.47718C1.57744 7.81924 3.59377 5.90876 4.8656 4.82072C5.0314 4.97112 5.18285 5.10825 5.30224 5.21583C5.5083 5.40188 5.7495 5.50001 6 5.50001C6.2505 5.50001 6.4917 5.40185 6.6975 5.21606C6.81694 5.10844 6.96851 4.97119 7.1344 4.82072C8.4063 5.90864 10.4224 7.81898 11.1127 8.47718C11.0754 8.48609 11.04 8.50001 11 8.50001ZM11.5 7.99999C11.5 8.04619 11.4854 8.08779 11.4736 8.1303C10.8055 7.49309 8.80212 5.59373 7.50755 4.48184C8.80641 3.30075 10.8092 1.46848 11.472 0.861773C11.4852 0.906539 11.5 0.951 11.5 0.999984V7.99999Z" fill="white"/>
</svg>
