<svg width="29" height="27" viewBox="0 0 29 27" fill="none" xmlns="http://www.w3.org/2000/svg">
<path d="M14.3937 26.1882C13.9839 26.1882 13.5888 26.0399 13.2809 25.7704C12.1179 24.7544 10.9967 23.7996 10.0075 22.9575L10.0024 22.9531C7.1022 20.4838 4.59775 18.3513 2.8552 16.2506C0.907295 13.9022 0 11.6756 0 9.24316C0 6.87984 0.811096 4.69952 2.28372 3.10357C3.77392 1.48874 5.81868 0.599365 8.042 0.599365C9.70373 0.599365 11.2255 1.12426 12.5651 2.15933C13.2411 2.68181 13.8539 3.32125 14.3937 4.06711C14.9338 3.32125 15.5463 2.68181 16.2226 2.15933C17.5621 1.12426 19.0839 0.599365 20.7457 0.599365C22.9688 0.599365 25.0138 1.48874 26.5039 3.10357C27.9766 4.69952 28.7874 6.87984 28.7874 9.24316C28.7874 11.6756 27.8804 13.9022 25.9325 16.2504C24.1899 18.3513 21.6857 20.4835 18.7859 22.9526C17.7949 23.7961 16.672 24.7524 15.5064 25.7708C15.1987 26.0399 14.8033 26.1882 14.3937 26.1882ZM8.042 2.28419C6.29528 2.28419 4.69065 2.98068 3.52332 4.24551C2.33863 5.52943 1.68611 7.30422 1.68611 9.24316C1.68611 11.289 2.44713 13.1186 4.15344 15.1756C5.80265 17.1639 8.2557 19.2525 11.096 21.6709L11.1012 21.6753C12.0942 22.5208 13.2198 23.4793 14.3913 24.5027C15.5698 23.4773 16.6972 22.5173 17.6921 21.6705C20.5322 19.2521 22.985 17.1639 24.6342 15.1756C26.3403 13.1186 27.1013 11.289 27.1013 9.24316C27.1013 7.30422 26.4488 5.52943 25.2641 4.24551C24.097 2.98068 22.4922 2.28419 20.7457 2.28419C19.4661 2.28419 18.2913 2.69059 17.254 3.49197C16.3295 4.20645 15.6856 5.10965 15.308 5.74162C15.1139 6.06661 14.7721 6.26059 14.3937 6.26059C14.0153 6.26059 13.6736 6.06661 13.4794 5.74162C13.1021 5.10965 12.4581 4.20645 11.5335 3.49197C10.4962 2.69059 9.32135 2.28419 8.042 2.28419Z" fill="#1F252B"/>
</svg>
