<svg width="201" height="48" viewBox="0 0 201 48" fill="none" xmlns="http://www.w3.org/2000/svg">
<path d="M44.0039 16.4258H40.6992V23H37.7344V5.9375H43.7344C45.7031 5.9375 47.2227 6.37891 48.293 7.26172C49.3633 8.14453 49.8984 9.42188 49.8984 11.0938C49.8984 12.2344 49.6211 13.1914 49.0664 13.9648C48.5195 14.7305 47.7539 15.3203 46.7695 15.7344L50.6016 22.8477V23H47.4258L44.0039 16.4258ZM40.6992 14.0469H43.7461C44.7461 14.0469 45.5273 13.7969 46.0898 13.2969C46.6523 12.7891 46.9336 12.0977 46.9336 11.2227C46.9336 10.3086 46.6719 9.60156 46.1484 9.10156C45.6328 8.60156 44.8594 8.34375 43.8281 8.32812H40.6992V14.0469ZM58.0195 23.2344C56.2148 23.2344 54.75 22.668 53.625 21.5352C52.5078 20.3945 51.9492 18.8789 51.9492 16.9883V16.6367C51.9492 15.3711 52.1914 14.2422 52.6758 13.25C53.168 12.25 53.8555 11.4727 54.7383 10.918C55.6211 10.3633 56.6055 10.0859 57.6914 10.0859C59.418 10.0859 60.75 10.6367 61.6875 11.7383C62.6328 12.8398 63.1055 14.3984 63.1055 16.4141V17.5625H54.8203C54.9062 18.6094 55.2539 19.4375 55.8633 20.0469C56.4805 20.6562 57.2539 20.9609 58.1836 20.9609C59.4883 20.9609 60.5508 20.4336 61.3711 19.3789L62.9062 20.8438C62.3984 21.6016 61.7188 22.1914 60.8672 22.6133C60.0234 23.0273 59.0742 23.2344 58.0195 23.2344ZM57.6797 12.3711C56.8984 12.3711 56.2656 12.6445 55.7812 13.1914C55.3047 13.7383 55 14.5 54.8672 15.4766H60.293V15.2656C60.2305 14.3125 59.9766 13.5938 59.5312 13.1094C59.0859 12.6172 58.4688 12.3711 57.6797 12.3711ZM72.9023 23C72.7773 22.7578 72.668 22.3633 72.5742 21.8164C71.668 22.7617 70.5586 23.2344 69.2461 23.2344C67.9727 23.2344 66.9336 22.8711 66.1289 22.1445C65.3242 21.418 64.9219 20.5195 64.9219 19.4492C64.9219 18.0977 65.4219 17.0625 66.4219 16.3438C67.4297 15.6172 68.8672 15.2539 70.7344 15.2539H72.4805V14.4219C72.4805 13.7656 72.2969 13.2422 71.9297 12.8516C71.5625 12.4531 71.0039 12.2539 70.2539 12.2539C69.6055 12.2539 69.0742 12.418 68.6602 12.7461C68.2461 13.0664 68.0391 13.4766 68.0391 13.9766H65.1914C65.1914 13.2812 65.4219 12.6328 65.8828 12.0312C66.3438 11.4219 66.9688 10.9453 67.7578 10.6016C68.5547 10.2578 69.4414 10.0859 70.418 10.0859C71.9023 10.0859 73.0859 10.4609 73.9688 11.2109C74.8516 11.9531 75.3047 13 75.3281 14.3516V20.0703C75.3281 21.2109 75.4883 22.1211 75.8086 22.8008V23H72.9023ZM69.7734 20.9492C70.3359 20.9492 70.8633 20.8125 71.3555 20.5391C71.8555 20.2656 72.2305 19.8984 72.4805 19.4375V17.0469H70.9453C69.8906 17.0469 69.0977 17.2305 68.5664 17.5977C68.0352 17.9648 67.7695 18.4844 67.7695 19.1562C67.7695 19.7031 67.9492 20.1406 68.3086 20.4688C68.6758 20.7891 69.1641 20.9492 69.7734 20.9492ZM81.3398 23H78.4922V5H81.3398V23ZM88.0195 7.23828V10.3203H90.2578V12.4297H88.0195V19.5078C88.0195 19.9922 88.1133 20.3438 88.3008 20.5625C88.4961 20.7734 88.8398 20.8789 89.332 20.8789C89.6602 20.8789 89.9922 20.8398 90.3281 20.7617V22.9648C89.6797 23.1445 89.0547 23.2344 88.4531 23.2344C86.2656 23.2344 85.1719 22.0273 85.1719 19.6133V12.4297H83.0859V10.3203H85.1719V7.23828H88.0195ZM96.8789 18.9219L99.457 10.3203H102.492L97.4531 24.9219C96.6797 27.0547 95.3672 28.1211 93.5156 28.1211C93.1016 28.1211 92.6445 28.0508 92.1445 27.9102V25.707L92.6836 25.7422C93.4023 25.7422 93.9414 25.6094 94.3008 25.3438C94.668 25.0859 94.957 24.6484 95.168 24.0312L95.5781 22.9414L91.125 10.3203H94.1953L96.8789 18.9219ZM109.664 16.8945H103.512V14.5977H109.664V16.8945ZM121.207 18.6055C121.207 17.8555 120.941 17.2773 120.41 16.8711C119.887 16.4648 118.938 16.0547 117.562 15.6406C116.188 15.2266 115.094 14.7656 114.281 14.2578C112.727 13.2812 111.949 12.0078 111.949 10.4375C111.949 9.0625 112.508 7.92969 113.625 7.03906C114.75 6.14844 116.207 5.70312 117.996 5.70312C119.184 5.70312 120.242 5.92188 121.172 6.35938C122.102 6.79687 122.832 7.42188 123.363 8.23438C123.895 9.03906 124.16 9.93359 124.16 10.918H121.207C121.207 10.0273 120.926 9.33203 120.363 8.83203C119.809 8.32422 119.012 8.07031 117.973 8.07031C117.004 8.07031 116.25 8.27734 115.711 8.69141C115.18 9.10547 114.914 9.68359 114.914 10.4258C114.914 11.0508 115.203 11.5742 115.781 11.9961C116.359 12.4102 117.312 12.8164 118.641 13.2148C119.969 13.6055 121.035 14.0547 121.84 14.5625C122.645 15.0625 123.234 15.6406 123.609 16.2969C123.984 16.9453 124.172 17.707 124.172 18.582C124.172 20.0039 123.625 21.1367 122.531 21.9805C121.445 22.8164 119.969 23.2344 118.102 23.2344C116.867 23.2344 115.73 23.0078 114.691 22.5547C113.66 22.0938 112.855 21.4609 112.277 20.6562C111.707 19.8516 111.422 18.9141 111.422 17.8438H114.387C114.387 18.8125 114.707 19.5625 115.348 20.0938C115.988 20.625 116.906 20.8906 118.102 20.8906C119.133 20.8906 119.906 20.6836 120.422 20.2695C120.945 19.8477 121.207 19.293 121.207 18.6055ZM129.527 23H126.68V5H129.527V23ZM132.105 16.543C132.105 15.3008 132.352 14.1836 132.844 13.1914C133.336 12.1914 134.027 11.4258 134.918 10.8945C135.809 10.3555 136.832 10.0859 137.988 10.0859C139.699 10.0859 141.086 10.6367 142.148 11.7383C143.219 12.8398 143.797 14.3008 143.883 16.1211L143.895 16.7891C143.895 18.0391 143.652 19.1562 143.168 20.1406C142.691 21.125 142.004 21.8867 141.105 22.4258C140.215 22.9648 139.184 23.2344 138.012 23.2344C136.223 23.2344 134.789 22.6406 133.711 21.4531C132.641 20.2578 132.105 18.668 132.105 16.6836V16.543ZM134.953 16.7891C134.953 18.0938 135.223 19.1172 135.762 19.8594C136.301 20.5938 137.051 20.9609 138.012 20.9609C138.973 20.9609 139.719 20.5859 140.25 19.8359C140.789 19.0859 141.059 17.9883 141.059 16.543C141.059 15.2617 140.781 14.2461 140.227 13.4961C139.68 12.7461 138.934 12.3711 137.988 12.3711C137.059 12.3711 136.32 12.7422 135.773 13.4844C135.227 14.2188 134.953 15.3203 134.953 16.7891ZM150.586 19.3906L153.27 10.3203H156.211L151.816 23H149.344L144.914 10.3203H147.867L150.586 19.3906ZM165.387 23C165.262 22.7578 165.152 22.3633 165.059 21.8164C164.152 22.7617 163.043 23.2344 161.73 23.2344C160.457 23.2344 159.418 22.8711 158.613 22.1445C157.809 21.418 157.406 20.5195 157.406 19.4492C157.406 18.0977 157.906 17.0625 158.906 16.3438C159.914 15.6172 161.352 15.2539 163.219 15.2539H164.965V14.4219C164.965 13.7656 164.781 13.2422 164.414 12.8516C164.047 12.4531 163.488 12.2539 162.738 12.2539C162.09 12.2539 161.559 12.418 161.145 12.7461C160.73 13.0664 160.523 13.4766 160.523 13.9766H157.676C157.676 13.2812 157.906 12.6328 158.367 12.0312C158.828 11.4219 159.453 10.9453 160.242 10.6016C161.039 10.2578 161.926 10.0859 162.902 10.0859C164.387 10.0859 165.57 10.4609 166.453 11.2109C167.336 11.9531 167.789 13 167.812 14.3516V20.0703C167.812 21.2109 167.973 22.1211 168.293 22.8008V23H165.387ZM162.258 20.9492C162.82 20.9492 163.348 20.8125 163.84 20.5391C164.34 20.2656 164.715 19.8984 164.965 19.4375V17.0469H163.43C162.375 17.0469 161.582 17.2305 161.051 17.5977C160.52 17.9648 160.254 18.4844 160.254 19.1562C160.254 19.7031 160.434 20.1406 160.793 20.4688C161.16 20.7891 161.648 20.9492 162.258 20.9492ZM174.914 17.5625L173.648 18.8633V23H170.801V5H173.648V15.3828L174.539 14.2695L178.043 10.3203H181.465L176.754 15.6055L181.969 23H178.676L174.914 17.5625ZM186.363 23H183.516V10.3203H186.363V23ZM183.34 7.02734C183.34 6.58984 183.477 6.22656 183.75 5.9375C184.031 5.64844 184.43 5.50391 184.945 5.50391C185.461 5.50391 185.859 5.64844 186.141 5.9375C186.422 6.22656 186.562 6.58984 186.562 7.02734C186.562 7.45703 186.422 7.81641 186.141 8.10547C185.859 8.38672 185.461 8.52734 184.945 8.52734C184.43 8.52734 184.031 8.38672 183.75 8.10547C183.477 7.81641 183.34 7.45703 183.34 7.02734ZM197.051 23C196.926 22.7578 196.816 22.3633 196.723 21.8164C195.816 22.7617 194.707 23.2344 193.395 23.2344C192.121 23.2344 191.082 22.8711 190.277 22.1445C189.473 21.418 189.07 20.5195 189.07 19.4492C189.07 18.0977 189.57 17.0625 190.57 16.3438C191.578 15.6172 193.016 15.2539 194.883 15.2539H196.629V14.4219C196.629 13.7656 196.445 13.2422 196.078 12.8516C195.711 12.4531 195.152 12.2539 194.402 12.2539C193.754 12.2539 193.223 12.418 192.809 12.7461C192.395 13.0664 192.188 13.4766 192.188 13.9766H189.34C189.34 13.2812 189.57 12.6328 190.031 12.0312C190.492 11.4219 191.117 10.9453 191.906 10.6016C192.703 10.2578 193.59 10.0859 194.566 10.0859C196.051 10.0859 197.234 10.4609 198.117 11.2109C199 11.9531 199.453 13 199.477 14.3516V20.0703C199.477 21.2109 199.637 22.1211 199.957 22.8008V23H197.051ZM193.922 20.9492C194.484 20.9492 195.012 20.8125 195.504 20.5391C196.004 20.2656 196.379 19.8984 196.629 19.4375V17.0469H195.094C194.039 17.0469 193.246 17.2305 192.715 17.5977C192.184 17.9648 191.918 18.4844 191.918 19.1562C191.918 19.7031 192.098 20.1406 192.457 20.4688C192.824 20.7891 193.312 20.9492 193.922 20.9492Z" fill="#1F252B"/>
<path d="M9.22607 42.959H5.94971L5.21387 45H4.15039L7.13672 37.1797H8.03906L11.0308 45H9.97266L9.22607 42.959ZM6.26123 42.1104H8.91992L7.58789 38.4526L6.26123 42.1104ZM15.6821 40.0103H13.002V45H12.0029V39.1885H15.6821V40.0103ZM18.8511 45.1074C18.0633 45.1074 17.4224 44.8496 16.9282 44.334C16.4341 43.8148 16.187 43.1219 16.187 42.2554V42.0728C16.187 41.4963 16.2962 40.9824 16.5146 40.5312C16.7367 40.0765 17.0446 39.722 17.4385 39.4678C17.8359 39.21 18.2656 39.0811 18.7275 39.0811C19.4831 39.0811 20.0703 39.3299 20.4893 39.8276C20.9082 40.3254 21.1177 41.0379 21.1177 41.9653V42.3789H17.1807C17.195 42.9518 17.3615 43.4155 17.6802 43.77C18.0024 44.1209 18.4106 44.2964 18.9048 44.2964C19.2557 44.2964 19.5529 44.2248 19.7964 44.0815C20.0399 43.9383 20.2529 43.7485 20.4355 43.5122L21.0425 43.9849C20.5555 44.7332 19.825 45.1074 18.8511 45.1074ZM18.7275 39.8975C18.3265 39.8975 17.9899 40.0443 17.7178 40.3379C17.4456 40.6279 17.2773 41.0361 17.2129 41.5625H20.124V41.4873C20.0954 40.9824 19.9593 40.5921 19.7158 40.3164C19.4723 40.0371 19.1429 39.8975 18.7275 39.8975ZM27.0205 45H26.0269V42.5186H23.3574V45H22.3584V39.1885H23.3574V41.7075H26.0269V39.1885H27.0205V45ZM32.9395 39.9941H30.9897V45H29.9961V39.9941H28.084V39.1885H32.9395V39.9941ZM35.8076 44.2964C36.1621 44.2964 36.4718 44.189 36.7368 43.9741C37.0018 43.7593 37.1486 43.4907 37.1772 43.1685H38.1172C38.0993 43.5015 37.9847 43.8184 37.7734 44.1191C37.5622 44.4199 37.2793 44.6598 36.9248 44.8389C36.5739 45.0179 36.2015 45.1074 35.8076 45.1074C35.0163 45.1074 34.3861 44.8442 33.917 44.3179C33.4515 43.7879 33.2188 43.0646 33.2188 42.1479V41.9814C33.2188 41.4157 33.3226 40.9126 33.5303 40.4722C33.738 40.0317 34.0352 39.6898 34.4219 39.4463C34.8122 39.2028 35.2723 39.0811 35.8022 39.0811C36.4539 39.0811 36.9946 39.2762 37.4243 39.6665C37.8576 40.0568 38.0885 40.5635 38.1172 41.1865H37.1772C37.1486 40.8105 37.0054 40.5026 36.7476 40.2627C36.4933 40.0192 36.1782 39.8975 35.8022 39.8975C35.2974 39.8975 34.9053 40.0801 34.626 40.4453C34.3503 40.807 34.2124 41.3315 34.2124 42.019V42.207C34.2124 42.8766 34.3503 43.3923 34.626 43.7539C34.9017 44.1156 35.2956 44.2964 35.8076 44.2964ZM43.5527 39.9941H41.603V45H40.6094V39.9941H38.6973V39.1885H43.5527V39.9941ZM44.6108 45V39.1885H46.8774C47.6509 39.1885 48.2435 39.3245 48.6553 39.5967C49.0706 39.8652 49.2783 40.2609 49.2783 40.7837C49.2783 41.0522 49.1978 41.2957 49.0366 41.5142C48.8755 41.729 48.6374 41.8937 48.3223 42.0083C48.6732 42.0907 48.9543 42.2518 49.1655 42.4917C49.3804 42.7316 49.4878 43.0181 49.4878 43.3511C49.4878 43.8846 49.2909 44.2928 48.897 44.5757C48.5067 44.8586 47.9535 45 47.2373 45H44.6108ZM45.6045 42.4487V44.1997H47.248C47.6634 44.1997 47.9731 44.1227 48.1772 43.9688C48.3849 43.8148 48.4888 43.5981 48.4888 43.3188C48.4888 42.7388 48.0627 42.4487 47.2104 42.4487H45.6045ZM45.6045 41.6538H46.8882C47.8192 41.6538 48.2847 41.3817 48.2847 40.8374C48.2847 40.2931 47.8442 40.012 46.9634 39.9941H45.6045V41.6538ZM50.5405 42.0405C50.5405 41.4712 50.6515 40.9591 50.8735 40.5044C51.0991 40.0496 51.4106 39.6987 51.8081 39.4517C52.2091 39.2046 52.6657 39.0811 53.1777 39.0811C53.9691 39.0811 54.6082 39.355 55.0952 39.9028C55.5858 40.4507 55.8311 41.1794 55.8311 42.0889V42.1587C55.8311 42.7244 55.7218 43.2329 55.5034 43.6841C55.2886 44.1317 54.9788 44.4808 54.5742 44.7314C54.1732 44.9821 53.7113 45.1074 53.1885 45.1074C52.4007 45.1074 51.7616 44.8335 51.271 44.2856C50.784 43.7378 50.5405 43.0127 50.5405 42.1104V42.0405ZM51.5396 42.1587C51.5396 42.8032 51.6882 43.3206 51.9854 43.7109C52.2861 44.1012 52.6872 44.2964 53.1885 44.2964C53.6934 44.2964 54.0944 44.0994 54.3916 43.7056C54.6888 43.3081 54.8374 42.7531 54.8374 42.0405C54.8374 41.4032 54.6852 40.8875 54.3809 40.4937C54.0801 40.0962 53.679 39.8975 53.1777 39.8975C52.6872 39.8975 52.2915 40.0926 51.9907 40.4829C51.6899 40.8732 51.5396 41.4318 51.5396 42.1587ZM64.5537 45H63.5601V42.5186H60.8906V45H59.8916V39.1885H60.8906V41.7075H63.5601V39.1885H64.5537V45ZM68.5659 45.1074C67.7782 45.1074 67.1372 44.8496 66.6431 44.334C66.1489 43.8148 65.9019 43.1219 65.9019 42.2554V42.0728C65.9019 41.4963 66.0111 40.9824 66.2295 40.5312C66.4515 40.0765 66.7594 39.722 67.1533 39.4678C67.5508 39.21 67.9805 39.0811 68.4424 39.0811C69.1979 39.0811 69.7852 39.3299 70.2041 39.8276C70.623 40.3254 70.8325 41.0379 70.8325 41.9653V42.3789H66.8955C66.9098 42.9518 67.0763 43.4155 67.395 43.77C67.7173 44.1209 68.1255 44.2964 68.6196 44.2964C68.9705 44.2964 69.2677 44.2248 69.5112 44.0815C69.7547 43.9383 69.9678 43.7485 70.1504 43.5122L70.7573 43.9849C70.2703 44.7332 69.5399 45.1074 68.5659 45.1074ZM68.4424 39.8975C68.0413 39.8975 67.7048 40.0443 67.4326 40.3379C67.1605 40.6279 66.9922 41.0361 66.9277 41.5625H69.8389V41.4873C69.8102 40.9824 69.6742 40.5921 69.4307 40.3164C69.1872 40.0371 68.8577 39.8975 68.4424 39.8975ZM71.939 44.189L72.2827 43.7646C72.6694 43.2633 72.8896 42.5114 72.9434 41.5088L73.0347 39.1885H76.7783V44.189H77.5249V46.708H76.5312V45H72.4761V46.708H71.4824L71.4878 44.189H71.939ZM73.1152 44.189H75.7847V40.1069H73.9961L73.937 41.4927C73.8761 42.6493 73.6022 43.548 73.1152 44.189ZM78.7173 45V39.1885H80.9839C81.7573 39.1885 82.3499 39.3245 82.7617 39.5967C83.1771 39.8652 83.3848 40.2609 83.3848 40.7837C83.3848 41.0522 83.3042 41.2957 83.1431 41.5142C82.9819 41.729 82.7438 41.8937 82.4287 42.0083C82.7796 42.0907 83.0607 42.2518 83.272 42.4917C83.4868 42.7316 83.5942 43.0181 83.5942 43.3511C83.5942 43.8846 83.3973 44.2928 83.0034 44.5757C82.6131 44.8586 82.0599 45 81.3438 45H78.7173ZM79.7109 42.4487V44.1997H81.3545C81.7699 44.1997 82.0796 44.1227 82.2837 43.9688C82.4914 43.8148 82.5952 43.5981 82.5952 43.3188C82.5952 42.7388 82.1691 42.4487 81.3169 42.4487H79.7109ZM79.7109 41.6538H80.9946C81.9256 41.6538 82.3911 41.3817 82.3911 40.8374C82.3911 40.2931 81.9507 40.012 81.0698 39.9941H79.7109V41.6538ZM88.6699 39.1885H89.6636V45H88.6699V40.7622L85.9897 45H84.9961V39.1885H85.9897V43.4316L88.6699 39.1885ZM95.894 42.4756H95.1958V45H94.2021V42.4756H93.5039L91.8765 45H90.6196L92.6982 41.9922L90.8184 39.1885H92.0215L93.52 41.5947H94.2021V39.1885H95.1958V41.5947H95.8726L97.3818 39.1885H98.585L96.6997 41.9976L98.7783 45H97.5215L95.894 42.4756ZM103.44 39.1885H104.434V45H103.44V40.7622L100.76 45H99.7666V39.1885H100.76V43.4316L103.44 39.1885ZM109.375 43.6841L111.352 39.1885H112.593V45H111.599V40.7729L109.719 45H109.032L107.114 40.6816V45H106.121V39.1885H107.41L109.375 43.6841ZM113.93 42.0405C113.93 41.4712 114.041 40.9591 114.263 40.5044C114.489 40.0496 114.8 39.6987 115.198 39.4517C115.599 39.2046 116.055 39.0811 116.567 39.0811C117.359 39.0811 117.998 39.355 118.485 39.9028C118.975 40.4507 119.221 41.1794 119.221 42.0889V42.1587C119.221 42.7244 119.111 43.2329 118.893 43.6841C118.678 44.1317 118.368 44.4808 117.964 44.7314C117.563 44.9821 117.101 45.1074 116.578 45.1074C115.79 45.1074 115.151 44.8335 114.661 44.2856C114.174 43.7378 113.93 43.0127 113.93 42.1104V42.0405ZM114.929 42.1587C114.929 42.8032 115.078 43.3206 115.375 43.7109C115.676 44.1012 116.077 44.2964 116.578 44.2964C117.083 44.2964 117.484 44.0994 117.781 43.7056C118.078 43.3081 118.227 42.7531 118.227 42.0405C118.227 41.4032 118.075 40.8875 117.771 40.4937C117.47 40.0962 117.069 39.8975 116.567 39.8975C116.077 39.8975 115.681 40.0926 115.38 40.4829C115.08 40.8732 114.929 41.4318 114.929 42.1587ZM122.798 44.2964C123.152 44.2964 123.462 44.189 123.727 43.9741C123.992 43.7593 124.139 43.4907 124.167 43.1685H125.107C125.09 43.5015 124.975 43.8184 124.764 44.1191C124.552 44.4199 124.27 44.6598 123.915 44.8389C123.564 45.0179 123.192 45.1074 122.798 45.1074C122.007 45.1074 121.376 44.8442 120.907 44.3179C120.442 43.7879 120.209 43.0646 120.209 42.1479V41.9814C120.209 41.4157 120.313 40.9126 120.521 40.4722C120.728 40.0317 121.025 39.6898 121.412 39.4463C121.802 39.2028 122.263 39.0811 122.792 39.0811C123.444 39.0811 123.985 39.2762 124.415 39.6665C124.848 40.0568 125.079 40.5635 125.107 41.1865H124.167C124.139 40.8105 123.996 40.5026 123.738 40.2627C123.484 40.0192 123.168 39.8975 122.792 39.8975C122.288 39.8975 121.896 40.0801 121.616 40.4453C121.34 40.807 121.203 41.3315 121.203 42.019V42.207C121.203 42.8766 121.34 43.3923 121.616 43.7539C121.892 44.1156 122.286 44.2964 122.798 44.2964ZM130.543 39.9941H128.593V45H127.6V39.9941H125.688V39.1885H130.543V39.9941ZM135.27 39.1885H136.263V45H135.27V40.7622L132.589 45H131.596V39.1885H132.589V43.4316L135.27 39.1885ZM140.678 45V39.1885H142.945C143.718 39.1885 144.311 39.3245 144.723 39.5967C145.138 39.8652 145.346 40.2609 145.346 40.7837C145.346 41.0522 145.265 41.2957 145.104 41.5142C144.943 41.729 144.705 41.8937 144.39 42.0083C144.741 42.0907 145.022 42.2518 145.233 42.4917C145.448 42.7316 145.555 43.0181 145.555 43.3511C145.555 43.8846 145.358 44.2928 144.964 44.5757C144.574 44.8586 144.021 45 143.305 45H140.678ZM141.672 42.4487V44.1997H143.315C143.731 44.1997 144.041 44.1227 144.245 43.9688C144.452 43.8148 144.556 43.5981 144.556 43.3188C144.556 42.7388 144.13 42.4487 143.278 42.4487H141.672ZM141.672 41.6538H142.956C143.887 41.6538 144.352 41.3817 144.352 40.8374C144.352 40.2931 143.912 40.012 143.031 39.9941H141.672V41.6538ZM155.508 42.5186C155.411 43.3457 155.105 43.9849 154.589 44.436C154.077 44.8836 153.395 45.1074 152.543 45.1074C151.619 45.1074 150.878 44.7762 150.319 44.1138C149.764 43.4513 149.487 42.5651 149.487 41.4551V40.7031C149.487 39.9762 149.616 39.3371 149.874 38.7856C150.135 38.2342 150.504 37.8117 150.98 37.5181C151.456 37.2209 152.008 37.0723 152.634 37.0723C153.465 37.0723 154.131 37.305 154.632 37.7705C155.134 38.2324 155.425 38.8734 155.508 39.6934H154.471C154.382 39.0703 154.187 38.6191 153.886 38.3398C153.589 38.0605 153.171 37.9209 152.634 37.9209C151.975 37.9209 151.458 38.1644 151.082 38.6514C150.71 39.1383 150.523 39.8312 150.523 40.73V41.4873C150.523 42.3359 150.701 43.0109 151.055 43.5122C151.41 44.0135 151.906 44.2642 152.543 44.2642C153.116 44.2642 153.555 44.1353 153.859 43.8774C154.167 43.616 154.371 43.1631 154.471 42.5186H155.508ZM161.529 39.1885V45H160.53V40.0103H158.553L158.435 42.1855C158.371 43.1846 158.202 43.8989 157.93 44.3286C157.662 44.7583 157.234 44.9821 156.646 45H156.249V44.1245L156.534 44.103C156.856 44.0672 157.087 43.881 157.227 43.5444C157.366 43.2078 157.456 42.5848 157.495 41.6753L157.603 39.1885H161.529ZM162.861 42.0405C162.861 41.4712 162.972 40.9591 163.194 40.5044C163.419 40.0496 163.731 39.6987 164.128 39.4517C164.529 39.2046 164.986 39.0811 165.498 39.0811C166.289 39.0811 166.929 39.355 167.416 39.9028C167.906 40.4507 168.151 41.1794 168.151 42.0889V42.1587C168.151 42.7244 168.042 43.2329 167.824 43.6841C167.609 44.1317 167.299 44.4808 166.895 44.7314C166.493 44.9821 166.032 45.1074 165.509 45.1074C164.721 45.1074 164.082 44.8335 163.591 44.2856C163.104 43.7378 162.861 43.0127 162.861 42.1104V42.0405ZM163.86 42.1587C163.86 42.8032 164.008 43.3206 164.306 43.7109C164.606 44.1012 165.007 44.2964 165.509 44.2964C166.014 44.2964 166.415 44.0994 166.712 43.7056C167.009 43.3081 167.158 42.7531 167.158 42.0405C167.158 41.4032 167.006 40.8875 166.701 40.4937C166.4 40.0962 165.999 39.8975 165.498 39.8975C165.007 39.8975 164.612 40.0926 164.311 40.4829C164.01 40.8732 163.86 41.4318 163.86 42.1587ZM169.489 45V39.1885H171.755C172.529 39.1885 173.121 39.3245 173.533 39.5967C173.949 39.8652 174.156 40.2609 174.156 40.7837C174.156 41.0522 174.076 41.2957 173.915 41.5142C173.753 41.729 173.515 41.8937 173.2 42.0083C173.551 42.0907 173.832 42.2518 174.043 42.4917C174.258 42.7316 174.366 43.0181 174.366 43.3511C174.366 43.8846 174.169 44.2928 173.775 44.5757C173.385 44.8586 172.831 45 172.115 45H169.489ZM170.482 42.4487V44.1997H172.126C172.541 44.1997 172.851 44.1227 173.055 43.9688C173.263 43.8148 173.367 43.5981 173.367 43.3188C173.367 42.7388 172.941 42.4487 172.088 42.4487H170.482ZM170.482 41.6538H171.766C172.697 41.6538 173.163 41.3817 173.163 40.8374C173.163 40.2931 172.722 40.012 171.841 39.9941H170.482V41.6538ZM179.27 45C179.212 44.8854 179.166 44.6813 179.13 44.3877C178.668 44.8675 178.117 45.1074 177.476 45.1074C176.903 45.1074 176.432 44.9463 176.063 44.624C175.698 44.2982 175.515 43.8864 175.515 43.3887C175.515 42.7835 175.744 42.3145 176.203 41.9814C176.665 41.6449 177.313 41.4766 178.147 41.4766H179.114V41.02C179.114 40.6727 179.01 40.397 178.802 40.1929C178.595 39.9852 178.288 39.8813 177.884 39.8813C177.529 39.8813 177.232 39.9709 176.992 40.1499C176.752 40.3289 176.632 40.5456 176.632 40.7998H175.633C175.633 40.5098 175.735 40.2305 175.939 39.9619C176.147 39.6898 176.426 39.4749 176.777 39.3174C177.132 39.1598 177.52 39.0811 177.943 39.0811C178.612 39.0811 179.137 39.2493 179.517 39.5859C179.896 39.9189 180.093 40.3791 180.107 40.9663V43.6411C180.107 44.1746 180.175 44.599 180.312 44.9141V45H179.27ZM177.621 44.2427C177.932 44.2427 178.228 44.1621 178.507 44.001C178.786 43.8398 178.988 43.6304 179.114 43.3726V42.1802H178.335C177.118 42.1802 176.509 42.5365 176.509 43.249C176.509 43.5605 176.613 43.804 176.82 43.9795C177.028 44.1549 177.295 44.2427 177.621 44.2427ZM183.475 42.5239H182.75V45H181.751V39.1885H182.75V41.6484H183.4L185.355 39.1885H186.558L184.259 41.9814L186.751 45H185.489L183.475 42.5239ZM191.365 39.1885H192.359V45H191.365V40.7622L188.685 45H187.691V39.1885H188.685V43.4316L191.365 39.1885ZM197.714 39.1885H198.708V45H197.714V40.7622L195.034 45H194.04V39.1885H195.034V43.4316L197.714 39.1885Z" fill="#1F252B"/>
<path fill-rule="evenodd" clip-rule="evenodd" d="M30.1855 20.0537C30.7136 18.525 31 16.8871 31 15.1837C31 6.79796 24.0604 0 15.5 0C6.93959 0 0 6.79796 0 15.1837C0 16.9729 0.315931 18.6899 0.896129 20.2839L13.602 7.27551L11.4269 5.34209C11.0449 5.00248 10.9805 4.4294 11.2776 4.01344L11.6506 3.49119C12.0098 2.98835 12.7345 2.92838 13.1714 3.36532L15.5 5.69388L18.1471 3.28741C18.5902 2.88463 19.2855 2.95887 19.6335 3.44611L20.0688 4.05556C20.353 4.45335 20.3079 4.99825 19.9622 5.34391L18.0306 7.27551L30.1855 20.0537ZM28.6355 23.248L24.0408 18.3469V24.9898H21.5102V23.4082H8.85714V24.9898H6.0102V18.3469L2.09849 22.8175C4.78456 27.3327 9.78051 30.3673 15.5 30.3673C21.0358 30.3673 25.8937 27.5246 28.6355 23.248ZM8.85714 15.1837L15.5 8.54082L21.5102 15.1837V20.2449H8.85714V15.1837Z" fill="#1F252B"/>
</svg>
