<svg width="20" height="20" viewBox="0 0 20 20" fill="none" xmlns="http://www.w3.org/2000/svg">
<path d="M17.1565 3.97839C15.571 2.19279 13.3852 1.13195 10.9983 0.990837C6.08045 0.701925 1.84236 4.46914 1.55155 9.38873C1.45857 10.9613 1.77926 12.5205 2.48042 13.9193L0.942847 18.4687L5.74575 17.5059C7.00715 18.2934 8.45265 18.7542 9.94573 18.8425L9.9493 18.8427C14.8669 19.1316 19.105 15.3638 19.3961 10.4445C19.5377 8.06008 18.7422 5.76401 17.1565 3.97839ZM10.0384 17.3356L10.0355 17.3355C8.70464 17.2567 7.4204 16.8224 6.32157 16.08L6.06009 15.9033L3.20984 16.4747L4.1197 13.782L3.95994 13.4908C3.28707 12.2664 2.97512 10.8789 3.05805 9.47753C3.29975 5.38859 6.8223 2.25752 10.9128 2.49782C12.8936 2.61478 14.7102 3.49678 16.028 4.98075C17.3459 6.46472 18.007 8.37318 17.89 10.3548C17.6482 14.4444 14.126 17.5758 10.0384 17.3356Z" fill="#1F252B"/>
<path d="M14.4393 12.0263C14.2227 11.9015 13.1579 11.2976 12.9576 11.2111C12.7577 11.1246 12.6109 11.0786 12.4491 11.2933C12.2874 11.508 11.8304 11.9851 11.6915 12.1264C11.5525 12.2677 11.4213 12.2785 11.205 12.1537C10.9885 12.0289 10.2835 11.7513 9.4762 10.9411C8.84786 10.3105 8.44305 9.55381 8.32598 9.32305C8.20893 9.09199 8.33219 8.97817 8.45043 8.87362C8.55669 8.77943 8.68886 8.62607 8.80791 8.50244C8.92697 8.37881 8.96968 8.28776 9.05289 8.14349C9.13611 7.99892 9.10652 7.86656 9.05738 7.75158C9.00824 7.6366 8.62651 6.51237 8.46686 6.05492C8.31129 5.60937 8.12403 5.65755 7.98741 5.64265C7.85791 5.62846 7.70904 5.61852 7.56039 5.60979C7.41175 5.60106 7.16689 5.64257 6.94912 5.85396C6.73164 6.06537 6.12354 6.57098 6.05903 7.66899C5.99453 8.76701 6.73144 9.87473 6.83442 10.0299C6.93708 10.1854 8.26616 12.5242 10.4471 13.622C10.9659 13.8832 11.3731 14.0447 11.6912 14.1665C12.2156 14.3677 12.7032 14.3724 13.0911 14.3375C13.5235 14.2986 14.4425 13.8756 14.6589 13.3655C14.8754 12.8554 14.9017 12.4086 14.8514 12.3123C14.8012 12.2158 14.6559 12.1511 14.4393 12.0263Z" fill="#1F252B"/>
</svg>
