<svg width="29" height="28" viewBox="0 0 29 28" fill="none" xmlns="http://www.w3.org/2000/svg">
<path d="M26.4935 7.46891H23.4554V1.94266C23.4554 1.41535 23.0279 0.987793 22.5005 0.987793H6.29713C5.76982 0.987793 5.34227 1.41529 5.34227 1.94266V7.46891H2.30413C1.07562 7.46891 0.0761719 8.46841 0.0761719 9.69692V19.3033C0.0761719 20.5318 1.07562 21.5312 2.30413 21.5312H5.34243V26.6568C5.34243 27.1842 5.76993 27.6117 6.2973 27.6117H22.5004C23.0277 27.6117 23.4552 27.1842 23.4552 26.6568V21.5312H26.4935C27.722 21.5312 28.7215 20.5318 28.7215 19.3033V9.69692C28.7215 8.46847 27.722 7.46891 26.4935 7.46891ZM7.25193 2.89752H21.5457V7.46891H7.25193V2.89752ZM21.5455 25.702H7.25216C7.25216 25.5154 7.25216 18.1209 7.25216 17.8901H21.5456C21.5455 18.1267 21.5455 25.5226 21.5455 25.702ZM26.8118 19.3033C26.8118 19.4788 26.669 19.6216 26.4935 19.6216H23.4552V16.9353C23.4552 16.408 23.0277 15.9805 22.5004 15.9805H6.2973C5.76999 15.9805 5.34243 16.408 5.34243 16.9353V19.6216H2.30413C2.12862 19.6216 1.98584 19.4788 1.98584 19.3033V9.69697C1.98584 9.52147 2.12862 9.37869 2.30413 9.37869C3.03671 9.37869 25.7782 9.37869 26.4935 9.37869C26.669 9.37869 26.8118 9.52147 26.8118 9.69697V19.3033Z" fill="black"/>
</svg>
