<svg width="30" height="30" viewBox="0 0 30 30" fill="none" xmlns="http://www.w3.org/2000/svg">
<path d="M29.5439 27.3252L22.1484 19.8992C24.0499 17.7169 25.0917 14.971 25.0917 12.1125C25.0917 5.43377 19.4635 0 12.5459 0C5.62818 0 0 5.43377 0 12.1125C0 18.7912 5.62818 24.225 12.5459 24.225C15.1429 24.225 17.6177 23.4687 19.7335 22.0331L27.1852 29.5155C27.4967 29.8278 27.9156 30 28.3646 30C28.7895 30 29.1926 29.8436 29.4986 29.5592C30.1488 28.9552 30.1695 27.9535 29.5439 27.3252ZM12.5459 3.15978C17.6591 3.15978 21.8189 7.17586 21.8189 12.1125C21.8189 17.0491 17.6591 21.0652 12.5459 21.0652C7.43261 21.0652 3.27283 17.0491 3.27283 12.1125C3.27283 7.17586 7.43261 3.15978 12.5459 3.15978Z" fill="white"/>
</svg>
