<svg width="18" height="18" viewBox="0 0 18 18" fill="none" xmlns="http://www.w3.org/2000/svg">
<path fill-rule="evenodd" clip-rule="evenodd" d="M9 16.65C13.225 16.65 16.65 13.225 16.65 8.99998C16.65 4.77501 13.225 1.34998 9 1.34998C4.77502 1.34998 1.35 4.77501 1.35 8.99998C1.35 13.225 4.77502 16.65 9 16.65ZM9 18C13.9706 18 18 13.9705 18 8.99998C18 4.02942 13.9706 -1.52588e-05 9 -1.52588e-05C4.02944 -1.52588e-05 0 4.02942 0 8.99998C0 13.9705 4.02944 18 9 18Z" fill="#1F252B"/>
<path d="M7.34297 10.0789L7.15988 12.6541C7.42183 12.6541 7.53528 12.5416 7.67132 12.4065L8.89943 11.2328L11.4442 13.0964C11.9109 13.3565 12.2397 13.2195 12.3656 12.667L14.036 4.83997L14.0365 4.83951C14.1845 4.14959 13.787 3.87981 13.3322 4.04906L3.51383 7.80809C2.84374 8.0682 2.85389 8.44175 3.39992 8.611L5.9101 9.39177L11.7407 5.74341C12.0151 5.56171 12.2646 5.66225 12.0594 5.84395L7.34297 10.0789Z" fill="#1F252B"/>
</svg>
