<svg width="15" height="15" viewBox="0 0 15 15" fill="none" xmlns="http://www.w3.org/2000/svg">
<path d="M7.5 0C3.3579 0 0 3.3579 0 7.5C0 11.6421 3.3579 15 7.5 15C11.6421 15 15 11.6421 15 7.5C15 3.3579 11.6421 0 7.5 0ZM10.7524 8.49134C10.8114 8.56435 10.9517 8.70655 11.1738 8.91827H11.179L11.1841 8.92328L11.1893 8.92861L11.1998 8.93895C11.6889 9.3934 12.0202 9.77683 12.1937 10.0891C12.2042 10.1063 12.2155 10.1282 12.2277 10.1542C12.2397 10.1802 12.2518 10.2261 12.264 10.292C12.276 10.3581 12.2751 10.4168 12.2614 10.4689C12.2476 10.5207 12.2042 10.5688 12.1314 10.612C12.0585 10.6555 11.9562 10.6771 11.8243 10.6771L10.4921 10.6981C10.4089 10.7154 10.3117 10.7067 10.2007 10.672C10.0895 10.6372 9.99949 10.599 9.93014 10.5575L9.82596 10.4949C9.72177 10.422 9.6004 10.311 9.46169 10.1619C9.32283 10.0127 9.20405 9.87828 9.10519 9.75858C9.00633 9.63888 8.90047 9.5385 8.78762 9.45667C8.67476 9.37515 8.57682 9.34823 8.49362 9.37606C8.48328 9.37971 8.46929 9.3858 8.45195 9.39432C8.43446 9.40298 8.4051 9.42793 8.36343 9.46975C8.32176 9.51143 8.28449 9.56268 8.25149 9.62322C8.21849 9.68405 8.18898 9.77424 8.16297 9.89394C8.13696 10.0135 8.12556 10.1481 8.12921 10.2973C8.12921 10.3492 8.12297 10.3971 8.11096 10.4404C8.09879 10.4838 8.08571 10.5158 8.07187 10.5365L8.05103 10.5625C7.98852 10.6287 7.89666 10.6667 7.77529 10.6771H7.1768C6.93041 10.6911 6.67718 10.6625 6.4171 10.5913C6.15702 10.52 5.92873 10.4282 5.73283 10.3154C5.53663 10.2028 5.35808 10.0883 5.19686 9.97212C5.03549 9.85577 4.91321 9.75614 4.83001 9.67295L4.69997 9.54793C4.66529 9.5134 4.61754 9.46124 4.55685 9.39173C4.49617 9.32238 4.37221 9.16466 4.18483 8.91827C3.99745 8.67188 3.81358 8.41012 3.63319 8.1324C3.45281 7.85483 3.24034 7.48875 2.99562 7.03429C2.75105 6.57999 2.52474 6.1082 2.31653 5.61892C2.29569 5.56355 2.28519 5.51671 2.28519 5.47853C2.28519 5.44051 2.29037 5.41268 2.30086 5.39519L2.3217 5.36401C2.37371 5.298 2.47257 5.265 2.61828 5.265L4.04415 5.25465C4.08582 5.26165 4.12567 5.27291 4.16384 5.28857C4.20202 5.30408 4.22985 5.31884 4.24719 5.33268L4.2732 5.34834C4.32871 5.38667 4.37023 5.44203 4.39807 5.51488C4.46742 5.68857 4.54727 5.86804 4.63746 6.0536C4.72765 6.23915 4.79883 6.3806 4.85085 6.47763L4.93404 6.62866C5.03458 6.83672 5.13176 7.01726 5.22545 7.16981C5.31929 7.32251 5.40325 7.44144 5.47793 7.52631C5.55245 7.61133 5.62439 7.67825 5.6939 7.72662C5.76325 7.77529 5.82226 7.79962 5.87093 7.79962C5.91945 7.79962 5.9663 7.79095 6.01147 7.77361C6.01831 7.77012 6.02698 7.76145 6.03748 7.74761C6.04797 7.73377 6.06865 7.69559 6.09999 7.63293C6.13116 7.57057 6.15459 7.48905 6.17025 7.38836C6.18592 7.28798 6.20234 7.14745 6.21968 6.96707C6.23702 6.78653 6.23702 6.5698 6.21968 6.31657C6.21269 6.17771 6.19702 6.05116 6.17284 5.93664C6.1485 5.82226 6.12417 5.74242 6.09999 5.69724L6.06866 5.63489C5.98196 5.51701 5.83458 5.44234 5.62637 5.41101C5.5812 5.40431 5.58987 5.36264 5.65238 5.28629C5.71139 5.22028 5.77725 5.16842 5.8501 5.13009C6.03398 5.04005 6.44858 4.99838 7.09391 5.00507C7.37833 5.00872 7.61255 5.03108 7.79643 5.07275C7.86578 5.09024 7.92388 5.11351 7.97073 5.14302C8.01757 5.17237 8.05316 5.2142 8.0775 5.26773C8.10168 5.32157 8.11993 5.37709 8.1321 5.43428C8.14427 5.49161 8.15035 5.5707 8.15035 5.67108C8.15035 5.77177 8.14868 5.86728 8.14518 5.95732C8.14168 6.04751 8.13742 6.16995 8.13225 6.32417C8.12708 6.47855 8.12434 6.62182 8.12434 6.75353C8.12434 6.79186 8.12267 6.86456 8.11917 6.97209C8.11567 7.07977 8.11461 7.16296 8.11658 7.22182C8.11826 7.28083 8.12434 7.35125 8.13468 7.43262C8.14518 7.51414 8.1651 7.58198 8.19461 7.63551C8.22396 7.68936 8.26305 7.73179 8.31172 7.76297C8.3394 7.77012 8.36891 7.77696 8.40024 7.78396C8.43142 7.7908 8.47644 7.77194 8.53545 7.72662C8.59431 7.6816 8.66032 7.62167 8.73317 7.54715C8.80602 7.47278 8.89621 7.35658 9.00374 7.19855C9.11112 7.04098 9.22914 6.85437 9.35751 6.63915C9.56572 6.27839 9.75128 5.88797 9.91432 5.46819C9.92816 5.43336 9.9455 5.4031 9.96634 5.37709C9.98717 5.35093 10.0062 5.33268 10.0235 5.32234L10.0444 5.30667C10.0512 5.30317 10.0599 5.29891 10.0704 5.29374C10.0809 5.28872 10.1034 5.2834 10.138 5.27808C10.1727 5.27306 10.2074 5.27214 10.2422 5.27564L11.741 5.265C11.8762 5.24781 11.9872 5.25207 12.0739 5.27792C12.1606 5.30393 12.2144 5.33268 12.2353 5.36386L12.2666 5.41587C12.3463 5.63808 12.0862 6.14774 11.486 6.94577C11.4027 7.05695 11.2898 7.20448 11.1478 7.38821C10.8772 7.73529 10.7212 7.96251 10.6798 8.07035C10.6205 8.21225 10.6448 8.35279 10.7524 8.49134Z" fill="#5A5A5A"/>
</svg>
