<svg width="19" height="22" viewBox="0 0 19 22" fill="none" xmlns="http://www.w3.org/2000/svg">
<path d="M18.3364 12.8402C18.9393 7.70282 18.0467 4.45943 16.4367 2.99245L16.4375 2.9916C13.8389 0.48639 5.06273 0.115595 1.95378 3.10411C0.557621 4.56598 0.0658476 6.71148 0.0119546 9.36756C-0.0419383 12.0245 -0.105936 17.0017 4.47581 18.3519H4.48002L4.47581 20.4138C4.47581 20.4138 4.44465 21.2492 4.97179 21.4171C5.57472 21.6149 5.84755 21.227 7.72285 18.9596C10.8587 19.235 13.2671 18.6042 13.5408 18.5121C14.174 18.2973 17.757 17.8174 18.3364 12.8402ZM8.0319 17.5088C8.0319 17.5088 6.04712 20.0141 5.42988 20.6644C5.22778 20.8758 5.00631 20.8562 5.00968 20.4368C5.00968 20.1615 5.02484 17.0136 5.02484 17.0136C1.14034 15.8867 1.36938 11.6486 1.41149 9.43149C1.45359 7.21354 1.85442 5.39707 3.0367 4.17388C5.76418 1.58514 13.4582 2.16392 15.4186 4.02897C17.8152 6.17958 16.9621 12.2555 16.9672 12.4626C16.4746 16.6172 13.5711 16.8806 13.0372 17.0605C12.809 17.1372 10.6912 17.6887 8.0319 17.5088Z" fill="#1F252B"/>
<path d="M9.24192 4.66055C8.91375 4.66055 8.91375 5.17199 9.24192 5.17626C11.788 5.19586 13.8849 6.97056 13.9079 10.2259C13.9079 10.5694 14.4109 10.5651 14.4066 10.2216H14.4057C14.3785 6.71399 12.0889 4.68016 9.24192 4.66055Z" fill="#1F252B"/>
<path d="M12.5911 9.68635C12.5834 10.0256 13.0855 10.0418 13.0898 9.69828C13.1315 7.76418 11.939 6.17105 9.69805 6.00312C9.36987 5.97926 9.33578 6.49496 9.6631 6.51883C11.6066 6.66629 12.6303 7.99263 12.5911 9.68635Z" fill="#1F252B"/>
<path d="M12.054 11.8864C11.6329 11.6426 11.2042 11.7943 11.0269 12.0339L10.6561 12.5138C10.4677 12.7576 10.1157 12.7252 10.1157 12.7252C7.54654 12.0458 6.85951 9.35733 6.85951 9.35733C6.85951 9.35733 6.82797 8.99335 7.06323 8.79815L7.52693 8.41457C7.75878 8.23045 7.90539 7.7872 7.66928 7.35163C7.03851 6.21196 6.61487 5.81901 6.39921 5.51726C6.17248 5.23341 5.83152 5.16948 5.47692 5.36127H5.46925C4.73193 5.79258 3.92472 6.59981 4.18299 7.4309C4.62368 8.30717 5.43345 11.1005 8.0145 13.211C9.22746 14.2092 11.147 15.2321 11.9619 15.4682L11.9696 15.4801C12.7726 15.7478 13.5534 14.909 13.9702 14.1495V14.1436C14.1551 13.7762 14.0938 13.4284 13.8236 13.2008C13.3445 12.7337 12.6217 12.218 12.054 11.8864Z" fill="#1F252B"/>
<path d="M10.0491 7.90565C10.8683 7.95339 11.2655 8.3813 11.3081 9.26013C11.3235 9.60364 11.8221 9.57978 11.8068 9.23626C11.7522 8.08892 11.1538 7.44962 10.0764 7.38995C9.74817 7.37034 9.71748 7.88605 10.0491 7.90565Z" fill="#1F252B"/>
</svg>
